<svg xmlns="http://www.w3.org/2000/svg" xmlns:xlink="http://www.w3.org/1999/xlink" viewBox="0 0 1024 716" aria-label="Butterfly">
  <path id="wing-left-upper" class="paint-section" fill="#fff" d="M 129.0 113.0 L 128.0 116.0 L 125.0 119.0 L 125.0 120.0 L 123.0 123.0 L 122.0 128.0 L 121.0 129.0 L 121.0 148.0 L 122.0 149.0 L 123.0 156.0 L 124.0 157.0 L 124.0 159.0 L 126.0 162.0 L 127.0 167.0 L 130.0 172.0 L 130.0 174.0 L 134.0 181.0 L 134.0 183.0 L 135.0 184.0 L 136.0 187.0 L 138.0 189.0 L 138.0 190.0 L 140.0 193.0 L 140.0 195.0 L 141.0 196.0 L 143.0 201.0 L 145.0 203.0 L 145.0 204.0 L 146.0 205.0 L 146.0 207.0 L 147.0 208.0 L 150.0 215.0 L 153.0 219.0 L 153.0 221.0 L 157.0 228.0 L 157.0 230.0 L 160.0 235.0 L 160.0 238.0 L 163.0 243.0 L 164.0 248.0 L 166.0 251.0 L 166.0 254.0 L 167.0 255.0 L 167.0 259.0 L 168.0 260.0 L 168.0 262.0 L 169.0 263.0 L 169.0 265.0 L 170.0 266.0 L 170.0 270.0 L 171.0 271.0 L 171.0 274.0 L 172.0 275.0 L 172.0 279.0 L 173.0 280.0 L 173.0 289.0 L 174.0 290.0 L 174.0 304.0 L 175.0 305.0 L 175.0 333.0 L 176.0 334.0 L 176.0 342.0 L 177.0 343.0 L 177.0 346.0 L 178.0 347.0 L 179.0 352.0 L 180.0 353.0 L 185.0 364.0 L 196.0 375.0 L 197.0 375.0 L 199.0 377.0 L 202.0 378.0 L 206.0 381.0 L 208.0 381.0 L 209.0 382.0 L 211.0 382.0 L 214.0 384.0 L 217.0 384.0 L 218.0 385.0 L 220.0 385.0 L 221.0 386.0 L 223.0 386.0 L 224.0 387.0 L 228.0 387.0 L 229.0 388.0 L 233.0 388.0 L 234.0 389.0 L 238.0 389.0 L 239.0 390.0 L 245.0 390.0 L 246.0 391.0 L 255.0 391.0 L 256.0 392.0 L 270.0 392.0 L 271.0 393.0 L 303.0 393.0 L 304.0 392.0 L 326.0 392.0 L 327.0 391.0 L 351.0 391.0 L 352.0 390.0 L 387.0 390.0 L 388.0 391.0 L 404.0 391.0 L 405.0 392.0 L 417.0 392.0 L 418.0 393.0 L 427.0 393.0 L 428.0 394.0 L 439.0 394.0 L 440.0 395.0 L 455.0 395.0 L 456.0 394.0 L 460.0 394.0 L 461.0 393.0 L 462.0 393.0 L 465.0 390.0 L 465.0 389.0 L 467.0 386.0 L 467.0 382.0 L 468.0 381.0 L 468.0 377.0 L 469.0 376.0 L 469.0 373.0 L 470.0 372.0 L 470.0 369.0 L 471.0 368.0 L 472.0 361.0 L 474.0 358.0 L 474.0 356.0 L 475.0 355.0 L 475.0 353.0 L 476.0 352.0 L 476.0 345.0 L 475.0 344.0 L 472.0 337.0 L 470.0 335.0 L 468.0 330.0 L 466.0 328.0 L 466.0 327.0 L 464.0 325.0 L 462.0 320.0 L 458.0 315.0 L 456.0 310.0 L 454.0 308.0 L 454.0 307.0 L 452.0 305.0 L 452.0 304.0 L 448.0 299.0 L 447.0 296.0 L 444.0 293.0 L 444.0 292.0 L 442.0 290.0 L 442.0 289.0 L 440.0 287.0 L 440.0 286.0 L 437.0 283.0 L 437.0 282.0 L 435.0 280.0 L 435.0 279.0 L 433.0 277.0 L 433.0 276.0 L 430.0 273.0 L 430.0 272.0 L 427.0 269.0 L 427.0 268.0 L 423.0 264.0 L 423.0 263.0 L 421.0 261.0 L 421.0 260.0 L 416.0 255.0 L 416.0 254.0 L 414.0 252.0 L 414.0 251.0 L 409.0 246.0 L 409.0 245.0 L 404.0 240.0 L 404.0 239.0 L 397.0 232.0 L 397.0 231.0 L 387.0 221.0 L 387.0 220.0 L 361.0 194.0 L 360.0 194.0 L 350.0 184.0 L 349.0 184.0 L 343.0 178.0 L 342.0 178.0 L 330.0 167.0 L 329.0 167.0 L 326.0 164.0 L 325.0 164.0 L 314.0 155.0 L 311.0 154.0 L 304.0 148.0 L 301.0 147.0 L 293.0 141.0 L 290.0 140.0 L 285.0 136.0 L 280.0 134.0 L 278.0 132.0 L 275.0 131.0 L 273.0 129.0 L 272.0 129.0 L 269.0 127.0 L 267.0 127.0 L 265.0 125.0 L 264.0 125.0 L 255.0 120.0 L 253.0 120.0 L 242.0 114.0 L 239.0 114.0 L 238.0 113.0 L 237.0 113.0 L 232.0 110.0 L 230.0 110.0 L 227.0 108.0 L 225.0 108.0 L 224.0 107.0 L 221.0 107.0 L 220.0 106.0 L 218.0 106.0 L 215.0 104.0 L 211.0 104.0 L 210.0 103.0 L 208.0 103.0 L 207.0 102.0 L 205.0 102.0 L 204.0 101.0 L 200.0 101.0 L 199.0 100.0 L 195.0 100.0 L 194.0 99.0 L 189.0 99.0 L 188.0 98.0 L 182.0 98.0 L 181.0 97.0 L 163.0 97.0 L 162.0 98.0 L 158.0 98.0 L 157.0 99.0 L 154.0 99.0 L 153.0 100.0 L 149.0 100.0 L 148.0 101.0 L 146.0 101.0 L 145.0 102.0 L 140.0 104.0 L 135.0 108.0 L 134.0 108.0 Z"/>
  <path id="wing-left-lower" class="paint-section" fill="#fff" d="M 460.0 387.0 L 459.0 387.0 L 458.0 386.0 L 454.0 386.0 L 453.0 385.0 L 411.0 385.0 L 410.0 386.0 L 393.0 386.0 L 392.0 387.0 L 380.0 387.0 L 379.0 388.0 L 368.0 388.0 L 367.0 389.0 L 360.0 389.0 L 359.0 390.0 L 352.0 390.0 L 351.0 391.0 L 342.0 391.0 L 341.0 392.0 L 335.0 392.0 L 334.0 393.0 L 330.0 393.0 L 329.0 394.0 L 325.0 394.0 L 324.0 395.0 L 320.0 395.0 L 319.0 396.0 L 316.0 396.0 L 315.0 397.0 L 312.0 397.0 L 311.0 398.0 L 307.0 398.0 L 306.0 399.0 L 302.0 399.0 L 301.0 400.0 L 298.0 400.0 L 297.0 401.0 L 295.0 401.0 L 294.0 402.0 L 292.0 402.0 L 291.0 403.0 L 289.0 403.0 L 288.0 404.0 L 286.0 404.0 L 285.0 405.0 L 283.0 405.0 L 282.0 406.0 L 279.0 406.0 L 278.0 407.0 L 276.0 407.0 L 275.0 408.0 L 274.0 408.0 L 273.0 409.0 L 271.0 409.0 L 268.0 411.0 L 266.0 411.0 L 265.0 412.0 L 263.0 412.0 L 262.0 413.0 L 261.0 413.0 L 260.0 414.0 L 259.0 414.0 L 258.0 415.0 L 257.0 415.0 L 256.0 416.0 L 255.0 416.0 L 254.0 417.0 L 253.0 417.0 L 252.0 418.0 L 251.0 418.0 L 250.0 419.0 L 249.0 419.0 L 248.0 420.0 L 247.0 420.0 L 246.0 421.0 L 243.0 422.0 L 238.0 426.0 L 237.0 426.0 L 236.0 427.0 L 235.0 427.0 L 233.0 429.0 L 232.0 429.0 L 227.0 434.0 L 226.0 434.0 L 215.0 445.0 L 215.0 446.0 L 212.0 449.0 L 211.0 452.0 L 209.0 454.0 L 209.0 455.0 L 208.0 456.0 L 208.0 457.0 L 207.0 458.0 L 207.0 459.0 L 206.0 460.0 L 206.0 461.0 L 203.0 466.0 L 203.0 469.0 L 202.0 470.0 L 202.0 472.0 L 201.0 473.0 L 201.0 476.0 L 200.0 477.0 L 200.0 501.0 L 201.0 502.0 L 201.0 506.0 L 202.0 507.0 L 202.0 510.0 L 203.0 511.0 L 203.0 514.0 L 204.0 515.0 L 204.0 517.0 L 205.0 518.0 L 205.0 519.0 L 206.0 520.0 L 206.0 522.0 L 207.0 523.0 L 207.0 526.0 L 208.0 527.0 L 208.0 528.0 L 209.0 529.0 L 209.0 530.0 L 210.0 531.0 L 210.0 532.0 L 213.0 537.0 L 213.0 539.0 L 214.0 540.0 L 214.0 541.0 L 215.0 542.0 L 216.0 545.0 L 218.0 547.0 L 219.0 550.0 L 221.0 552.0 L 221.0 553.0 L 222.0 554.0 L 222.0 555.0 L 224.0 557.0 L 225.0 560.0 L 227.0 562.0 L 227.0 563.0 L 229.0 565.0 L 229.0 566.0 L 232.0 569.0 L 232.0 570.0 L 235.0 573.0 L 235.0 574.0 L 240.0 579.0 L 240.0 580.0 L 243.0 583.0 L 243.0 584.0 L 249.0 590.0 L 249.0 591.0 L 264.0 606.0 L 265.0 606.0 L 272.0 613.0 L 273.0 613.0 L 278.0 618.0 L 279.0 618.0 L 281.0 620.0 L 282.0 620.0 L 284.0 622.0 L 285.0 622.0 L 288.0 625.0 L 289.0 625.0 L 290.0 626.0 L 291.0 626.0 L 292.0 627.0 L 295.0 628.0 L 297.0 630.0 L 298.0 630.0 L 301.0 632.0 L 303.0 632.0 L 308.0 635.0 L 311.0 635.0 L 312.0 636.0 L 314.0 636.0 L 315.0 637.0 L 317.0 637.0 L 318.0 638.0 L 321.0 638.0 L 322.0 639.0 L 326.0 639.0 L 327.0 640.0 L 345.0 640.0 L 346.0 639.0 L 350.0 639.0 L 351.0 638.0 L 354.0 638.0 L 357.0 636.0 L 359.0 636.0 L 360.0 635.0 L 362.0 635.0 L 363.0 634.0 L 364.0 634.0 L 365.0 633.0 L 366.0 633.0 L 367.0 632.0 L 370.0 631.0 L 374.0 627.0 L 375.0 627.0 L 377.0 625.0 L 378.0 625.0 L 383.0 620.0 L 384.0 620.0 L 389.0 615.0 L 389.0 614.0 L 400.0 603.0 L 400.0 602.0 L 403.0 599.0 L 403.0 598.0 L 407.0 594.0 L 407.0 593.0 L 409.0 591.0 L 409.0 590.0 L 415.0 583.0 L 415.0 582.0 L 417.0 580.0 L 417.0 579.0 L 420.0 576.0 L 420.0 575.0 L 421.0 574.0 L 421.0 573.0 L 423.0 571.0 L 424.0 568.0 L 428.0 563.0 L 428.0 562.0 L 429.0 561.0 L 430.0 558.0 L 434.0 553.0 L 434.0 552.0 L 435.0 551.0 L 435.0 550.0 L 436.0 549.0 L 437.0 546.0 L 439.0 544.0 L 439.0 543.0 L 440.0 542.0 L 440.0 541.0 L 441.0 540.0 L 441.0 539.0 L 442.0 538.0 L 442.0 537.0 L 443.0 536.0 L 444.0 533.0 L 446.0 531.0 L 446.0 530.0 L 447.0 529.0 L 447.0 528.0 L 448.0 527.0 L 448.0 526.0 L 449.0 525.0 L 449.0 524.0 L 450.0 523.0 L 450.0 522.0 L 451.0 521.0 L 451.0 520.0 L 452.0 519.0 L 452.0 518.0 L 453.0 517.0 L 453.0 516.0 L 454.0 515.0 L 454.0 514.0 L 455.0 513.0 L 455.0 512.0 L 458.0 507.0 L 458.0 505.0 L 460.0 503.0 L 460.0 502.0 L 462.0 499.0 L 462.0 497.0 L 463.0 496.0 L 463.0 495.0 L 465.0 492.0 L 465.0 490.0 L 466.0 489.0 L 466.0 488.0 L 467.0 487.0 L 467.0 486.0 L 470.0 481.0 L 470.0 479.0 L 471.0 478.0 L 471.0 476.0 L 472.0 475.0 L 472.0 473.0 L 473.0 472.0 L 473.0 470.0 L 475.0 467.0 L 475.0 450.0 L 474.0 449.0 L 474.0 447.0 L 473.0 446.0 L 473.0 444.0 L 472.0 443.0 L 472.0 441.0 L 471.0 440.0 L 471.0 438.0 L 470.0 437.0 L 470.0 433.0 L 469.0 432.0 L 469.0 428.0 L 468.0 427.0 L 468.0 422.0 L 467.0 421.0 L 467.0 416.0 L 466.0 415.0 L 466.0 405.0 L 465.0 404.0 L 465.0 394.0 L 464.0 393.0 L 463.0 390.0 Z"/>
  <path id="wing-right-upper" class="paint-section" fill="#fff" d="M 851.0 114.0 L 844.0 107.0 L 843.0 107.0 L 841.0 105.0 L 840.0 105.0 L 836.0 102.0 L 834.0 102.0 L 833.0 101.0 L 830.0 101.0 L 829.0 100.0 L 827.0 100.0 L 826.0 99.0 L 817.0 98.0 L 816.0 97.0 L 798.0 97.0 L 797.0 98.0 L 792.0 98.0 L 791.0 99.0 L 785.0 99.0 L 784.0 100.0 L 780.0 100.0 L 779.0 101.0 L 775.0 101.0 L 774.0 102.0 L 771.0 102.0 L 770.0 103.0 L 768.0 103.0 L 767.0 104.0 L 764.0 104.0 L 761.0 106.0 L 759.0 106.0 L 758.0 107.0 L 756.0 107.0 L 755.0 108.0 L 752.0 108.0 L 749.0 110.0 L 744.0 111.0 L 739.0 114.0 L 734.0 115.0 L 733.0 116.0 L 732.0 116.0 L 723.0 121.0 L 721.0 121.0 L 717.0 124.0 L 704.0 130.0 L 699.0 134.0 L 694.0 136.0 L 689.0 140.0 L 684.0 142.0 L 681.0 145.0 L 680.0 145.0 L 678.0 147.0 L 675.0 148.0 L 668.0 154.0 L 665.0 155.0 L 660.0 160.0 L 657.0 161.0 L 653.0 165.0 L 652.0 165.0 L 649.0 168.0 L 648.0 168.0 L 642.0 174.0 L 641.0 174.0 L 637.0 178.0 L 636.0 178.0 L 633.0 181.0 L 632.0 181.0 L 626.0 188.0 L 625.0 188.0 L 618.0 195.0 L 617.0 195.0 L 595.0 217.0 L 595.0 218.0 L 586.0 227.0 L 586.0 228.0 L 580.0 234.0 L 580.0 235.0 L 573.0 242.0 L 573.0 243.0 L 569.0 247.0 L 569.0 248.0 L 557.0 262.0 L 557.0 263.0 L 554.0 266.0 L 554.0 267.0 L 550.0 271.0 L 550.0 272.0 L 548.0 274.0 L 548.0 275.0 L 546.0 277.0 L 546.0 278.0 L 543.0 281.0 L 543.0 282.0 L 541.0 284.0 L 541.0 285.0 L 539.0 287.0 L 539.0 288.0 L 536.0 291.0 L 536.0 292.0 L 534.0 294.0 L 533.0 297.0 L 530.0 300.0 L 530.0 301.0 L 527.0 305.0 L 526.0 308.0 L 523.0 311.0 L 523.0 312.0 L 520.0 316.0 L 519.0 319.0 L 515.0 324.0 L 513.0 329.0 L 509.0 334.0 L 509.0 335.0 L 506.0 340.0 L 506.0 342.0 L 504.0 345.0 L 504.0 354.0 L 505.0 355.0 L 505.0 357.0 L 506.0 358.0 L 506.0 361.0 L 507.0 362.0 L 507.0 364.0 L 508.0 365.0 L 508.0 368.0 L 510.0 371.0 L 510.0 374.0 L 511.0 375.0 L 511.0 379.0 L 512.0 380.0 L 512.0 386.0 L 513.0 387.0 L 514.0 390.0 L 517.0 393.0 L 518.0 393.0 L 519.0 394.0 L 523.0 394.0 L 524.0 395.0 L 535.0 395.0 L 536.0 394.0 L 546.0 394.0 L 547.0 393.0 L 559.0 393.0 L 560.0 392.0 L 586.0 392.0 L 587.0 391.0 L 700.0 391.0 L 701.0 392.0 L 708.0 392.0 L 709.0 391.0 L 711.0 391.0 L 712.0 392.0 L 713.0 391.0 L 732.0 391.0 L 733.0 390.0 L 741.0 390.0 L 742.0 389.0 L 746.0 389.0 L 747.0 388.0 L 752.0 388.0 L 753.0 387.0 L 757.0 387.0 L 760.0 385.0 L 762.0 385.0 L 763.0 384.0 L 765.0 384.0 L 766.0 383.0 L 771.0 382.0 L 772.0 381.0 L 779.0 378.0 L 781.0 376.0 L 784.0 375.0 L 794.0 365.0 L 794.0 364.0 L 796.0 362.0 L 796.0 361.0 L 803.0 348.0 L 803.0 343.0 L 804.0 342.0 L 804.0 296.0 L 805.0 295.0 L 805.0 289.0 L 806.0 288.0 L 806.0 282.0 L 807.0 281.0 L 807.0 277.0 L 808.0 276.0 L 808.0 273.0 L 809.0 272.0 L 809.0 269.0 L 810.0 268.0 L 810.0 263.0 L 811.0 262.0 L 812.0 255.0 L 813.0 254.0 L 813.0 252.0 L 814.0 251.0 L 814.0 249.0 L 815.0 248.0 L 815.0 246.0 L 816.0 245.0 L 816.0 242.0 L 817.0 241.0 L 818.0 236.0 L 820.0 233.0 L 820.0 231.0 L 823.0 226.0 L 823.0 223.0 L 824.0 222.0 L 825.0 219.0 L 827.0 217.0 L 832.0 206.0 L 834.0 204.0 L 838.0 195.0 L 840.0 193.0 L 840.0 192.0 L 850.0 173.0 L 850.0 171.0 L 853.0 166.0 L 853.0 164.0 L 854.0 163.0 L 854.0 162.0 L 855.0 161.0 L 855.0 159.0 L 856.0 158.0 L 856.0 154.0 L 857.0 153.0 L 857.0 150.0 L 858.0 149.0 L 858.0 129.0 L 857.0 128.0 L 857.0 125.0 L 856.0 124.0 L 856.0 122.0 L 855.0 121.0 L 854.0 118.0 L 851.0 115.0 Z"/>
  <path id="wing-right-lower" class="paint-section" fill="#fff" d="M 519.0 387.0 L 516.0 390.0 L 516.0 391.0 L 514.0 394.0 L 514.0 398.0 L 513.0 399.0 L 513.0 413.0 L 512.0 414.0 L 512.0 421.0 L 511.0 422.0 L 511.0 428.0 L 510.0 429.0 L 510.0 434.0 L 509.0 435.0 L 509.0 438.0 L 508.0 439.0 L 508.0 441.0 L 507.0 442.0 L 507.0 444.0 L 506.0 445.0 L 506.0 449.0 L 505.0 450.0 L 505.0 467.0 L 506.0 468.0 L 506.0 471.0 L 507.0 472.0 L 507.0 474.0 L 508.0 475.0 L 508.0 477.0 L 510.0 480.0 L 510.0 482.0 L 512.0 485.0 L 512.0 487.0 L 513.0 488.0 L 513.0 490.0 L 514.0 491.0 L 514.0 492.0 L 515.0 493.0 L 515.0 494.0 L 516.0 495.0 L 516.0 496.0 L 517.0 497.0 L 517.0 498.0 L 520.0 503.0 L 520.0 505.0 L 521.0 506.0 L 521.0 507.0 L 522.0 508.0 L 523.0 511.0 L 525.0 513.0 L 525.0 515.0 L 526.0 516.0 L 526.0 517.0 L 527.0 518.0 L 527.0 519.0 L 528.0 520.0 L 529.0 523.0 L 531.0 525.0 L 531.0 526.0 L 532.0 527.0 L 532.0 528.0 L 533.0 529.0 L 533.0 530.0 L 534.0 531.0 L 534.0 532.0 L 535.0 533.0 L 536.0 536.0 L 538.0 538.0 L 538.0 539.0 L 539.0 540.0 L 539.0 541.0 L 540.0 542.0 L 541.0 545.0 L 543.0 547.0 L 544.0 550.0 L 546.0 552.0 L 546.0 553.0 L 547.0 554.0 L 547.0 555.0 L 548.0 556.0 L 548.0 557.0 L 549.0 558.0 L 550.0 561.0 L 552.0 563.0 L 552.0 564.0 L 553.0 565.0 L 553.0 566.0 L 555.0 568.0 L 556.0 571.0 L 560.0 576.0 L 561.0 579.0 L 563.0 581.0 L 563.0 582.0 L 565.0 584.0 L 565.0 585.0 L 567.0 587.0 L 567.0 588.0 L 569.0 590.0 L 569.0 591.0 L 572.0 594.0 L 572.0 595.0 L 576.0 599.0 L 576.0 600.0 L 582.0 606.0 L 582.0 607.0 L 593.0 618.0 L 594.0 618.0 L 601.0 625.0 L 602.0 625.0 L 604.0 627.0 L 607.0 628.0 L 609.0 630.0 L 610.0 630.0 L 611.0 631.0 L 612.0 631.0 L 613.0 632.0 L 614.0 632.0 L 619.0 635.0 L 622.0 635.0 L 623.0 636.0 L 625.0 636.0 L 626.0 637.0 L 629.0 637.0 L 630.0 638.0 L 634.0 638.0 L 635.0 639.0 L 640.0 639.0 L 641.0 640.0 L 648.0 640.0 L 649.0 639.0 L 654.0 639.0 L 655.0 638.0 L 659.0 638.0 L 660.0 637.0 L 663.0 637.0 L 664.0 636.0 L 666.0 636.0 L 667.0 635.0 L 670.0 635.0 L 671.0 634.0 L 673.0 634.0 L 674.0 633.0 L 676.0 633.0 L 677.0 632.0 L 678.0 632.0 L 679.0 631.0 L 682.0 630.0 L 684.0 628.0 L 685.0 628.0 L 686.0 627.0 L 687.0 627.0 L 688.0 626.0 L 691.0 625.0 L 693.0 623.0 L 694.0 623.0 L 696.0 621.0 L 697.0 621.0 L 699.0 619.0 L 700.0 619.0 L 703.0 616.0 L 704.0 616.0 L 709.0 611.0 L 710.0 611.0 L 716.0 605.0 L 717.0 605.0 L 722.0 600.0 L 722.0 599.0 L 723.0 598.0 L 724.0 598.0 L 728.0 594.0 L 728.0 593.0 L 735.0 586.0 L 735.0 585.0 L 740.0 580.0 L 740.0 579.0 L 748.0 570.0 L 749.0 567.0 L 752.0 564.0 L 752.0 563.0 L 754.0 561.0 L 755.0 558.0 L 757.0 556.0 L 757.0 555.0 L 761.0 550.0 L 761.0 549.0 L 762.0 548.0 L 762.0 547.0 L 763.0 546.0 L 763.0 545.0 L 764.0 544.0 L 764.0 543.0 L 765.0 542.0 L 765.0 541.0 L 766.0 540.0 L 766.0 539.0 L 767.0 538.0 L 767.0 537.0 L 770.0 532.0 L 770.0 529.0 L 773.0 524.0 L 773.0 522.0 L 774.0 521.0 L 774.0 519.0 L 776.0 516.0 L 776.0 513.0 L 777.0 512.0 L 777.0 506.0 L 778.0 505.0 L 778.0 501.0 L 779.0 500.0 L 779.0 478.0 L 778.0 477.0 L 778.0 473.0 L 777.0 472.0 L 777.0 468.0 L 776.0 467.0 L 776.0 465.0 L 775.0 464.0 L 775.0 463.0 L 774.0 462.0 L 774.0 461.0 L 773.0 460.0 L 773.0 459.0 L 772.0 458.0 L 771.0 455.0 L 769.0 453.0 L 769.0 452.0 L 768.0 451.0 L 768.0 450.0 L 766.0 448.0 L 766.0 447.0 L 751.0 432.0 L 750.0 432.0 L 747.0 429.0 L 746.0 429.0 L 743.0 426.0 L 740.0 425.0 L 738.0 423.0 L 737.0 423.0 L 736.0 422.0 L 735.0 422.0 L 734.0 421.0 L 733.0 421.0 L 732.0 420.0 L 731.0 420.0 L 730.0 419.0 L 729.0 419.0 L 728.0 418.0 L 727.0 418.0 L 726.0 417.0 L 725.0 417.0 L 724.0 416.0 L 723.0 416.0 L 722.0 415.0 L 721.0 415.0 L 716.0 412.0 L 714.0 412.0 L 713.0 411.0 L 711.0 411.0 L 706.0 408.0 L 704.0 408.0 L 703.0 407.0 L 701.0 407.0 L 700.0 406.0 L 697.0 406.0 L 696.0 405.0 L 694.0 405.0 L 693.0 404.0 L 691.0 404.0 L 690.0 403.0 L 688.0 403.0 L 687.0 402.0 L 684.0 402.0 L 683.0 401.0 L 681.0 401.0 L 680.0 400.0 L 677.0 400.0 L 676.0 399.0 L 672.0 399.0 L 671.0 398.0 L 667.0 398.0 L 666.0 397.0 L 663.0 397.0 L 662.0 396.0 L 658.0 396.0 L 657.0 395.0 L 653.0 395.0 L 652.0 394.0 L 648.0 394.0 L 647.0 393.0 L 643.0 393.0 L 642.0 392.0 L 636.0 392.0 L 635.0 391.0 L 626.0 391.0 L 625.0 390.0 L 620.0 390.0 L 619.0 389.0 L 613.0 389.0 L 612.0 388.0 L 602.0 388.0 L 601.0 387.0 L 591.0 387.0 L 590.0 386.0 L 579.0 386.0 L 578.0 385.0 L 526.0 385.0 L 525.0 386.0 L 521.0 386.0 L 520.0 387.0 Z"/>
  <image class="butterfly-art" href="assets/pictures/butterfly-art.png" xlink:href="assets/pictures/butterfly-art.png"
    x="0" y="0" width="1024" height="716" pointer-events="none"/>
  <circle id="leftUpperSpot" class="paint-section" cx="192" cy="161" r="22.2" fill="#fff" stroke="#bbb" stroke-width="2"/>
  <ellipse id="leftUpperOval" class="paint-section" cx="237" cy="204" rx="24" ry="36.8" fill="#fff" stroke="#bbb" stroke-width="2" transform="rotate(-171.1 237 204)"/>
  <path id="leftUpperBlob" class="paint-section" fill="#fff" stroke="#bbb" stroke-width="2" stroke-linejoin="round" d="M 311.6 280 L 305 299 L 286 303.2 L 265.8 300.2 L 263.4 280 L 266.2 260.2 L 286 255.9 L 304.2 261.8 Z"/>
  <circle id="leftUpperDot" class="paint-section" cx="369" cy="316" r="27.2" fill="#fff" stroke="#bbb" stroke-width="2"/>
  <ellipse id="leftUpperInner" class="paint-section" cx="417" cy="343" rx="15.1" ry="23.1" fill="#fff" stroke="#bbb" stroke-width="2" transform="rotate(-197.6 417 343)"/>
  <circle id="rightUpperSpot" class="paint-section" cx="787" cy="161" r="22.5" fill="#fff" stroke="#bbb" stroke-width="2"/>
  <ellipse id="rightUpperOval" class="paint-section" cx="742" cy="204" rx="24" ry="36.8" fill="#fff" stroke="#bbb" stroke-width="2" transform="rotate(-13.3 742 204)"/>
  <path id="rightUpperBlob" class="paint-section" fill="#fff" stroke="#bbb" stroke-width="2" stroke-linejoin="round" d="M 719.6 279 L 713 298 L 694 302.2 L 673.8 299.2 L 671.4 279 L 674.2 259.2 L 694 254.9 L 712.2 260.8 Z"/>
  <circle id="rightUpperDot" class="paint-section" cx="613" cy="316" r="27.2" fill="#fff" stroke="#bbb" stroke-width="2"/>
  <ellipse id="rightUpperInner" class="paint-section" cx="563" cy="343" rx="15.3" ry="23.4" fill="#fff" stroke="#bbb" stroke-width="2" transform="rotate(17.2 563 343)"/>
  <circle id="leftLowerSpot" class="paint-section" cx="400" cy="457" r="27.2" fill="#fff" stroke="#bbb" stroke-width="2"/>
  <ellipse id="leftLowerOval" class="paint-section" cx="243" cy="485" rx="12.5" ry="19.2" fill="#fff" stroke="#bbb" stroke-width="2" transform="rotate(134.3 243 485)"/>
  <path id="leftLowerBlob" class="paint-section" fill="#fff" stroke="#bbb" stroke-width="2" stroke-linejoin="round" d="M 353.6 508 L 347 527 L 328 531.2 L 307.8 528.2 L 305.4 508 L 308.2 488.2 L 328 483.9 L 346.2 489.8 Z"/>
  <circle id="leftLowerMid" class="paint-section" cx="334" cy="596" r="15" fill="#fff" stroke="#bbb" stroke-width="2"/>
  <circle id="rightLowerSpot" class="paint-section" cx="579" cy="458" r="27.2" fill="#fff" stroke="#bbb" stroke-width="2"/>
  <ellipse id="rightLowerOval" class="paint-section" cx="738" cy="486" rx="11.9" ry="18.2" fill="#fff" stroke="#bbb" stroke-width="2" transform="rotate(50.2 738 486)"/>
  <path id="rightLowerBlob" class="paint-section" fill="#fff" stroke="#bbb" stroke-width="2" stroke-linejoin="round" d="M 677.6 509 L 671 528 L 652 532.2 L 631.8 529.2 L 629.4 509 L 632.2 489.2 L 652 484.9 L 670.2 490.8 Z"/>
  <circle id="rightLowerMid" class="paint-section" cx="638" cy="597" r="13.6" fill="#fff" stroke="#bbb" stroke-width="2"/>
</svg>
