<svg xmlns="http://www.w3.org/2000/svg" xmlns:xlink="http://www.w3.org/1999/xlink" viewBox="0 0 881 1024" aria-label="Christmas Tree">
  <path id="christmasTree-shape01" class="paint-section" fill="#fff" d="M 119.0 875.0 L 119.0 886.0 L 123.0 895.0 L 129.0 901.0 L 141.0 907.0 L 154.0 909.0 L 155.0 910.0 L 182.0 910.0 L 183.0 909.0 L 191.0 909.0 L 197.0 907.0 L 207.0 906.0 L 212.0 904.0 L 226.0 902.0 L 233.0 899.0 L 236.0 899.0 L 243.0 896.0 L 246.0 896.0 L 272.0 886.0 L 285.0 900.0 L 303.0 910.0 L 315.0 914.0 L 319.0 914.0 L 325.0 916.0 L 337.0 916.0 L 338.0 917.0 L 363.0 916.0 L 364.0 915.0 L 368.0 915.0 L 369.0 914.0 L 373.0 914.0 L 374.0 913.0 L 386.0 911.0 L 390.0 909.0 L 394.0 909.0 L 405.0 904.0 L 415.0 901.0 L 437.0 890.0 L 443.0 886.0 L 474.0 902.0 L 479.0 903.0 L 490.0 908.0 L 497.0 909.0 L 501.0 911.0 L 504.0 911.0 L 513.0 914.0 L 522.0 915.0 L 523.0 916.0 L 535.0 916.0 L 536.0 917.0 L 562.0 916.0 L 563.0 915.0 L 572.0 914.0 L 584.0 910.0 L 601.0 901.0 L 616.0 886.0 L 624.0 890.0 L 645.0 897.0 L 648.0 897.0 L 655.0 900.0 L 658.0 900.0 L 665.0 903.0 L 675.0 904.0 L 676.0 905.0 L 680.0 905.0 L 681.0 906.0 L 685.0 906.0 L 691.0 908.0 L 696.0 908.0 L 697.0 909.0 L 706.0 909.0 L 707.0 910.0 L 731.0 910.0 L 732.0 909.0 L 737.0 909.0 L 738.0 908.0 L 746.0 907.0 L 758.0 901.0 L 765.0 894.0 L 768.0 888.0 L 768.0 874.0 L 764.0 866.0 L 736.0 834.0 L 707.0 796.0 L 683.0 758.0 L 670.0 730.0 L 665.0 725.0 L 661.0 723.0 L 657.0 723.0 L 656.0 722.0 L 638.0 722.0 L 637.0 721.0 L 626.0 721.0 L 625.0 722.0 L 622.0 722.0 L 616.0 718.0 L 603.0 716.0 L 594.0 713.0 L 585.0 714.0 L 581.0 716.0 L 570.0 727.0 L 567.0 728.0 L 562.0 732.0 L 560.0 732.0 L 553.0 736.0 L 550.0 736.0 L 545.0 738.0 L 540.0 738.0 L 539.0 739.0 L 533.0 739.0 L 532.0 740.0 L 510.0 739.0 L 504.0 737.0 L 503.0 738.0 L 498.0 738.0 L 491.0 734.0 L 475.0 729.0 L 449.0 715.0 L 445.0 715.0 L 444.0 714.0 L 438.0 715.0 L 423.0 723.0 L 421.0 725.0 L 419.0 725.0 L 408.0 731.0 L 405.0 731.0 L 393.0 736.0 L 381.0 738.0 L 373.0 742.0 L 367.0 740.0 L 357.0 740.0 L 356.0 739.0 L 349.0 739.0 L 348.0 738.0 L 343.0 738.0 L 342.0 737.0 L 335.0 736.0 L 319.0 728.0 L 306.0 716.0 L 297.0 713.0 L 290.0 714.0 L 285.0 716.0 L 281.0 716.0 L 272.0 719.0 L 268.0 719.0 L 267.0 720.0 L 251.0 722.0 L 248.0 724.0 L 241.0 723.0 L 240.0 722.0 L 226.0 723.0 L 222.0 725.0 L 217.0 730.0 L 212.0 740.0 L 212.0 742.0 L 210.0 744.0 L 200.0 765.0 L 189.0 781.0 L 188.0 784.0 L 185.0 787.0 L 184.0 790.0 L 176.0 800.0 L 175.0 803.0 L 171.0 807.0 L 170.0 810.0 L 162.0 819.0 L 147.0 839.0 L 122.0 868.0 Z"/>
  <path id="christmasTree-shape02" class="paint-section" fill="#fff" d="M 179.0 687.0 L 179.0 700.0 L 183.0 710.0 L 192.0 719.0 L 199.0 723.0 L 201.0 723.0 L 208.0 726.0 L 211.0 726.0 L 212.0 727.0 L 216.0 727.0 L 217.0 728.0 L 224.0 728.0 L 225.0 729.0 L 243.0 729.0 L 244.0 728.0 L 254.0 728.0 L 255.0 727.0 L 266.0 726.0 L 267.0 725.0 L 271.0 725.0 L 272.0 724.0 L 277.0 724.0 L 278.0 723.0 L 282.0 723.0 L 286.0 721.0 L 293.0 720.0 L 297.0 718.0 L 300.0 718.0 L 301.0 720.0 L 311.0 730.0 L 312.0 730.0 L 318.0 735.0 L 330.0 741.0 L 332.0 741.0 L 336.0 743.0 L 340.0 743.0 L 341.0 744.0 L 350.0 745.0 L 351.0 746.0 L 373.0 746.0 L 374.0 745.0 L 379.0 745.0 L 380.0 744.0 L 384.0 744.0 L 385.0 743.0 L 394.0 742.0 L 395.0 741.0 L 406.0 738.0 L 414.0 734.0 L 416.0 734.0 L 422.0 730.0 L 437.0 723.0 L 443.0 719.0 L 445.0 719.0 L 457.0 727.0 L 467.0 732.0 L 469.0 732.0 L 476.0 736.0 L 478.0 736.0 L 481.0 738.0 L 483.0 738.0 L 493.0 742.0 L 497.0 742.0 L 498.0 743.0 L 502.0 743.0 L 503.0 744.0 L 507.0 744.0 L 508.0 745.0 L 513.0 745.0 L 514.0 746.0 L 536.0 746.0 L 537.0 745.0 L 541.0 745.0 L 542.0 744.0 L 546.0 744.0 L 547.0 743.0 L 554.0 742.0 L 569.0 735.0 L 575.0 731.0 L 579.0 727.0 L 580.0 727.0 L 588.0 718.0 L 595.0 719.0 L 596.0 720.0 L 602.0 721.0 L 603.0 722.0 L 606.0 722.0 L 607.0 723.0 L 611.0 723.0 L 612.0 724.0 L 616.0 724.0 L 617.0 725.0 L 622.0 725.0 L 623.0 726.0 L 627.0 726.0 L 628.0 727.0 L 634.0 727.0 L 635.0 728.0 L 645.0 728.0 L 646.0 729.0 L 659.0 729.0 L 660.0 728.0 L 669.0 728.0 L 670.0 727.0 L 674.0 727.0 L 675.0 726.0 L 679.0 726.0 L 683.0 724.0 L 686.0 724.0 L 692.0 721.0 L 704.0 710.0 L 707.0 704.0 L 707.0 684.0 L 704.0 677.0 L 693.0 665.0 L 692.0 665.0 L 680.0 653.0 L 679.0 653.0 L 667.0 641.0 L 665.0 640.0 L 665.0 639.0 L 648.0 622.0 L 648.0 621.0 L 631.0 602.0 L 631.0 601.0 L 613.0 578.0 L 610.0 572.0 L 607.0 569.0 L 604.0 562.0 L 602.0 560.0 L 594.0 544.0 L 593.0 539.0 L 591.0 536.0 L 591.0 534.0 L 589.0 530.0 L 584.0 525.0 L 578.0 522.0 L 576.0 522.0 L 575.0 521.0 L 571.0 521.0 L 570.0 520.0 L 568.0 520.0 L 567.0 521.0 L 563.0 521.0 L 559.0 523.0 L 556.0 526.0 L 554.0 526.0 L 553.0 525.0 L 551.0 526.0 L 547.0 526.0 L 529.0 538.0 L 523.0 539.0 L 519.0 541.0 L 511.0 541.0 L 510.0 542.0 L 508.0 541.0 L 507.0 542.0 L 505.0 541.0 L 497.0 541.0 L 496.0 540.0 L 493.0 540.0 L 492.0 539.0 L 486.0 538.0 L 483.0 536.0 L 476.0 534.0 L 466.0 529.0 L 461.0 525.0 L 455.0 522.0 L 451.0 522.0 L 450.0 521.0 L 449.0 522.0 L 445.0 522.0 L 442.0 524.0 L 441.0 523.0 L 437.0 523.0 L 436.0 522.0 L 435.0 523.0 L 431.0 523.0 L 412.0 534.0 L 410.0 534.0 L 407.0 536.0 L 405.0 536.0 L 398.0 539.0 L 395.0 539.0 L 390.0 541.0 L 385.0 541.0 L 384.0 542.0 L 383.0 541.0 L 381.0 542.0 L 376.0 542.0 L 375.0 541.0 L 369.0 541.0 L 368.0 540.0 L 362.0 539.0 L 359.0 537.0 L 357.0 537.0 L 353.0 535.0 L 346.0 529.0 L 342.0 527.0 L 338.0 527.0 L 337.0 526.0 L 335.0 527.0 L 330.0 522.0 L 326.0 520.0 L 322.0 520.0 L 320.0 519.0 L 319.0 520.0 L 315.0 520.0 L 311.0 522.0 L 308.0 522.0 L 304.0 524.0 L 298.0 530.0 L 296.0 534.0 L 295.0 539.0 L 293.0 542.0 L 293.0 544.0 L 291.0 547.0 L 291.0 549.0 L 287.0 555.0 L 285.0 560.0 L 283.0 562.0 L 281.0 567.0 L 276.0 573.0 L 275.0 576.0 L 270.0 582.0 L 268.0 586.0 L 264.0 590.0 L 264.0 591.0 L 257.0 599.0 L 254.0 604.0 L 242.0 617.0 L 242.0 618.0 L 232.0 628.0 L 232.0 629.0 L 183.0 676.0 L 180.0 682.0 L 180.0 686.0 Z"/>
  <path id="christmasTree-shape03" class="paint-section" fill="#fff" d="M 251.0 497.0 L 251.0 513.0 L 254.0 519.0 L 261.0 526.0 L 267.0 529.0 L 269.0 529.0 L 272.0 531.0 L 276.0 531.0 L 277.0 532.0 L 295.0 532.0 L 296.0 531.0 L 300.0 531.0 L 301.0 530.0 L 305.0 530.0 L 306.0 529.0 L 309.0 529.0 L 310.0 528.0 L 313.0 528.0 L 314.0 527.0 L 321.0 526.0 L 322.0 525.0 L 324.0 525.0 L 327.0 523.0 L 331.0 522.0 L 338.0 530.0 L 338.0 531.0 L 342.0 535.0 L 343.0 535.0 L 348.0 539.0 L 358.0 544.0 L 361.0 544.0 L 362.0 545.0 L 365.0 545.0 L 366.0 546.0 L 370.0 546.0 L 371.0 547.0 L 388.0 547.0 L 389.0 546.0 L 393.0 546.0 L 394.0 545.0 L 397.0 545.0 L 398.0 544.0 L 402.0 544.0 L 403.0 543.0 L 405.0 543.0 L 408.0 541.0 L 410.0 541.0 L 426.0 533.0 L 428.0 531.0 L 434.0 528.0 L 437.0 525.0 L 438.0 525.0 L 443.0 521.0 L 444.0 521.0 L 458.0 531.0 L 461.0 532.0 L 463.0 534.0 L 475.0 540.0 L 477.0 540.0 L 480.0 542.0 L 482.0 542.0 L 486.0 544.0 L 489.0 544.0 L 490.0 545.0 L 493.0 545.0 L 494.0 546.0 L 498.0 546.0 L 499.0 547.0 L 518.0 547.0 L 519.0 546.0 L 523.0 546.0 L 527.0 544.0 L 530.0 544.0 L 538.0 540.0 L 540.0 538.0 L 544.0 536.0 L 554.0 526.0 L 556.0 522.0 L 560.0 523.0 L 563.0 525.0 L 566.0 525.0 L 567.0 526.0 L 570.0 526.0 L 571.0 527.0 L 574.0 527.0 L 578.0 529.0 L 582.0 529.0 L 583.0 530.0 L 586.0 530.0 L 587.0 531.0 L 591.0 531.0 L 592.0 532.0 L 609.0 532.0 L 610.0 531.0 L 614.0 531.0 L 615.0 530.0 L 617.0 530.0 L 627.0 525.0 L 632.0 520.0 L 636.0 512.0 L 636.0 499.0 L 632.0 491.0 L 620.0 479.0 L 620.0 478.0 L 600.0 457.0 L 600.0 456.0 L 591.0 446.0 L 591.0 445.0 L 588.0 442.0 L 588.0 441.0 L 585.0 438.0 L 585.0 437.0 L 581.0 433.0 L 579.0 429.0 L 575.0 425.0 L 574.0 422.0 L 572.0 420.0 L 572.0 419.0 L 568.0 414.0 L 567.0 411.0 L 565.0 409.0 L 561.0 400.0 L 559.0 398.0 L 558.0 394.0 L 552.0 382.0 L 548.0 378.0 L 544.0 376.0 L 540.0 376.0 L 539.0 375.0 L 532.0 375.0 L 531.0 376.0 L 528.0 376.0 L 526.0 374.0 L 522.0 372.0 L 520.0 372.0 L 519.0 371.0 L 517.0 371.0 L 516.0 370.0 L 514.0 370.0 L 510.0 368.0 L 507.0 368.0 L 501.0 365.0 L 497.0 365.0 L 496.0 364.0 L 494.0 364.0 L 493.0 365.0 L 489.0 365.0 L 485.0 367.0 L 475.0 376.0 L 474.0 376.0 L 471.0 379.0 L 465.0 382.0 L 463.0 382.0 L 462.0 383.0 L 460.0 383.0 L 456.0 385.0 L 452.0 385.0 L 451.0 386.0 L 438.0 386.0 L 437.0 385.0 L 431.0 385.0 L 430.0 384.0 L 425.0 383.0 L 415.0 378.0 L 403.0 367.0 L 399.0 365.0 L 395.0 365.0 L 394.0 364.0 L 386.0 365.0 L 383.0 367.0 L 381.0 367.0 L 380.0 368.0 L 378.0 368.0 L 377.0 369.0 L 375.0 369.0 L 374.0 370.0 L 372.0 370.0 L 368.0 372.0 L 365.0 372.0 L 360.0 375.0 L 356.0 375.0 L 355.0 374.0 L 352.0 375.0 L 351.0 374.0 L 350.0 375.0 L 346.0 375.0 L 345.0 376.0 L 343.0 376.0 L 339.0 378.0 L 335.0 382.0 L 326.0 402.0 L 324.0 404.0 L 322.0 409.0 L 319.0 412.0 L 317.0 417.0 L 315.0 419.0 L 313.0 423.0 L 306.0 431.0 L 304.0 435.0 L 293.0 448.0 L 293.0 449.0 L 282.0 461.0 L 282.0 462.0 L 255.0 490.0 Z"/>
  <path id="christmasTree-shape04" class="paint-section" fill="#fff" d="M 584.0 345.0 L 580.0 338.0 L 574.0 332.0 L 573.0 332.0 L 567.0 326.0 L 566.0 326.0 L 553.0 313.0 L 552.0 313.0 L 526.0 287.0 L 522.0 285.0 L 518.0 285.0 L 517.0 284.0 L 516.0 285.0 L 512.0 285.0 L 508.0 287.0 L 504.0 291.0 L 502.0 295.0 L 504.0 297.0 L 507.0 303.0 L 507.0 313.0 L 504.0 319.0 L 499.0 324.0 L 491.0 328.0 L 483.0 328.0 L 482.0 327.0 L 480.0 327.0 L 476.0 325.0 L 470.0 320.0 L 468.0 316.0 L 468.0 314.0 L 467.0 313.0 L 467.0 302.0 L 469.0 298.0 L 474.0 292.0 L 482.0 288.0 L 485.0 288.0 L 486.0 287.0 L 488.0 287.0 L 489.0 288.0 L 493.0 284.0 L 495.0 280.0 L 491.0 278.0 L 491.0 272.0 L 493.0 271.0 L 495.0 268.0 L 495.0 251.0 L 491.0 244.0 L 488.0 241.0 L 488.0 240.0 L 483.0 234.0 L 483.0 233.0 L 481.0 231.0 L 481.0 230.0 L 479.0 228.0 L 475.0 221.0 L 470.0 215.0 L 468.0 210.0 L 462.0 202.0 L 457.0 192.0 L 453.0 188.0 L 449.0 186.0 L 445.0 186.0 L 443.0 185.0 L 442.0 186.0 L 438.0 186.0 L 434.0 188.0 L 430.0 192.0 L 429.0 195.0 L 427.0 197.0 L 426.0 200.0 L 424.0 202.0 L 423.0 205.0 L 421.0 207.0 L 420.0 210.0 L 418.0 212.0 L 415.0 218.0 L 412.0 221.0 L 408.0 228.0 L 400.0 238.0 L 399.0 241.0 L 394.0 246.0 L 392.0 250.0 L 387.0 255.0 L 387.0 256.0 L 380.0 264.0 L 380.0 265.0 L 369.0 276.0 L 369.0 277.0 L 362.0 284.0 L 362.0 285.0 L 331.0 316.0 L 330.0 316.0 L 320.0 326.0 L 319.0 326.0 L 306.0 338.0 L 302.0 346.0 L 302.0 359.0 L 303.0 360.0 L 303.0 362.0 L 305.0 366.0 L 313.0 374.0 L 323.0 379.0 L 326.0 379.0 L 327.0 380.0 L 330.0 380.0 L 331.0 381.0 L 335.0 381.0 L 336.0 382.0 L 349.0 382.0 L 350.0 381.0 L 355.0 381.0 L 356.0 380.0 L 360.0 380.0 L 361.0 379.0 L 364.0 379.0 L 365.0 378.0 L 373.0 377.0 L 374.0 376.0 L 382.0 374.0 L 385.0 372.0 L 390.0 371.0 L 396.0 368.0 L 397.0 370.0 L 407.0 380.0 L 408.0 380.0 L 410.0 382.0 L 413.0 383.0 L 415.0 385.0 L 419.0 387.0 L 421.0 387.0 L 422.0 388.0 L 424.0 388.0 L 428.0 390.0 L 431.0 390.0 L 432.0 391.0 L 436.0 391.0 L 437.0 392.0 L 451.0 392.0 L 452.0 391.0 L 456.0 391.0 L 457.0 390.0 L 463.0 389.0 L 466.0 387.0 L 468.0 387.0 L 476.0 383.0 L 478.0 381.0 L 479.0 381.0 L 492.0 368.0 L 497.0 371.0 L 499.0 371.0 L 500.0 372.0 L 502.0 372.0 L 503.0 373.0 L 505.0 373.0 L 506.0 374.0 L 508.0 374.0 L 509.0 375.0 L 511.0 375.0 L 515.0 377.0 L 518.0 377.0 L 519.0 378.0 L 522.0 378.0 L 523.0 379.0 L 527.0 379.0 L 528.0 380.0 L 532.0 380.0 L 533.0 381.0 L 539.0 381.0 L 540.0 382.0 L 549.0 382.0 L 550.0 381.0 L 554.0 381.0 L 555.0 380.0 L 559.0 380.0 L 560.0 379.0 L 566.0 378.0 L 573.0 374.0 L 581.0 366.0 L 584.0 360.0 Z"/>
  <path id="christmasTree-shape05" class="paint-section" fill="#fff" d="M 388.0 907.0 L 386.0 911.0 L 386.0 979.0 L 388.0 983.0 L 392.0 987.0 L 396.0 989.0 L 400.0 989.0 L 401.0 990.0 L 420.0 990.0 L 421.0 991.0 L 480.0 991.0 L 481.0 990.0 L 483.0 991.0 L 484.0 990.0 L 488.0 990.0 L 489.0 989.0 L 491.0 989.0 L 495.0 987.0 L 499.0 983.0 L 501.0 979.0 L 501.0 962.0 L 502.0 961.0 L 502.0 922.0 L 501.0 921.0 L 501.0 911.0 L 499.0 907.0 L 495.0 903.0 L 489.0 900.0 L 487.0 900.0 L 484.0 898.0 L 479.0 897.0 L 474.0 894.0 L 472.0 894.0 L 450.0 882.0 L 446.0 882.0 L 445.0 881.0 L 443.0 881.0 L 442.0 882.0 L 438.0 882.0 L 409.0 897.0 L 406.0 897.0 L 403.0 899.0 L 401.0 899.0 L 398.0 901.0 L 396.0 901.0 L 392.0 903.0 Z"/>
  <path id="christmasTree-shape06" class="paint-section" fill="#fff" d="M 438.0 53.0 L 434.0 55.0 L 430.0 59.0 L 428.0 63.0 L 427.0 68.0 L 422.0 77.0 L 421.0 82.0 L 419.0 84.0 L 413.0 84.0 L 412.0 85.0 L 404.0 85.0 L 403.0 86.0 L 393.0 87.0 L 389.0 89.0 L 385.0 93.0 L 383.0 97.0 L 383.0 105.0 L 385.0 109.0 L 394.0 118.0 L 395.0 118.0 L 406.0 128.0 L 405.0 129.0 L 404.0 138.0 L 403.0 139.0 L 402.0 147.0 L 401.0 148.0 L 401.0 159.0 L 403.0 163.0 L 407.0 167.0 L 411.0 169.0 L 415.0 169.0 L 416.0 170.0 L 417.0 169.0 L 421.0 169.0 L 431.0 164.0 L 433.0 162.0 L 440.0 159.0 L 444.0 156.0 L 448.0 159.0 L 451.0 160.0 L 453.0 162.0 L 456.0 163.0 L 458.0 165.0 L 466.0 169.0 L 470.0 169.0 L 471.0 170.0 L 473.0 169.0 L 477.0 169.0 L 481.0 167.0 L 485.0 163.0 L 487.0 159.0 L 487.0 148.0 L 486.0 147.0 L 485.0 139.0 L 484.0 138.0 L 484.0 135.0 L 483.0 134.0 L 483.0 130.0 L 482.0 128.0 L 500.0 112.0 L 504.0 105.0 L 504.0 97.0 L 502.0 93.0 L 498.0 89.0 L 494.0 87.0 L 490.0 87.0 L 489.0 86.0 L 485.0 86.0 L 484.0 85.0 L 468.0 84.0 L 467.0 83.0 L 467.0 81.0 L 465.0 78.0 L 465.0 76.0 L 461.0 69.0 L 461.0 67.0 L 457.0 59.0 L 453.0 55.0 L 449.0 53.0 L 445.0 53.0 L 444.0 52.0 L 442.0 53.0 Z"/>
  <path id="christmasTree-shape07" class="paint-section" fill="#fff" d="M 371.0 801.0 L 371.0 802.0 L 368.0 805.0 L 362.0 807.0 L 351.0 817.0 L 348.0 823.0 L 347.0 828.0 L 346.0 829.0 L 346.0 838.0 L 347.0 839.0 L 347.0 841.0 L 348.0 842.0 L 348.0 844.0 L 350.0 848.0 L 358.0 857.0 L 364.0 860.0 L 370.0 861.0 L 371.0 862.0 L 379.0 862.0 L 380.0 861.0 L 383.0 861.0 L 386.0 859.0 L 388.0 859.0 L 390.0 858.0 L 394.0 854.0 L 395.0 854.0 L 395.0 853.0 L 399.0 849.0 L 402.0 843.0 L 402.0 841.0 L 404.0 837.0 L 404.0 831.0 L 403.0 830.0 L 403.0 827.0 L 402.0 826.0 L 402.0 824.0 L 401.0 823.0 L 400.0 819.0 L 398.0 817.0 L 398.0 816.0 L 391.0 809.0 L 390.0 809.0 L 386.0 806.0 L 384.0 806.0 L 380.0 804.0 L 378.0 801.0 Z"/>
  <path id="christmasTree-shape08" class="paint-section" fill="#fff" d="M 520.0 434.0 L 520.0 436.0 L 518.0 438.0 L 510.0 441.0 L 502.0 448.0 L 497.0 457.0 L 497.0 460.0 L 496.0 461.0 L 496.0 470.0 L 497.0 471.0 L 498.0 477.0 L 500.0 479.0 L 501.0 482.0 L 509.0 490.0 L 515.0 493.0 L 518.0 493.0 L 519.0 494.0 L 530.0 494.0 L 531.0 493.0 L 534.0 493.0 L 542.0 489.0 L 547.0 484.0 L 551.0 477.0 L 554.0 465.0 L 553.0 464.0 L 553.0 460.0 L 552.0 459.0 L 552.0 457.0 L 550.0 454.0 L 549.0 450.0 L 540.0 441.0 L 534.0 438.0 L 530.0 437.0 L 529.0 436.0 L 529.0 434.0 Z"/>
  <path id="christmasTree-shape09" class="paint-section" fill="#fff" d="M 243.0 764.0 L 243.0 766.0 L 238.0 769.0 L 236.0 769.0 L 232.0 772.0 L 231.0 772.0 L 223.0 781.0 L 220.0 787.0 L 220.0 790.0 L 219.0 791.0 L 219.0 801.0 L 220.0 802.0 L 220.0 805.0 L 222.0 809.0 L 224.0 811.0 L 225.0 814.0 L 232.0 820.0 L 233.0 820.0 L 235.0 822.0 L 241.0 823.0 L 242.0 824.0 L 252.0 824.0 L 253.0 823.0 L 256.0 823.0 L 257.0 822.0 L 259.0 822.0 L 263.0 820.0 L 272.0 811.0 L 272.0 809.0 L 274.0 806.0 L 274.0 804.0 L 276.0 800.0 L 276.0 792.0 L 275.0 791.0 L 275.0 788.0 L 274.0 787.0 L 274.0 785.0 L 272.0 781.0 L 264.0 772.0 L 263.0 772.0 L 259.0 769.0 L 257.0 769.0 L 252.0 766.0 L 252.0 764.0 Z"/>
  <path id="christmasTree-shape10" class="paint-section" fill="#fff" d="M 486.0 275.0 L 485.0 276.0 L 483.0 276.0 L 483.0 277.0 L 480.0 280.0 L 476.0 281.0 L 472.0 284.0 L 471.0 284.0 L 464.0 291.0 L 460.0 298.0 L 460.0 301.0 L 459.0 302.0 L 459.0 315.0 L 460.0 316.0 L 460.0 318.0 L 463.0 324.0 L 466.0 327.0 L 466.0 328.0 L 472.0 333.0 L 476.0 334.0 L 477.0 335.0 L 480.0 335.0 L 481.0 336.0 L 494.0 336.0 L 495.0 335.0 L 497.0 335.0 L 503.0 332.0 L 511.0 323.0 L 514.0 317.0 L 514.0 311.0 L 515.0 310.0 L 515.0 306.0 L 514.0 305.0 L 514.0 298.0 L 517.0 296.0 L 514.0 290.0 L 505.0 281.0 L 502.0 280.0 L 499.0 282.0 L 498.0 281.0 L 496.0 281.0 L 491.0 278.0 L 491.0 276.0 Z"/>
  <path id="christmasTree-shape11" class="paint-section" fill="#fff" d="M 616.0 773.0 L 614.0 774.0 L 614.0 775.0 L 612.0 777.0 L 603.0 781.0 L 596.0 788.0 L 591.0 799.0 L 591.0 811.0 L 594.0 817.0 L 594.0 819.0 L 596.0 821.0 L 596.0 822.0 L 603.0 829.0 L 607.0 831.0 L 609.0 831.0 L 612.0 833.0 L 627.0 833.0 L 628.0 832.0 L 630.0 832.0 L 634.0 830.0 L 642.0 823.0 L 646.0 816.0 L 646.0 814.0 L 648.0 810.0 L 648.0 802.0 L 647.0 801.0 L 647.0 797.0 L 643.0 789.0 L 634.0 780.0 L 626.0 777.0 L 623.0 774.0 L 623.0 773.0 Z"/>
  <path id="christmasTree-shape12" class="paint-section" fill="#fff" d="M 359.0 410.0 L 359.0 411.0 L 356.0 414.0 L 352.0 415.0 L 348.0 417.0 L 345.0 420.0 L 344.0 420.0 L 338.0 427.0 L 337.0 431.0 L 336.0 432.0 L 336.0 434.0 L 335.0 435.0 L 335.0 437.0 L 334.0 438.0 L 334.0 445.0 L 335.0 446.0 L 336.0 452.0 L 339.0 458.0 L 344.0 464.0 L 345.0 464.0 L 348.0 467.0 L 352.0 469.0 L 354.0 469.0 L 355.0 470.0 L 358.0 470.0 L 359.0 471.0 L 366.0 471.0 L 367.0 470.0 L 370.0 470.0 L 371.0 469.0 L 373.0 469.0 L 377.0 467.0 L 385.0 460.0 L 390.0 451.0 L 390.0 448.0 L 391.0 447.0 L 391.0 436.0 L 390.0 435.0 L 390.0 433.0 L 387.0 427.0 L 385.0 425.0 L 385.0 424.0 L 380.0 420.0 L 380.0 419.0 L 373.0 415.0 L 369.0 414.0 L 366.0 411.0 L 366.0 410.0 Z"/>
  <path id="christmasTree-shape13" class="paint-section" fill="#fff" d="M 442.0 618.0 L 441.0 619.0 L 439.0 619.0 L 439.0 620.0 L 437.0 622.0 L 433.0 624.0 L 431.0 624.0 L 429.0 626.0 L 428.0 626.0 L 420.0 634.0 L 417.0 640.0 L 416.0 645.0 L 415.0 646.0 L 415.0 655.0 L 416.0 656.0 L 416.0 659.0 L 419.0 665.0 L 427.0 674.0 L 428.0 674.0 L 430.0 676.0 L 432.0 676.0 L 436.0 678.0 L 439.0 678.0 L 440.0 679.0 L 447.0 679.0 L 448.0 678.0 L 451.0 678.0 L 452.0 677.0 L 457.0 676.0 L 459.0 674.0 L 460.0 674.0 L 467.0 667.0 L 471.0 659.0 L 471.0 656.0 L 472.0 655.0 L 472.0 646.0 L 471.0 645.0 L 471.0 642.0 L 467.0 634.0 L 459.0 626.0 L 458.0 626.0 L 456.0 624.0 L 454.0 624.0 L 448.0 621.0 L 447.0 619.0 Z"/>
  <path id="christmasTree-shape14" class="paint-section" fill="#fff" d="M 555.0 593.0 L 553.0 594.0 L 553.0 595.0 L 551.0 597.0 L 551.0 599.0 L 547.0 607.0 L 545.0 609.0 L 541.0 611.0 L 534.0 611.0 L 533.0 612.0 L 528.0 612.0 L 525.0 615.0 L 523.0 619.0 L 523.0 626.0 L 524.0 626.0 L 535.0 637.0 L 536.0 639.0 L 536.0 643.0 L 535.0 644.0 L 534.0 652.0 L 533.0 653.0 L 533.0 658.0 L 537.0 662.0 L 541.0 664.0 L 546.0 664.0 L 554.0 660.0 L 556.0 658.0 L 561.0 656.0 L 575.0 664.0 L 580.0 664.0 L 584.0 662.0 L 588.0 658.0 L 588.0 653.0 L 587.0 652.0 L 587.0 649.0 L 586.0 648.0 L 586.0 642.0 L 585.0 641.0 L 585.0 638.0 L 599.0 624.0 L 599.0 619.0 L 597.0 615.0 L 594.0 612.0 L 589.0 612.0 L 588.0 611.0 L 580.0 611.0 L 576.0 609.0 L 574.0 607.0 L 568.0 594.0 L 566.0 593.0 L 562.0 593.0 L 561.0 592.0 L 559.0 593.0 Z"/>
  <path id="christmasTree-shape15" class="paint-section" fill="#fff" d="M 323.0 592.0 L 321.0 593.0 L 318.0 601.0 L 314.0 605.0 L 312.0 606.0 L 306.0 606.0 L 305.0 607.0 L 302.0 607.0 L 300.0 609.0 L 298.0 613.0 L 298.0 620.0 L 307.0 629.0 L 307.0 637.0 L 306.0 638.0 L 306.0 644.0 L 310.0 648.0 L 314.0 650.0 L 319.0 650.0 L 327.0 645.0 L 330.0 645.0 L 338.0 650.0 L 344.0 650.0 L 348.0 648.0 L 352.0 644.0 L 352.0 641.0 L 351.0 640.0 L 351.0 637.0 L 350.0 636.0 L 350.0 629.0 L 352.0 628.0 L 352.0 627.0 L 360.0 620.0 L 360.0 613.0 L 358.0 609.0 L 356.0 607.0 L 350.0 607.0 L 349.0 606.0 L 344.0 606.0 L 342.0 605.0 L 336.0 593.0 L 334.0 592.0 L 330.0 592.0 L 329.0 591.0 L 327.0 592.0 Z"/>
  <path id="christmasTree-shape16" class="paint-section" fill="#fff" d="M 176.0 727.0 L 173.0 731.0 L 166.0 734.0 L 160.0 740.0 L 157.0 746.0 L 157.0 748.0 L 156.0 749.0 L 156.0 758.0 L 159.0 764.0 L 159.0 766.0 L 165.0 773.0 L 172.0 777.0 L 179.0 777.0 L 183.0 780.0 L 187.0 780.0 L 188.0 779.0 L 190.0 779.0 L 194.0 777.0 L 203.0 768.0 L 205.0 764.0 L 205.0 762.0 L 206.0 761.0 L 206.0 747.0 L 205.0 746.0 L 205.0 744.0 L 203.0 745.0 L 200.0 744.0 L 198.0 740.0 L 192.0 734.0 L 185.0 731.0 L 183.0 727.0 Z"/>
  <path id="christmasTree-shape17" class="paint-section" fill="#fff" d="M 501.0 766.0 L 497.0 766.0 L 496.0 765.0 L 495.0 766.0 L 491.0 766.0 L 489.0 767.0 L 485.0 776.0 L 482.0 779.0 L 480.0 780.0 L 476.0 780.0 L 475.0 781.0 L 470.0 781.0 L 467.0 784.0 L 465.0 788.0 L 465.0 794.0 L 474.0 803.0 L 475.0 805.0 L 475.0 809.0 L 474.0 810.0 L 474.0 813.0 L 473.0 814.0 L 473.0 819.0 L 477.0 823.0 L 481.0 825.0 L 485.0 825.0 L 494.0 820.0 L 497.0 820.0 L 506.0 825.0 L 511.0 825.0 L 515.0 823.0 L 519.0 819.0 L 519.0 815.0 L 518.0 814.0 L 518.0 810.0 L 517.0 809.0 L 517.0 804.0 L 527.0 794.0 L 527.0 788.0 L 525.0 784.0 L 522.0 781.0 L 515.0 781.0 L 514.0 780.0 L 511.0 780.0 L 509.0 779.0 L 507.0 777.0 L 507.0 775.0 L 504.0 770.0 L 504.0 768.0 Z"/>
  <path id="christmasTree-shape18" class="paint-section" fill="#fff" d="M 709.0 727.0 L 703.0 727.0 L 701.0 728.0 L 701.0 730.0 L 692.0 735.0 L 688.0 739.0 L 686.0 743.0 L 684.0 744.0 L 683.0 743.0 L 681.0 743.0 L 679.0 747.0 L 679.0 759.0 L 680.0 760.0 L 680.0 763.0 L 683.0 769.0 L 690.0 776.0 L 698.0 780.0 L 702.0 780.0 L 703.0 781.0 L 705.0 781.0 L 705.0 780.0 L 708.0 778.0 L 716.0 776.0 L 718.0 774.0 L 722.0 772.0 L 726.0 767.0 L 728.0 763.0 L 728.0 761.0 L 729.0 760.0 L 729.0 756.0 L 730.0 755.0 L 730.0 753.0 L 729.0 752.0 L 729.0 748.0 L 728.0 747.0 L 728.0 745.0 L 725.0 739.0 L 718.0 733.0 L 712.0 731.0 Z"/>
  <path id="christmasTree-shape19" class="paint-section" fill="#fff" d="M 248.0 540.0 L 245.0 544.0 L 240.0 546.0 L 233.0 552.0 L 228.0 562.0 L 228.0 570.0 L 229.0 571.0 L 229.0 574.0 L 231.0 578.0 L 237.0 585.0 L 245.0 589.0 L 253.0 589.0 L 256.0 591.0 L 256.0 593.0 L 259.0 593.0 L 267.0 589.0 L 275.0 581.0 L 278.0 575.0 L 278.0 572.0 L 279.0 571.0 L 279.0 563.0 L 278.0 562.0 L 278.0 560.0 L 276.0 561.0 L 273.0 559.0 L 273.0 557.0 L 271.0 553.0 L 265.0 547.0 L 258.0 544.0 L 255.0 540.0 Z"/>
  <path id="christmasTree-shape20" class="paint-section" fill="#fff" d="M 639.0 540.0 L 632.0 540.0 L 629.0 544.0 L 622.0 547.0 L 617.0 552.0 L 613.0 560.0 L 611.0 561.0 L 609.0 560.0 L 609.0 574.0 L 613.0 582.0 L 619.0 588.0 L 629.0 593.0 L 632.0 593.0 L 632.0 591.0 L 635.0 589.0 L 643.0 589.0 L 649.0 586.0 L 656.0 578.0 L 658.0 574.0 L 658.0 571.0 L 659.0 570.0 L 659.0 564.0 L 658.0 563.0 L 658.0 560.0 L 654.0 552.0 L 650.0 548.0 L 642.0 544.0 Z"/>
  <path id="christmasTree-shape21" class="paint-section" fill="#fff" d="M 589.0 380.0 L 582.0 380.0 L 581.0 381.0 L 577.0 381.0 L 571.0 384.0 L 572.0 385.0 L 572.0 387.0 L 568.0 391.0 L 566.0 392.0 L 564.0 392.0 L 563.0 391.0 L 559.0 398.0 L 559.0 413.0 L 563.0 421.0 L 572.0 430.0 L 578.0 433.0 L 582.0 433.0 L 583.0 434.0 L 584.0 433.0 L 589.0 433.0 L 589.0 431.0 L 590.0 430.0 L 598.0 427.0 L 604.0 421.0 L 608.0 413.0 L 608.0 401.0 L 607.0 400.0 L 607.0 398.0 L 604.0 392.0 L 599.0 387.0 L 592.0 384.0 Z"/>
  <path id="christmasTree-shape22" class="paint-section" fill="#fff" d="M 303.0 379.0 L 302.0 380.0 L 297.0 380.0 L 294.0 384.0 L 288.0 387.0 L 282.0 393.0 L 279.0 399.0 L 279.0 403.0 L 278.0 404.0 L 278.0 410.0 L 279.0 411.0 L 281.0 419.0 L 284.0 422.0 L 284.0 423.0 L 286.0 424.0 L 287.0 426.0 L 297.0 430.0 L 298.0 431.0 L 298.0 433.0 L 305.0 433.0 L 306.0 432.0 L 310.0 432.0 L 314.0 430.0 L 323.0 421.0 L 327.0 413.0 L 327.0 398.0 L 324.0 392.0 L 322.0 393.0 L 320.0 392.0 L 316.0 388.0 L 308.0 384.0 L 306.0 382.0 L 306.0 380.0 L 304.0 380.0 Z"/>
  <path id="christmasTree-shape23" class="paint-section" fill="#fff" d="M 637.0 523.0 L 633.0 521.0 L 629.0 521.0 L 628.0 520.0 L 626.0 520.0 L 625.0 521.0 L 621.0 521.0 L 618.0 523.0 L 616.0 523.0 L 612.0 525.0 L 606.0 525.0 L 605.0 526.0 L 597.0 527.0 L 593.0 529.0 L 589.0 533.0 L 587.0 537.0 L 587.0 545.0 L 588.0 546.0 L 588.0 548.0 L 591.0 553.0 L 591.0 555.0 L 593.0 559.0 L 595.0 561.0 L 597.0 566.0 L 601.0 570.0 L 605.0 572.0 L 609.0 572.0 L 610.0 573.0 L 612.0 572.0 L 616.0 572.0 L 621.0 569.0 L 621.0 562.0 L 624.0 558.0 L 624.0 557.0 L 632.0 552.0 L 638.0 552.0 L 641.0 549.0 L 643.0 544.0 L 642.0 544.0 L 640.0 542.0 L 640.0 526.0 Z"/>
  <path id="christmasTree-shape24" class="paint-section" fill="#fff" d="M 250.0 522.0 L 247.0 525.0 L 247.0 542.0 L 245.0 544.0 L 244.0 544.0 L 246.0 549.0 L 249.0 552.0 L 255.0 552.0 L 261.0 555.0 L 266.0 561.0 L 266.0 565.0 L 267.0 566.0 L 267.0 568.0 L 266.0 569.0 L 271.0 572.0 L 275.0 572.0 L 276.0 573.0 L 278.0 572.0 L 282.0 572.0 L 286.0 570.0 L 290.0 566.0 L 292.0 561.0 L 294.0 559.0 L 298.0 551.0 L 298.0 549.0 L 300.0 545.0 L 300.0 537.0 L 298.0 533.0 L 294.0 529.0 L 290.0 527.0 L 286.0 527.0 L 285.0 526.0 L 280.0 526.0 L 279.0 525.0 L 271.0 524.0 L 264.0 520.0 L 260.0 520.0 L 259.0 519.0 L 258.0 520.0 L 254.0 520.0 Z"/>
  <image class="christmasTree-art" href="christmasTree-art.png" xlink:href="christmasTree-art.png"
    x="0" y="0" width="881" height="1024" pointer-events="none"/>
</svg>
