<svg xmlns="http://www.w3.org/2000/svg" xmlns:xlink="http://www.w3.org/1999/xlink" viewBox="0 0 771 1024" aria-label="Giraffe">
  <path id="giraffe-shape01" class="paint-section" fill="#fff" d="M 460.0 37.0 L 449.0 37.0 L 439.0 46.0 L 439.0 75.0 L 428.0 93.0 L 420.0 93.0 L 410.0 85.0 L 411.0 94.0 L 396.0 98.0 L 393.0 89.0 L 388.0 99.0 L 379.0 97.0 L 383.0 105.0 L 377.0 111.0 L 367.0 107.0 L 371.0 116.0 L 364.0 127.0 L 360.0 129.0 L 354.0 125.0 L 354.0 129.0 L 362.0 134.0 L 360.0 144.0 L 363.0 151.0 L 327.0 182.0 L 322.0 193.0 L 320.0 222.0 L 325.0 229.0 L 344.0 239.0 L 361.0 239.0 L 383.0 219.0 L 410.0 211.0 L 413.0 213.0 L 412.0 239.0 L 414.0 240.0 L 414.0 231.0 L 418.0 229.0 L 428.0 237.0 L 431.0 245.0 L 431.0 260.0 L 422.0 275.0 L 414.0 277.0 L 413.0 267.0 L 411.0 268.0 L 406.0 317.0 L 408.0 323.0 L 409.0 315.0 L 416.0 313.0 L 428.0 322.0 L 433.0 340.0 L 431.0 357.0 L 425.0 371.0 L 415.0 378.0 L 402.0 373.0 L 402.0 363.0 L 399.0 364.0 L 389.0 405.0 L 370.0 442.0 L 372.0 444.0 L 381.0 436.0 L 392.0 448.0 L 390.0 468.0 L 381.0 481.0 L 369.0 489.0 L 355.0 481.0 L 358.0 466.0 L 355.0 464.0 L 317.0 502.0 L 315.0 509.0 L 325.0 500.0 L 329.0 502.0 L 329.0 507.0 L 322.0 521.0 L 310.0 530.0 L 299.0 525.0 L 306.0 516.0 L 302.0 515.0 L 262.0 537.0 L 255.0 531.0 L 253.0 533.0 L 257.0 538.0 L 250.0 545.0 L 261.0 542.0 L 263.0 554.0 L 247.0 581.0 L 238.0 583.0 L 217.0 574.0 L 215.0 560.0 L 223.0 555.0 L 221.0 553.0 L 209.0 559.0 L 185.0 583.0 L 186.0 587.0 L 191.0 581.0 L 196.0 581.0 L 201.0 592.0 L 195.0 616.0 L 186.0 631.0 L 178.0 632.0 L 172.0 627.0 L 171.0 615.0 L 161.0 619.0 L 164.0 623.0 L 155.0 657.0 L 160.0 648.0 L 165.0 649.0 L 166.0 661.0 L 160.0 690.0 L 163.0 680.0 L 168.0 679.0 L 174.0 705.0 L 175.0 736.0 L 170.0 760.0 L 154.0 794.0 L 155.0 812.0 L 146.0 815.0 L 157.0 819.0 L 158.0 830.0 L 157.0 878.0 L 146.0 946.0 L 152.0 969.0 L 148.0 993.0 L 150.0 997.0 L 162.0 997.0 L 191.0 988.0 L 180.0 963.0 L 180.0 896.0 L 183.0 865.0 L 194.0 816.0 L 207.0 811.0 L 198.0 809.0 L 205.0 790.0 L 203.0 788.0 L 197.0 797.0 L 183.0 790.0 L 182.0 779.0 L 190.0 766.0 L 199.0 763.0 L 211.0 771.0 L 207.0 780.0 L 210.0 780.0 L 233.0 742.0 L 237.0 739.0 L 240.0 748.0 L 242.0 745.0 L 242.0 725.0 L 247.0 714.0 L 244.0 712.0 L 239.0 720.0 L 230.0 718.0 L 218.0 698.0 L 222.0 685.0 L 234.0 674.0 L 249.0 680.0 L 253.0 684.0 L 253.0 693.0 L 259.0 686.0 L 282.0 696.0 L 305.0 701.0 L 309.0 711.0 L 314.0 702.0 L 347.0 702.0 L 353.0 706.0 L 356.0 755.0 L 353.0 792.0 L 349.0 802.0 L 340.0 803.0 L 349.0 807.0 L 355.0 847.0 L 353.0 902.0 L 343.0 953.0 L 347.0 974.0 L 343.0 1005.0 L 356.0 1007.0 L 386.0 996.0 L 377.0 973.0 L 378.0 902.0 L 385.0 841.0 L 397.0 806.0 L 415.0 807.0 L 423.0 833.0 L 428.0 887.0 L 428.0 948.0 L 439.0 971.0 L 440.0 1000.0 L 475.0 993.0 L 482.0 988.0 L 465.0 960.0 L 454.0 902.0 L 453.0 831.0 L 458.0 805.0 L 468.0 802.0 L 458.0 799.0 L 456.0 787.0 L 460.0 729.0 L 457.0 727.0 L 455.0 737.0 L 448.0 736.0 L 439.0 724.0 L 438.0 712.0 L 441.0 701.0 L 451.0 689.0 L 460.0 691.0 L 460.0 702.0 L 464.0 701.0 L 472.0 660.0 L 476.0 656.0 L 482.0 656.0 L 476.0 648.0 L 469.0 656.0 L 461.0 653.0 L 451.0 634.0 L 456.0 614.0 L 464.0 603.0 L 479.0 596.0 L 483.0 599.0 L 483.0 607.0 L 487.0 605.0 L 475.0 559.0 L 471.0 559.0 L 473.0 569.0 L 460.0 582.0 L 453.0 583.0 L 441.0 573.0 L 440.0 556.0 L 456.0 535.0 L 463.0 534.0 L 466.0 543.0 L 468.0 542.0 L 467.0 525.0 L 477.0 519.0 L 468.0 519.0 L 471.0 494.0 L 468.0 491.0 L 467.0 501.0 L 462.0 502.0 L 451.0 488.0 L 450.0 480.0 L 463.0 447.0 L 470.0 441.0 L 473.0 443.0 L 472.0 455.0 L 475.0 452.0 L 479.0 406.0 L 485.0 395.0 L 476.0 389.0 L 476.0 397.0 L 469.0 399.0 L 454.0 389.0 L 447.0 380.0 L 448.0 359.0 L 452.0 345.0 L 458.0 341.0 L 471.0 340.0 L 476.0 343.0 L 478.0 351.0 L 479.0 336.0 L 484.0 335.0 L 487.0 343.0 L 488.0 328.0 L 484.0 331.0 L 479.0 325.0 L 478.0 306.0 L 476.0 313.0 L 465.0 320.0 L 453.0 316.0 L 441.0 304.0 L 438.0 289.0 L 441.0 278.0 L 453.0 265.0 L 469.0 270.0 L 476.0 277.0 L 476.0 282.0 L 479.0 281.0 L 480.0 261.0 L 485.0 262.0 L 488.0 272.0 L 488.0 260.0 L 484.0 260.0 L 478.0 250.0 L 478.0 234.0 L 474.0 233.0 L 474.0 240.0 L 469.0 245.0 L 457.0 247.0 L 454.0 244.0 L 452.0 220.0 L 466.0 202.0 L 473.0 202.0 L 473.0 212.0 L 478.0 204.0 L 482.0 204.0 L 476.0 196.0 L 476.0 183.0 L 481.0 182.0 L 484.0 189.0 L 484.0 173.0 L 478.0 175.0 L 475.0 167.0 L 476.0 155.0 L 481.0 156.0 L 483.0 163.0 L 480.0 144.0 L 503.0 138.0 L 516.0 130.0 L 530.0 114.0 L 540.0 84.0 L 538.0 81.0 L 497.0 82.0 L 481.0 90.0 L 465.0 108.0 L 461.0 108.0 L 457.0 102.0 L 458.0 74.0 L 469.0 62.0 L 471.0 50.0 L 468.0 43.0 Z"/>
  <path id="giraffe-shape02" class="paint-section" fill="#fff" d="M 193.0 75.0 L 192.0 76.0 L 188.0 76.0 L 187.0 77.0 L 180.0 78.0 L 173.0 82.0 L 171.0 82.0 L 169.0 84.0 L 162.0 88.0 L 151.0 99.0 L 151.0 100.0 L 145.0 108.0 L 143.0 112.0 L 143.0 114.0 L 141.0 117.0 L 141.0 119.0 L 140.0 120.0 L 140.0 123.0 L 139.0 124.0 L 139.0 127.0 L 138.0 128.0 L 138.0 136.0 L 137.0 137.0 L 137.0 139.0 L 138.0 140.0 L 138.0 147.0 L 139.0 148.0 L 140.0 155.0 L 143.0 161.0 L 143.0 163.0 L 144.0 164.0 L 145.0 168.0 L 147.0 170.0 L 151.0 177.0 L 161.0 187.0 L 162.0 187.0 L 165.0 190.0 L 178.0 197.0 L 181.0 197.0 L 182.0 198.0 L 184.0 198.0 L 188.0 200.0 L 213.0 200.0 L 214.0 199.0 L 217.0 199.0 L 221.0 197.0 L 224.0 197.0 L 226.0 195.0 L 232.0 193.0 L 242.0 185.0 L 243.0 185.0 L 251.0 176.0 L 251.0 175.0 L 255.0 170.0 L 256.0 167.0 L 258.0 165.0 L 259.0 161.0 L 260.0 160.0 L 260.0 158.0 L 261.0 157.0 L 261.0 155.0 L 262.0 154.0 L 262.0 148.0 L 263.0 147.0 L 263.0 142.0 L 264.0 141.0 L 264.0 134.0 L 263.0 133.0 L 263.0 128.0 L 262.0 127.0 L 262.0 122.0 L 261.0 121.0 L 261.0 118.0 L 259.0 115.0 L 258.0 111.0 L 256.0 109.0 L 254.0 104.0 L 249.0 98.0 L 249.0 97.0 L 248.0 97.0 L 241.0 89.0 L 237.0 87.0 L 234.0 84.0 L 228.0 81.0 L 226.0 81.0 L 221.0 78.0 L 219.0 78.0 L 218.0 77.0 L 208.0 76.0 L 207.0 75.0 Z"/>
  <path id="giraffe-shape03" class="paint-section" fill="#fff" d="M 61.0 354.0 L 61.0 360.0 L 62.0 362.0 L 64.0 364.0 L 64.0 365.0 L 68.0 366.0 L 69.0 367.0 L 71.0 366.0 L 72.0 367.0 L 150.0 367.0 L 151.0 366.0 L 152.0 367.0 L 262.0 367.0 L 263.0 366.0 L 264.0 367.0 L 265.0 366.0 L 270.0 366.0 L 272.0 365.0 L 276.0 360.0 L 276.0 352.0 L 273.0 346.0 L 267.0 340.0 L 263.0 339.0 L 260.0 337.0 L 249.0 337.0 L 248.0 338.0 L 245.0 337.0 L 242.0 331.0 L 237.0 325.0 L 236.0 325.0 L 232.0 321.0 L 228.0 319.0 L 226.0 319.0 L 225.0 318.0 L 217.0 318.0 L 216.0 317.0 L 215.0 318.0 L 208.0 318.0 L 200.0 322.0 L 198.0 322.0 L 195.0 320.0 L 193.0 315.0 L 191.0 313.0 L 189.0 309.0 L 183.0 303.0 L 182.0 303.0 L 180.0 301.0 L 178.0 301.0 L 173.0 298.0 L 170.0 298.0 L 169.0 297.0 L 156.0 297.0 L 155.0 298.0 L 151.0 298.0 L 148.0 300.0 L 144.0 301.0 L 136.0 307.0 L 136.0 308.0 L 130.0 315.0 L 129.0 318.0 L 125.0 321.0 L 122.0 319.0 L 107.0 319.0 L 104.0 321.0 L 102.0 321.0 L 94.0 328.0 L 94.0 329.0 L 90.0 334.0 L 90.0 336.0 L 88.0 339.0 L 86.0 340.0 L 85.0 339.0 L 81.0 339.0 L 80.0 340.0 L 73.0 341.0 L 69.0 343.0 L 65.0 347.0 Z"/>
  <path id="giraffe-shape04" class="paint-section" fill="#fff" d="M 254.0 675.0 L 254.0 678.0 L 251.0 680.0 L 247.0 679.0 L 249.0 680.0 L 253.0 684.0 L 253.0 687.0 L 252.0 688.0 L 252.0 692.0 L 250.0 696.0 L 250.0 699.0 L 247.0 704.0 L 246.0 709.0 L 244.0 712.0 L 244.0 716.0 L 245.0 717.0 L 245.0 719.0 L 246.0 715.0 L 250.0 707.0 L 252.0 706.0 L 255.0 708.0 L 256.0 712.0 L 257.0 713.0 L 257.0 717.0 L 258.0 718.0 L 258.0 731.0 L 257.0 732.0 L 257.0 734.0 L 255.0 738.0 L 251.0 742.0 L 245.0 745.0 L 242.0 743.0 L 242.0 734.0 L 240.0 734.0 L 236.0 736.0 L 232.0 740.0 L 230.0 744.0 L 230.0 748.0 L 231.0 745.0 L 235.0 740.0 L 237.0 739.0 L 240.0 741.0 L 240.0 751.0 L 239.0 752.0 L 239.0 759.0 L 238.0 760.0 L 238.0 763.0 L 237.0 764.0 L 236.0 772.0 L 234.0 775.0 L 234.0 777.0 L 232.0 780.0 L 232.0 782.0 L 230.0 784.0 L 230.0 786.0 L 227.0 792.0 L 227.0 805.0 L 228.0 806.0 L 228.0 808.0 L 225.0 810.0 L 218.0 810.0 L 219.0 812.0 L 224.0 812.0 L 225.0 811.0 L 229.0 812.0 L 230.0 813.0 L 230.0 815.0 L 232.0 818.0 L 232.0 820.0 L 236.0 828.0 L 237.0 838.0 L 238.0 839.0 L 238.0 842.0 L 239.0 843.0 L 239.0 848.0 L 240.0 849.0 L 241.0 857.0 L 242.0 858.0 L 242.0 861.0 L 243.0 862.0 L 244.0 878.0 L 245.0 879.0 L 245.0 884.0 L 246.0 885.0 L 246.0 895.0 L 247.0 896.0 L 247.0 902.0 L 248.0 903.0 L 248.0 909.0 L 249.0 910.0 L 249.0 917.0 L 250.0 918.0 L 250.0 931.0 L 251.0 932.0 L 251.0 941.0 L 252.0 942.0 L 252.0 949.0 L 253.0 950.0 L 254.0 954.0 L 255.0 954.0 L 257.0 956.0 L 257.0 957.0 L 261.0 961.0 L 261.0 963.0 L 263.0 965.0 L 263.0 972.0 L 264.0 973.0 L 264.0 978.0 L 263.0 979.0 L 263.0 986.0 L 264.0 987.0 L 264.0 990.0 L 265.0 991.0 L 268.0 991.0 L 270.0 992.0 L 271.0 991.0 L 275.0 991.0 L 276.0 990.0 L 278.0 990.0 L 286.0 986.0 L 289.0 986.0 L 290.0 985.0 L 293.0 985.0 L 294.0 984.0 L 298.0 984.0 L 302.0 982.0 L 305.0 979.0 L 303.0 975.0 L 300.0 972.0 L 296.0 964.0 L 293.0 961.0 L 290.0 955.0 L 290.0 953.0 L 289.0 952.0 L 289.0 950.0 L 287.0 946.0 L 286.0 938.0 L 285.0 937.0 L 285.0 935.0 L 283.0 931.0 L 283.0 928.0 L 282.0 927.0 L 282.0 925.0 L 280.0 921.0 L 280.0 916.0 L 279.0 915.0 L 279.0 912.0 L 278.0 911.0 L 278.0 908.0 L 277.0 907.0 L 277.0 901.0 L 276.0 900.0 L 276.0 892.0 L 275.0 891.0 L 275.0 886.0 L 274.0 885.0 L 274.0 881.0 L 273.0 880.0 L 273.0 869.0 L 272.0 868.0 L 272.0 861.0 L 271.0 860.0 L 271.0 853.0 L 270.0 852.0 L 270.0 837.0 L 269.0 836.0 L 269.0 824.0 L 270.0 823.0 L 270.0 817.0 L 271.0 816.0 L 271.0 812.0 L 273.0 809.0 L 275.0 808.0 L 282.0 808.0 L 283.0 807.0 L 283.0 806.0 L 278.0 806.0 L 276.0 807.0 L 273.0 805.0 L 273.0 802.0 L 275.0 799.0 L 275.0 796.0 L 277.0 792.0 L 278.0 786.0 L 283.0 776.0 L 283.0 773.0 L 287.0 766.0 L 287.0 763.0 L 289.0 761.0 L 290.0 757.0 L 291.0 756.0 L 291.0 754.0 L 290.0 753.0 L 287.0 759.0 L 285.0 761.0 L 282.0 762.0 L 278.0 760.0 L 274.0 756.0 L 273.0 754.0 L 273.0 748.0 L 274.0 747.0 L 274.0 745.0 L 277.0 739.0 L 279.0 737.0 L 280.0 734.0 L 282.0 732.0 L 284.0 728.0 L 291.0 722.0 L 295.0 721.0 L 296.0 720.0 L 300.0 721.0 L 301.0 722.0 L 301.0 727.0 L 300.0 728.0 L 299.0 732.0 L 302.0 730.0 L 303.0 726.0 L 306.0 721.0 L 307.0 715.0 L 310.0 709.0 L 311.0 704.0 L 314.0 702.0 L 320.0 703.0 L 320.0 700.0 L 314.0 700.0 L 313.0 699.0 L 309.0 699.0 L 308.0 698.0 L 304.0 698.0 L 303.0 697.0 L 297.0 697.0 L 296.0 696.0 L 293.0 696.0 L 292.0 695.0 L 290.0 695.0 L 289.0 694.0 L 281.0 692.0 L 278.0 690.0 L 270.0 688.0 L 258.0 682.0 L 256.0 680.0 L 256.0 675.0 Z"/>
  <path id="giraffe-shape05" class="paint-section" fill="#fff" d="M 711.0 215.0 L 710.0 214.0 L 710.0 210.0 L 709.0 209.0 L 708.0 205.0 L 706.0 203.0 L 705.0 200.0 L 699.0 194.0 L 695.0 192.0 L 693.0 192.0 L 692.0 191.0 L 678.0 191.0 L 675.0 189.0 L 674.0 181.0 L 671.0 175.0 L 665.0 168.0 L 664.0 168.0 L 659.0 164.0 L 655.0 162.0 L 653.0 162.0 L 652.0 161.0 L 648.0 161.0 L 647.0 160.0 L 637.0 160.0 L 636.0 161.0 L 631.0 161.0 L 630.0 162.0 L 628.0 162.0 L 624.0 164.0 L 619.0 168.0 L 618.0 168.0 L 610.0 177.0 L 606.0 185.0 L 604.0 186.0 L 602.0 185.0 L 588.0 185.0 L 582.0 188.0 L 574.0 197.0 L 572.0 201.0 L 571.0 206.0 L 568.0 208.0 L 567.0 207.0 L 555.0 207.0 L 554.0 208.0 L 551.0 208.0 L 547.0 211.0 L 544.0 212.0 L 538.0 219.0 L 536.0 223.0 L 536.0 225.0 L 535.0 226.0 L 535.0 229.0 L 538.0 234.0 L 542.0 235.0 L 543.0 236.0 L 693.0 236.0 L 694.0 235.0 L 698.0 235.0 L 702.0 233.0 L 706.0 229.0 L 706.0 228.0 L 709.0 224.0 L 709.0 222.0 L 710.0 221.0 L 710.0 217.0 Z"/>
  <path id="giraffe-shape06" class="paint-section" fill="#fff" d="M 351.0 691.0 L 349.0 691.0 L 349.0 695.0 L 350.0 696.0 L 350.0 698.0 L 347.0 700.0 L 314.0 700.0 L 313.0 699.0 L 309.0 699.0 L 308.0 698.0 L 304.0 698.0 L 303.0 697.0 L 301.0 697.0 L 300.0 699.0 L 301.0 701.0 L 305.0 701.0 L 308.0 703.0 L 308.0 708.0 L 307.0 709.0 L 306.0 714.0 L 303.0 718.0 L 299.0 720.0 L 295.0 720.0 L 294.0 721.0 L 292.0 721.0 L 292.0 722.0 L 296.0 720.0 L 300.0 721.0 L 301.0 722.0 L 301.0 727.0 L 298.0 733.0 L 298.0 735.0 L 292.0 746.0 L 292.0 748.0 L 290.0 751.0 L 290.0 753.0 L 287.0 759.0 L 285.0 761.0 L 282.0 762.0 L 278.0 760.0 L 276.0 758.0 L 276.0 759.0 L 278.0 761.0 L 280.0 761.0 L 284.0 764.0 L 284.0 767.0 L 282.0 770.0 L 282.0 772.0 L 278.0 780.0 L 278.0 782.0 L 277.0 783.0 L 277.0 785.0 L 276.0 786.0 L 276.0 788.0 L 274.0 792.0 L 274.0 795.0 L 271.0 801.0 L 270.0 808.0 L 268.0 812.0 L 268.0 816.0 L 269.0 817.0 L 271.0 816.0 L 271.0 812.0 L 272.0 810.0 L 275.0 808.0 L 282.0 808.0 L 283.0 807.0 L 292.0 807.0 L 293.0 806.0 L 321.0 806.0 L 322.0 805.0 L 346.0 805.0 L 349.0 807.0 L 349.0 814.0 L 352.0 814.0 L 352.0 802.0 L 353.0 801.0 L 353.0 798.0 L 354.0 797.0 L 354.0 793.0 L 355.0 792.0 L 355.0 785.0 L 356.0 784.0 L 356.0 780.0 L 357.0 779.0 L 357.0 773.0 L 358.0 772.0 L 358.0 740.0 L 357.0 739.0 L 357.0 729.0 L 356.0 728.0 L 356.0 719.0 L 355.0 718.0 L 355.0 707.0 L 354.0 706.0 L 354.0 701.0 L 353.0 700.0 L 353.0 697.0 L 352.0 696.0 L 352.0 693.0 Z"/>
  <path id="giraffe-shape07" class="paint-section" fill="#fff" d="M 586.0 563.0 L 587.0 569.0 L 594.0 575.0 L 597.0 575.0 L 598.0 576.0 L 606.0 576.0 L 608.0 575.0 L 609.0 576.0 L 613.0 576.0 L 614.0 577.0 L 615.0 576.0 L 619.0 579.0 L 625.0 582.0 L 627.0 582.0 L 631.0 584.0 L 635.0 584.0 L 636.0 585.0 L 641.0 585.0 L 642.0 584.0 L 645.0 584.0 L 640.0 578.0 L 640.0 576.0 L 643.0 574.0 L 646.0 574.0 L 649.0 572.0 L 652.0 572.0 L 655.0 574.0 L 655.0 580.0 L 654.0 581.0 L 654.0 584.0 L 656.0 584.0 L 657.0 578.0 L 659.0 576.0 L 661.0 575.0 L 662.0 576.0 L 664.0 575.0 L 665.0 576.0 L 666.0 575.0 L 667.0 576.0 L 669.0 575.0 L 672.0 575.0 L 675.0 577.0 L 675.0 579.0 L 669.0 585.0 L 671.0 585.0 L 673.0 583.0 L 673.0 582.0 L 678.0 578.0 L 681.0 578.0 L 687.0 581.0 L 687.0 583.0 L 685.0 585.0 L 681.0 586.0 L 679.0 588.0 L 678.0 588.0 L 679.0 589.0 L 681.0 589.0 L 687.0 586.0 L 690.0 583.0 L 698.0 579.0 L 701.0 579.0 L 702.0 580.0 L 713.0 580.0 L 714.0 579.0 L 717.0 579.0 L 722.0 573.0 L 722.0 567.0 L 720.0 563.0 L 712.0 558.0 L 712.0 555.0 L 709.0 549.0 L 708.0 549.0 L 704.0 545.0 L 702.0 544.0 L 700.0 544.0 L 699.0 543.0 L 693.0 543.0 L 691.0 542.0 L 689.0 540.0 L 688.0 537.0 L 684.0 533.0 L 680.0 531.0 L 677.0 531.0 L 676.0 530.0 L 667.0 530.0 L 661.0 533.0 L 655.0 530.0 L 653.0 530.0 L 652.0 529.0 L 641.0 529.0 L 640.0 530.0 L 638.0 530.0 L 636.0 531.0 L 628.0 540.0 L 626.0 541.0 L 620.0 540.0 L 619.0 541.0 L 613.0 542.0 L 606.0 549.0 L 605.0 551.0 L 603.0 552.0 L 596.0 552.0 L 595.0 553.0 L 593.0 553.0 L 591.0 555.0 L 590.0 555.0 Z"/>
  <path id="giraffe-shape08" class="paint-section" fill="#fff" d="M 41.0 562.0 L 42.0 568.0 L 46.0 573.0 L 50.0 575.0 L 52.0 575.0 L 53.0 576.0 L 64.0 576.0 L 66.0 577.0 L 68.0 579.0 L 68.0 580.0 L 69.0 580.0 L 72.0 583.0 L 72.0 584.0 L 73.0 584.0 L 75.0 586.0 L 79.0 586.0 L 79.0 585.0 L 76.0 584.0 L 72.0 580.0 L 72.0 578.0 L 75.0 576.0 L 77.0 577.0 L 80.0 577.0 L 83.0 579.0 L 85.0 583.0 L 85.0 585.0 L 84.0 586.0 L 83.0 586.0 L 85.0 585.0 L 89.0 585.0 L 90.0 584.0 L 94.0 583.0 L 94.0 578.0 L 95.0 577.0 L 95.0 574.0 L 98.0 572.0 L 102.0 574.0 L 102.0 578.0 L 103.0 579.0 L 104.0 583.0 L 105.0 583.0 L 105.0 580.0 L 104.0 579.0 L 104.0 574.0 L 107.0 572.0 L 112.0 572.0 L 113.0 571.0 L 117.0 573.0 L 117.0 575.0 L 114.0 578.0 L 113.0 582.0 L 114.0 582.0 L 114.0 581.0 L 120.0 575.0 L 122.0 574.0 L 123.0 575.0 L 127.0 575.0 L 130.0 577.0 L 130.0 579.0 L 129.0 580.0 L 123.0 583.0 L 121.0 583.0 L 121.0 584.0 L 123.0 584.0 L 124.0 585.0 L 127.0 583.0 L 129.0 583.0 L 140.0 575.0 L 148.0 575.0 L 149.0 574.0 L 151.0 574.0 L 155.0 572.0 L 159.0 567.0 L 159.0 559.0 L 155.0 554.0 L 151.0 552.0 L 149.0 552.0 L 148.0 551.0 L 144.0 550.0 L 142.0 546.0 L 140.0 545.0 L 139.0 543.0 L 138.0 543.0 L 134.0 540.0 L 132.0 540.0 L 131.0 539.0 L 120.0 539.0 L 111.0 532.0 L 108.0 532.0 L 107.0 531.0 L 99.0 531.0 L 98.0 532.0 L 95.0 532.0 L 91.0 534.0 L 86.0 538.0 L 84.0 537.0 L 75.0 537.0 L 74.0 538.0 L 71.0 538.0 L 69.0 539.0 L 65.0 543.0 L 64.0 547.0 L 61.0 549.0 L 55.0 549.0 L 54.0 550.0 L 52.0 550.0 L 48.0 552.0 L 43.0 557.0 L 42.0 561.0 Z"/>
  <path id="giraffe-shape09" class="paint-section" fill="#fff" d="M 166.0 666.0 L 164.0 667.0 L 163.0 674.0 L 161.0 678.0 L 161.0 683.0 L 160.0 684.0 L 160.0 688.0 L 159.0 689.0 L 159.0 694.0 L 158.0 695.0 L 157.0 704.0 L 156.0 705.0 L 156.0 707.0 L 154.0 711.0 L 153.0 718.0 L 150.0 724.0 L 150.0 727.0 L 146.0 734.0 L 146.0 736.0 L 144.0 738.0 L 143.0 742.0 L 141.0 744.0 L 141.0 745.0 L 138.0 747.0 L 134.0 744.0 L 134.0 742.0 L 138.0 735.0 L 138.0 733.0 L 140.0 729.0 L 142.0 727.0 L 142.0 724.0 L 144.0 720.0 L 144.0 717.0 L 145.0 716.0 L 146.0 709.0 L 148.0 705.0 L 148.0 702.0 L 149.0 701.0 L 149.0 696.0 L 150.0 695.0 L 150.0 691.0 L 151.0 690.0 L 151.0 685.0 L 152.0 684.0 L 152.0 676.0 L 151.0 677.0 L 151.0 682.0 L 150.0 683.0 L 150.0 686.0 L 149.0 687.0 L 149.0 690.0 L 148.0 691.0 L 147.0 702.0 L 146.0 703.0 L 146.0 706.0 L 144.0 710.0 L 143.0 718.0 L 140.0 724.0 L 139.0 729.0 L 133.0 741.0 L 130.0 744.0 L 129.0 744.0 L 128.0 746.0 L 128.0 756.0 L 129.0 757.0 L 129.0 765.0 L 127.0 769.0 L 127.0 773.0 L 124.0 779.0 L 124.0 781.0 L 119.0 788.0 L 109.0 808.0 L 109.0 818.0 L 111.0 822.0 L 115.0 826.0 L 119.0 828.0 L 120.0 828.0 L 119.0 826.0 L 119.0 820.0 L 120.0 819.0 L 124.0 818.0 L 125.0 817.0 L 132.0 817.0 L 133.0 816.0 L 153.0 816.0 L 157.0 819.0 L 157.0 825.0 L 159.0 824.0 L 159.0 818.0 L 158.0 817.0 L 158.0 811.0 L 157.0 810.0 L 157.0 793.0 L 160.0 787.0 L 160.0 785.0 L 163.0 782.0 L 167.0 774.0 L 167.0 772.0 L 169.0 769.0 L 169.0 767.0 L 173.0 759.0 L 173.0 756.0 L 174.0 755.0 L 174.0 752.0 L 175.0 751.0 L 175.0 746.0 L 176.0 745.0 L 176.0 737.0 L 177.0 736.0 L 177.0 717.0 L 176.0 716.0 L 176.0 706.0 L 175.0 705.0 L 175.0 699.0 L 174.0 698.0 L 174.0 694.0 L 173.0 693.0 L 172.0 683.0 L 171.0 682.0 L 171.0 679.0 L 170.0 678.0 L 170.0 672.0 L 169.0 671.0 L 169.0 667.0 L 167.0 667.0 Z"/>
  <path id="giraffe-shape10" class="paint-section" fill="#fff" d="M 349.0 507.0 L 347.0 508.0 L 340.0 516.0 L 340.0 518.0 L 330.0 537.0 L 329.0 545.0 L 330.0 546.0 L 330.0 549.0 L 333.0 555.0 L 340.0 563.0 L 341.0 563.0 L 344.0 566.0 L 345.0 566.0 L 352.0 571.0 L 354.0 571.0 L 355.0 572.0 L 360.0 572.0 L 362.0 571.0 L 367.0 566.0 L 368.0 566.0 L 368.0 565.0 L 375.0 558.0 L 375.0 557.0 L 379.0 552.0 L 379.0 550.0 L 381.0 546.0 L 381.0 543.0 L 380.0 542.0 L 379.0 534.0 L 378.0 533.0 L 376.0 525.0 L 369.0 515.0 L 369.0 514.0 L 364.0 510.0 L 363.0 510.0 L 362.0 508.0 L 359.0 508.0 L 358.0 507.0 Z"/>
  <path id="giraffe-shape11" class="paint-section" fill="#fff" d="M 421.0 393.0 L 419.0 394.0 L 407.0 406.0 L 404.0 412.0 L 403.0 417.0 L 402.0 418.0 L 402.0 426.0 L 403.0 427.0 L 403.0 430.0 L 404.0 431.0 L 404.0 433.0 L 406.0 437.0 L 408.0 439.0 L 410.0 443.0 L 415.0 448.0 L 417.0 453.0 L 421.0 457.0 L 421.0 458.0 L 427.0 462.0 L 435.0 462.0 L 437.0 461.0 L 440.0 457.0 L 447.0 443.0 L 447.0 440.0 L 448.0 439.0 L 448.0 436.0 L 449.0 435.0 L 449.0 432.0 L 450.0 431.0 L 450.0 418.0 L 449.0 417.0 L 449.0 415.0 L 447.0 411.0 L 446.0 411.0 L 445.0 409.0 L 443.0 407.0 L 442.0 407.0 L 429.0 394.0 L 427.0 393.0 Z"/>
  <path id="giraffe-shape12" class="paint-section" fill="#fff" d="M 309.0 549.0 L 302.0 549.0 L 301.0 550.0 L 297.0 550.0 L 293.0 552.0 L 289.0 552.0 L 288.0 553.0 L 285.0 553.0 L 284.0 554.0 L 278.0 555.0 L 272.0 562.0 L 271.0 568.0 L 270.0 569.0 L 270.0 573.0 L 267.0 578.0 L 267.0 584.0 L 266.0 585.0 L 266.0 587.0 L 267.0 588.0 L 267.0 593.0 L 269.0 597.0 L 275.0 603.0 L 277.0 603.0 L 283.0 606.0 L 300.0 606.0 L 307.0 602.0 L 313.0 590.0 L 313.0 588.0 L 314.0 587.0 L 314.0 581.0 L 315.0 580.0 L 315.0 561.0 L 314.0 560.0 L 314.0 556.0 L 312.0 552.0 Z"/>
  <path id="giraffe-shape13" class="paint-section" fill="#fff" d="M 398.0 559.0 L 396.0 560.0 L 384.0 572.0 L 384.0 573.0 L 381.0 576.0 L 379.0 580.0 L 379.0 587.0 L 380.0 588.0 L 380.0 591.0 L 382.0 595.0 L 384.0 597.0 L 385.0 607.0 L 386.0 608.0 L 388.0 616.0 L 393.0 621.0 L 397.0 623.0 L 405.0 624.0 L 406.0 625.0 L 410.0 625.0 L 414.0 623.0 L 414.0 622.0 L 416.0 621.0 L 416.0 620.0 L 420.0 615.0 L 423.0 609.0 L 423.0 607.0 L 424.0 606.0 L 424.0 602.0 L 425.0 601.0 L 425.0 588.0 L 424.0 587.0 L 424.0 584.0 L 422.0 580.0 L 419.0 577.0 L 419.0 576.0 L 417.0 575.0 L 416.0 572.0 L 415.0 572.0 L 414.0 570.0 L 411.0 568.0 L 411.0 567.0 L 407.0 563.0 L 407.0 562.0 L 406.0 562.0 L 402.0 559.0 Z"/>
  <path id="giraffe-shape14" class="paint-section" fill="#fff" d="M 335.0 583.0 L 330.0 587.0 L 329.0 592.0 L 327.0 594.0 L 326.0 598.0 L 325.0 599.0 L 325.0 601.0 L 323.0 604.0 L 322.0 610.0 L 321.0 611.0 L 320.0 617.0 L 319.0 618.0 L 319.0 627.0 L 322.0 631.0 L 322.0 633.0 L 334.0 646.0 L 343.0 646.0 L 351.0 642.0 L 355.0 638.0 L 355.0 636.0 L 358.0 633.0 L 362.0 625.0 L 362.0 622.0 L 365.0 616.0 L 366.0 607.0 L 365.0 606.0 L 365.0 602.0 L 363.0 599.0 L 362.0 595.0 L 357.0 590.0 L 347.0 585.0 L 344.0 585.0 L 340.0 583.0 Z"/>
  <path id="giraffe-shape15" class="paint-section" fill="#fff" d="M 420.0 656.0 L 417.0 662.0 L 416.0 670.0 L 415.0 671.0 L 415.0 677.0 L 414.0 678.0 L 412.0 686.0 L 417.0 676.0 L 417.0 672.0 L 418.0 671.0 L 418.0 668.0 L 420.0 664.0 Z M 379.0 637.0 L 375.0 640.0 L 374.0 640.0 L 371.0 643.0 L 371.0 644.0 L 368.0 647.0 L 367.0 650.0 L 361.0 656.0 L 357.0 664.0 L 357.0 671.0 L 359.0 675.0 L 362.0 678.0 L 362.0 679.0 L 365.0 682.0 L 365.0 683.0 L 368.0 686.0 L 368.0 687.0 L 374.0 693.0 L 376.0 694.0 L 379.0 694.0 L 380.0 695.0 L 386.0 695.0 L 392.0 692.0 L 399.0 685.0 L 399.0 684.0 L 401.0 682.0 L 403.0 678.0 L 403.0 676.0 L 407.0 668.0 L 407.0 664.0 L 408.0 663.0 L 408.0 655.0 L 407.0 654.0 L 407.0 652.0 L 404.0 646.0 L 400.0 641.0 L 396.0 640.0 L 395.0 639.0 L 392.0 639.0 L 391.0 638.0 L 387.0 638.0 L 386.0 637.0 Z"/>
  <path id="giraffe-shape16" class="paint-section" fill="#fff" d="M 408.0 477.0 L 401.0 482.0 L 401.0 483.0 L 398.0 486.0 L 397.0 489.0 L 395.0 491.0 L 394.0 494.0 L 392.0 496.0 L 391.0 500.0 L 389.0 503.0 L 388.0 511.0 L 389.0 512.0 L 389.0 514.0 L 390.0 515.0 L 390.0 517.0 L 392.0 521.0 L 406.0 535.0 L 407.0 535.0 L 412.0 539.0 L 415.0 539.0 L 416.0 540.0 L 418.0 539.0 L 420.0 540.0 L 425.0 536.0 L 425.0 535.0 L 429.0 530.0 L 431.0 526.0 L 431.0 524.0 L 433.0 521.0 L 434.0 515.0 L 435.0 514.0 L 435.0 511.0 L 436.0 510.0 L 435.0 497.0 L 434.0 496.0 L 434.0 493.0 L 432.0 489.0 L 428.0 485.0 L 417.0 479.0 L 415.0 479.0 L 412.0 477.0 Z"/>
  <path id="giraffe-shape17" class="paint-section" fill="#fff" d="M 219.0 597.0 L 217.0 598.0 L 213.0 602.0 L 212.0 606.0 L 209.0 610.0 L 208.0 616.0 L 206.0 619.0 L 206.0 625.0 L 205.0 626.0 L 205.0 631.0 L 206.0 632.0 L 206.0 635.0 L 212.0 642.0 L 213.0 642.0 L 223.0 650.0 L 228.0 652.0 L 230.0 654.0 L 236.0 654.0 L 244.0 647.0 L 251.0 633.0 L 251.0 630.0 L 252.0 629.0 L 252.0 612.0 L 251.0 611.0 L 251.0 609.0 L 248.0 603.0 L 247.0 603.0 L 243.0 600.0 L 241.0 600.0 L 235.0 597.0 Z"/>
  <path id="giraffe-shape18" class="paint-section" fill="#fff" d="M 323.0 500.0 L 322.0 499.0 L 318.0 502.0 L 315.0 503.0 L 312.0 501.0 L 310.0 501.0 L 309.0 500.0 L 307.0 500.0 L 306.0 499.0 L 304.0 499.0 L 303.0 498.0 L 301.0 498.0 L 300.0 497.0 L 298.0 497.0 L 294.0 495.0 L 291.0 495.0 L 290.0 494.0 L 270.0 494.0 L 269.0 495.0 L 266.0 495.0 L 265.0 496.0 L 263.0 496.0 L 262.0 497.0 L 260.0 497.0 L 259.0 498.0 L 257.0 498.0 L 256.0 499.0 L 248.0 501.0 L 241.0 505.0 L 239.0 505.0 L 234.0 508.0 L 231.0 508.0 L 219.0 514.0 L 214.0 514.0 L 212.0 513.0 L 212.0 516.0 L 222.0 521.0 L 224.0 521.0 L 229.0 524.0 L 231.0 524.0 L 234.0 526.0 L 236.0 526.0 L 241.0 529.0 L 243.0 529.0 L 244.0 530.0 L 246.0 530.0 L 247.0 531.0 L 249.0 531.0 L 250.0 532.0 L 252.0 532.0 L 257.0 535.0 L 257.0 538.0 L 249.0 542.0 L 251.0 544.0 L 253.0 544.0 L 259.0 541.0 L 262.0 543.0 L 262.0 546.0 L 262.0 541.0 L 263.0 540.0 L 267.0 539.0 L 268.0 538.0 L 270.0 538.0 L 281.0 532.0 L 283.0 532.0 L 296.0 524.0 L 298.0 525.0 L 303.0 530.0 L 304.0 529.0 L 303.0 529.0 L 299.0 525.0 L 299.0 522.0 L 303.0 518.0 L 307.0 516.0 L 313.0 510.0 L 314.0 510.0 L 323.0 501.0 Z"/>
  <path id="giraffe-shape19" class="paint-section" fill="#fff" d="M 270.0 621.0 L 267.0 624.0 L 265.0 628.0 L 264.0 638.0 L 265.0 639.0 L 265.0 644.0 L 266.0 645.0 L 266.0 648.0 L 267.0 649.0 L 267.0 654.0 L 268.0 655.0 L 268.0 658.0 L 271.0 664.0 L 273.0 665.0 L 278.0 670.0 L 282.0 672.0 L 287.0 673.0 L 288.0 674.0 L 301.0 675.0 L 302.0 674.0 L 306.0 674.0 L 308.0 673.0 L 311.0 669.0 L 311.0 667.0 L 313.0 663.0 L 313.0 659.0 L 312.0 658.0 L 312.0 654.0 L 311.0 653.0 L 311.0 649.0 L 310.0 648.0 L 310.0 646.0 L 308.0 643.0 L 307.0 638.0 L 303.0 631.0 L 302.0 631.0 L 298.0 626.0 L 296.0 626.0 L 295.0 625.0 L 288.0 624.0 L 287.0 623.0 L 285.0 623.0 L 281.0 621.0 Z"/>
  <path id="giraffe-shape20" class="paint-section" fill="#fff" d="M 452.0 264.0 L 446.0 270.0 L 440.0 281.0 L 440.0 283.0 L 439.0 284.0 L 439.0 289.0 L 438.0 290.0 L 438.0 296.0 L 439.0 297.0 L 439.0 301.0 L 442.0 305.0 L 442.0 306.0 L 454.0 318.0 L 455.0 318.0 L 457.0 320.0 L 459.0 320.0 L 460.0 321.0 L 465.0 321.0 L 466.0 320.0 L 468.0 320.0 L 472.0 317.0 L 475.0 318.0 L 476.0 319.0 L 476.0 328.0 L 480.0 326.0 L 479.0 325.0 L 479.0 295.0 L 482.0 293.0 L 485.0 295.0 L 487.0 299.0 L 487.0 302.0 L 488.0 304.0 L 488.0 292.0 L 486.0 293.0 L 483.0 292.0 L 479.0 286.0 L 479.0 263.0 L 476.0 260.0 L 475.0 260.0 L 475.0 262.0 L 476.0 263.0 L 476.0 269.0 L 473.0 271.0 L 463.0 266.0 L 461.0 266.0 L 458.0 264.0 Z"/>
  <path id="giraffe-shape21" class="paint-section" fill="#fff" d="M 410.0 302.0 L 408.0 302.0 L 408.0 307.0 L 407.0 308.0 L 407.0 316.0 L 406.0 317.0 L 406.0 323.0 L 405.0 324.0 L 405.0 329.0 L 404.0 330.0 L 404.0 337.0 L 403.0 338.0 L 403.0 343.0 L 402.0 344.0 L 402.0 348.0 L 401.0 349.0 L 400.0 363.0 L 399.0 364.0 L 399.0 367.0 L 398.0 368.0 L 398.0 371.0 L 397.0 372.0 L 397.0 376.0 L 396.0 377.0 L 396.0 380.0 L 395.0 381.0 L 395.0 383.0 L 397.0 384.0 L 398.0 380.0 L 399.0 379.0 L 399.0 377.0 L 402.0 375.0 L 404.0 375.0 L 412.0 379.0 L 416.0 379.0 L 420.0 377.0 L 424.0 373.0 L 424.0 372.0 L 427.0 368.0 L 427.0 366.0 L 431.0 358.0 L 431.0 355.0 L 432.0 354.0 L 432.0 349.0 L 433.0 348.0 L 433.0 335.0 L 432.0 334.0 L 430.0 326.0 L 427.0 322.0 L 427.0 320.0 L 424.0 317.0 L 424.0 316.0 L 417.0 312.0 L 413.0 312.0 L 410.0 310.0 Z"/>
  <path id="giraffe-shape22" class="paint-section" fill="#fff" d="M 476.0 329.0 L 476.0 338.0 L 473.0 340.0 L 457.0 340.0 L 455.0 341.0 L 452.0 345.0 L 452.0 347.0 L 451.0 348.0 L 451.0 350.0 L 449.0 354.0 L 449.0 359.0 L 447.0 363.0 L 447.0 368.0 L 446.0 369.0 L 446.0 378.0 L 447.0 379.0 L 447.0 381.0 L 450.0 387.0 L 451.0 387.0 L 454.0 390.0 L 455.0 390.0 L 464.0 398.0 L 468.0 399.0 L 469.0 400.0 L 473.0 400.0 L 476.0 402.0 L 476.0 410.0 L 478.0 410.0 L 479.0 409.0 L 479.0 406.0 L 485.0 395.0 L 485.0 393.0 L 486.0 392.0 L 486.0 388.0 L 487.0 387.0 L 487.0 366.0 L 488.0 365.0 L 488.0 340.0 L 486.0 336.0 L 482.0 332.0 Z"/>
  <path id="giraffe-shape23" class="paint-section" fill="#fff" d="M 483.0 585.0 L 480.0 585.0 L 480.0 590.0 L 481.0 591.0 L 481.0 594.0 L 480.0 595.0 L 476.0 596.0 L 475.0 597.0 L 473.0 597.0 L 471.0 599.0 L 466.0 601.0 L 464.0 603.0 L 463.0 603.0 L 463.0 604.0 L 459.0 608.0 L 456.0 614.0 L 456.0 616.0 L 454.0 619.0 L 454.0 621.0 L 453.0 622.0 L 453.0 624.0 L 451.0 628.0 L 451.0 636.0 L 452.0 637.0 L 452.0 640.0 L 455.0 646.0 L 455.0 648.0 L 462.0 655.0 L 470.0 659.0 L 470.0 662.0 L 468.0 664.0 L 467.0 668.0 L 468.0 667.0 L 469.0 668.0 L 470.0 667.0 L 471.0 663.0 L 472.0 662.0 L 472.0 660.0 L 474.0 657.0 L 476.0 656.0 L 485.0 656.0 L 486.0 654.0 L 480.0 654.0 L 477.0 652.0 L 477.0 649.0 L 479.0 645.0 L 479.0 642.0 L 482.0 636.0 L 483.0 629.0 L 484.0 627.0 L 488.0 624.0 L 495.0 624.0 L 495.0 622.0 L 491.0 622.0 L 489.0 623.0 L 486.0 621.0 L 486.0 617.0 L 487.0 616.0 L 487.0 603.0 L 486.0 602.0 L 486.0 595.0 L 485.0 594.0 L 485.0 589.0 Z"/>
  <path id="giraffe-shape24" class="paint-section" fill="#fff" d="M 272.0 536.0 L 270.0 534.0 L 268.0 534.0 L 262.0 537.0 L 259.0 535.0 L 259.0 532.0 L 258.0 531.0 L 254.0 530.0 L 250.0 532.0 L 252.0 532.0 L 257.0 535.0 L 257.0 538.0 L 256.0 539.0 L 250.0 542.0 L 247.0 542.0 L 240.0 546.0 L 236.0 546.0 L 233.0 548.0 L 228.0 549.0 L 214.0 556.0 L 212.0 558.0 L 209.0 559.0 L 203.0 565.0 L 203.0 568.0 L 206.0 565.0 L 212.0 562.0 L 215.0 564.0 L 215.0 571.0 L 218.0 575.0 L 218.0 576.0 L 221.0 579.0 L 224.0 579.0 L 225.0 580.0 L 227.0 580.0 L 231.0 582.0 L 237.0 582.0 L 238.0 583.0 L 244.0 583.0 L 245.0 582.0 L 247.0 582.0 L 251.0 578.0 L 256.0 567.0 L 261.0 560.0 L 262.0 554.0 L 263.0 553.0 L 263.0 549.0 L 262.0 548.0 L 262.0 541.0 L 265.0 539.0 L 270.0 538.0 L 272.0 537.0 Z"/>
  <path id="giraffe-shape25" class="paint-section" fill="#fff" d="M 242.0 728.0 L 237.0 728.0 L 236.0 732.0 L 233.0 735.0 L 227.0 747.0 L 225.0 749.0 L 222.0 755.0 L 220.0 757.0 L 219.0 760.0 L 216.0 763.0 L 215.0 766.0 L 213.0 768.0 L 211.0 769.0 L 204.0 764.0 L 204.0 765.0 L 206.0 766.0 L 211.0 771.0 L 211.0 773.0 L 208.0 779.0 L 206.0 781.0 L 205.0 785.0 L 200.0 795.0 L 197.0 797.0 L 189.0 795.0 L 197.0 799.0 L 197.0 804.0 L 195.0 807.0 L 195.0 810.0 L 193.0 813.0 L 193.0 815.0 L 191.0 819.0 L 192.0 820.0 L 194.0 820.0 L 194.0 816.0 L 198.0 813.0 L 211.0 813.0 L 212.0 812.0 L 224.0 812.0 L 225.0 811.0 L 227.0 811.0 L 230.0 813.0 L 230.0 815.0 L 232.0 818.0 L 232.0 820.0 L 234.0 819.0 L 234.0 817.0 L 232.0 814.0 L 231.0 808.0 L 230.0 807.0 L 230.0 790.0 L 237.0 776.0 L 238.0 769.0 L 239.0 768.0 L 240.0 762.0 L 241.0 761.0 L 241.0 758.0 L 242.0 757.0 L 242.0 747.0 L 252.0 742.0 L 252.0 741.0 L 245.0 745.0 L 242.0 743.0 Z"/>
  <path id="giraffe-shape26" class="paint-section" fill="#fff" d="M 407.0 707.0 L 405.0 710.0 L 404.0 716.0 L 401.0 722.0 L 401.0 727.0 L 400.0 728.0 L 399.0 735.0 L 397.0 739.0 L 397.0 744.0 L 396.0 745.0 L 395.0 753.0 L 394.0 754.0 L 394.0 761.0 L 393.0 762.0 L 393.0 769.0 L 392.0 770.0 L 392.0 784.0 L 391.0 785.0 L 391.0 789.0 L 392.0 790.0 L 392.0 814.0 L 393.0 815.0 L 394.0 815.0 L 394.0 808.0 L 397.0 806.0 L 411.0 806.0 L 412.0 805.0 L 415.0 807.0 L 415.0 812.0 L 416.0 814.0 L 418.0 813.0 L 417.0 812.0 L 417.0 804.0 L 416.0 803.0 L 416.0 801.0 L 417.0 800.0 L 417.0 784.0 L 418.0 783.0 L 418.0 777.0 L 417.0 776.0 L 417.0 757.0 L 416.0 756.0 L 416.0 745.0 L 415.0 744.0 L 415.0 738.0 L 414.0 737.0 L 414.0 729.0 L 413.0 728.0 L 413.0 722.0 L 412.0 721.0 L 412.0 718.0 L 411.0 717.0 L 410.0 708.0 L 408.0 708.0 Z"/>
  <path id="giraffe-shape27" class="paint-section" fill="#fff" d="M 383.0 425.0 L 380.0 424.0 L 380.0 426.0 L 378.0 428.0 L 376.0 433.0 L 371.0 440.0 L 369.0 445.0 L 362.0 454.0 L 361.0 457.0 L 356.0 462.0 L 356.0 463.0 L 349.0 471.0 L 349.0 472.0 L 347.0 473.0 L 345.0 476.0 L 344.0 476.0 L 343.0 478.0 L 343.0 483.0 L 347.0 479.0 L 347.0 478.0 L 351.0 475.0 L 354.0 477.0 L 355.0 481.0 L 357.0 484.0 L 358.0 484.0 L 363.0 488.0 L 365.0 488.0 L 366.0 489.0 L 372.0 489.0 L 377.0 485.0 L 378.0 485.0 L 378.0 484.0 L 386.0 475.0 L 386.0 473.0 L 390.0 468.0 L 391.0 464.0 L 393.0 461.0 L 393.0 451.0 L 392.0 450.0 L 392.0 448.0 L 390.0 444.0 L 386.0 440.0 L 386.0 439.0 L 383.0 436.0 L 379.0 434.0 L 379.0 431.0 L 381.0 429.0 Z"/>
  <path id="giraffe-shape28" class="paint-section" fill="#fff" d="M 330.0 81.0 L 328.0 85.0 L 328.0 88.0 L 329.0 89.0 L 329.0 96.0 L 330.0 97.0 L 330.0 100.0 L 333.0 106.0 L 333.0 108.0 L 336.0 111.0 L 339.0 117.0 L 345.0 123.0 L 346.0 123.0 L 347.0 125.0 L 348.0 125.0 L 353.0 129.0 L 360.0 132.0 L 362.0 134.0 L 362.0 138.0 L 361.0 139.0 L 361.0 141.0 L 362.0 140.0 L 365.0 140.0 L 366.0 128.0 L 369.0 122.0 L 384.0 108.0 L 385.0 108.0 L 388.0 105.0 L 391.0 104.0 L 395.0 101.0 L 393.0 96.0 L 391.0 94.0 L 391.0 93.0 L 390.0 93.0 L 390.0 96.0 L 389.0 98.0 L 386.0 100.0 L 384.0 99.0 L 376.0 90.0 L 370.0 87.0 L 368.0 85.0 L 364.0 84.0 L 361.0 82.0 L 357.0 82.0 L 356.0 81.0 L 349.0 81.0 L 348.0 80.0 L 336.0 80.0 L 335.0 81.0 Z"/>
  <path id="giraffe-shape29" class="paint-section" fill="#fff" d="M 466.0 522.0 L 464.0 522.0 L 463.0 523.0 L 463.0 530.0 L 461.0 532.0 L 456.0 534.0 L 449.0 540.0 L 449.0 541.0 L 445.0 546.0 L 444.0 549.0 L 442.0 551.0 L 441.0 555.0 L 440.0 556.0 L 440.0 558.0 L 439.0 559.0 L 439.0 567.0 L 440.0 568.0 L 440.0 571.0 L 443.0 575.0 L 443.0 576.0 L 451.0 583.0 L 459.0 583.0 L 461.0 582.0 L 469.0 574.0 L 470.0 572.0 L 474.0 570.0 L 477.0 572.0 L 477.0 575.0 L 478.0 576.0 L 478.0 579.0 L 479.0 581.0 L 481.0 578.0 L 481.0 576.0 L 479.0 572.0 L 479.0 569.0 L 475.0 561.0 L 474.0 556.0 L 472.0 553.0 L 471.0 547.0 L 469.0 543.0 L 469.0 540.0 L 467.0 536.0 L 467.0 525.0 L 469.0 524.0 Z"/>
  <path id="giraffe-shape30" class="paint-section" fill="#fff" d="M 256.0 670.0 L 255.0 670.0 L 254.0 678.0 L 251.0 680.0 L 247.0 679.0 L 243.0 675.0 L 239.0 673.0 L 234.0 673.0 L 225.0 681.0 L 225.0 682.0 L 222.0 685.0 L 219.0 691.0 L 219.0 700.0 L 222.0 706.0 L 228.0 714.0 L 229.0 717.0 L 233.0 721.0 L 236.0 721.0 L 239.0 723.0 L 239.0 725.0 L 236.0 730.0 L 236.0 732.0 L 242.0 731.0 L 242.0 725.0 L 246.0 717.0 L 246.0 715.0 L 249.0 710.0 L 249.0 708.0 L 252.0 706.0 L 254.0 707.0 L 255.0 709.0 L 254.0 705.0 L 253.0 704.0 L 253.0 702.0 L 252.0 701.0 L 252.0 699.0 L 253.0 698.0 L 253.0 694.0 L 254.0 693.0 L 254.0 690.0 L 255.0 688.0 L 259.0 686.0 L 265.0 689.0 L 265.0 686.0 L 261.0 683.0 L 258.0 682.0 L 256.0 680.0 Z"/>
  <path id="giraffe-shape31" class="paint-section" fill="#fff" d="M 168.0 663.0 L 167.0 664.0 L 167.0 677.0 L 169.0 680.0 L 169.0 683.0 L 173.0 691.0 L 172.0 683.0 L 171.0 682.0 L 171.0 679.0 L 170.0 678.0 L 170.0 672.0 L 169.0 671.0 L 169.0 666.0 L 168.0 665.0 Z M 189.0 649.0 L 183.0 656.0 L 181.0 660.0 L 181.0 662.0 L 179.0 665.0 L 179.0 675.0 L 180.0 676.0 L 181.0 681.0 L 185.0 688.0 L 192.0 695.0 L 194.0 696.0 L 200.0 696.0 L 204.0 691.0 L 204.0 689.0 L 206.0 686.0 L 206.0 683.0 L 207.0 682.0 L 207.0 673.0 L 208.0 672.0 L 207.0 670.0 L 207.0 663.0 L 204.0 657.0 L 197.0 650.0 L 195.0 649.0 Z"/>
  <path id="giraffe-shape32" class="paint-section" fill="#fff" d="M 405.0 35.0 L 396.0 35.0 L 395.0 36.0 L 393.0 36.0 L 391.0 37.0 L 391.0 38.0 L 389.0 39.0 L 385.0 43.0 L 384.0 45.0 L 384.0 49.0 L 383.0 50.0 L 384.0 58.0 L 388.0 63.0 L 388.0 64.0 L 389.0 64.0 L 393.0 68.0 L 393.0 71.0 L 392.0 72.0 L 392.0 86.0 L 391.0 87.0 L 391.0 92.0 L 390.0 93.0 L 390.0 96.0 L 389.0 98.0 L 386.0 100.0 L 381.0 96.0 L 381.0 99.0 L 383.0 103.0 L 386.0 106.0 L 391.0 104.0 L 395.0 101.0 L 397.0 101.0 L 401.0 99.0 L 405.0 99.0 L 409.0 97.0 L 415.0 97.0 L 416.0 96.0 L 421.0 96.0 L 422.0 97.0 L 424.0 96.0 L 424.0 94.0 L 416.0 91.0 L 413.0 86.0 L 413.0 82.0 L 412.0 81.0 L 412.0 72.0 L 411.0 71.0 L 411.0 65.0 L 416.0 58.0 L 417.0 50.0 L 416.0 49.0 L 415.0 43.0 L 412.0 40.0 L 412.0 39.0 L 408.0 36.0 L 406.0 36.0 Z"/>
  <path id="giraffe-shape33" class="paint-section" fill="#fff" d="M 510.0 593.0 L 510.0 596.0 L 512.0 599.0 L 514.0 600.0 L 518.0 600.0 L 519.0 601.0 L 525.0 601.0 L 527.0 602.0 L 534.0 609.0 L 538.0 611.0 L 541.0 611.0 L 542.0 610.0 L 545.0 610.0 L 546.0 611.0 L 551.0 611.0 L 561.0 603.0 L 563.0 603.0 L 564.0 602.0 L 565.0 603.0 L 573.0 603.0 L 574.0 602.0 L 578.0 601.0 L 580.0 598.0 L 579.0 594.0 L 575.0 590.0 L 573.0 590.0 L 569.0 588.0 L 567.0 585.0 L 563.0 583.0 L 560.0 583.0 L 558.0 582.0 L 556.0 578.0 L 553.0 575.0 L 551.0 574.0 L 548.0 574.0 L 547.0 573.0 L 541.0 574.0 L 533.0 580.0 L 528.0 580.0 L 524.0 582.0 L 524.0 583.0 L 522.0 585.0 L 518.0 586.0 L 517.0 587.0 L 515.0 587.0 L 511.0 591.0 Z"/>
  <path id="giraffe-shape34" class="paint-section" fill="#fff" d="M 198.0 569.0 L 185.0 583.0 L 182.0 589.0 L 179.0 592.0 L 178.0 595.0 L 176.0 597.0 L 168.0 613.0 L 168.0 615.0 L 165.0 617.0 L 158.0 617.0 L 158.0 618.0 L 164.0 621.0 L 164.0 623.0 L 163.0 624.0 L 161.0 632.0 L 162.0 634.0 L 167.0 639.0 L 167.0 631.0 L 169.0 628.0 L 171.0 627.0 L 173.0 628.0 L 174.0 630.0 L 177.0 632.0 L 185.0 632.0 L 187.0 631.0 L 187.0 630.0 L 190.0 627.0 L 190.0 625.0 L 196.0 613.0 L 196.0 611.0 L 197.0 610.0 L 199.0 602.0 L 201.0 599.0 L 201.0 591.0 L 195.0 579.0 L 195.0 576.0 L 201.0 570.0 Z"/>
  <path id="giraffe-shape35" class="paint-section" fill="#fff" d="M 356.0 728.0 L 356.0 746.0 L 357.0 747.0 L 357.0 751.0 L 358.0 752.0 L 358.0 740.0 L 357.0 739.0 L 357.0 729.0 Z M 405.0 712.0 L 404.0 713.0 L 403.0 719.0 L 401.0 722.0 L 401.0 727.0 L 400.0 728.0 L 399.0 735.0 L 397.0 739.0 L 397.0 744.0 L 396.0 745.0 L 396.0 748.0 L 395.0 749.0 L 394.0 759.0 L 397.0 755.0 L 397.0 751.0 L 398.0 750.0 L 398.0 747.0 L 399.0 746.0 L 399.0 743.0 L 400.0 742.0 L 400.0 737.0 L 401.0 736.0 L 401.0 732.0 L 402.0 731.0 L 402.0 728.0 L 403.0 727.0 L 403.0 723.0 L 404.0 721.0 L 406.0 720.0 L 406.0 714.0 Z M 390.0 712.0 L 378.0 712.0 L 375.0 715.0 L 372.0 721.0 L 370.0 723.0 L 370.0 726.0 L 369.0 727.0 L 368.0 733.0 L 367.0 734.0 L 367.0 741.0 L 369.0 745.0 L 369.0 748.0 L 371.0 750.0 L 371.0 752.0 L 372.0 752.0 L 377.0 756.0 L 379.0 756.0 L 383.0 753.0 L 384.0 753.0 L 390.0 742.0 L 390.0 740.0 L 391.0 739.0 L 391.0 737.0 L 393.0 733.0 L 393.0 728.0 L 394.0 727.0 L 394.0 717.0 Z"/>
  <path id="giraffe-shape36" class="paint-section" fill="#fff" d="M 177.0 724.0 L 175.0 728.0 L 175.0 744.0 L 176.0 745.0 L 176.0 737.0 L 177.0 736.0 Z M 197.0 712.0 L 190.0 722.0 L 190.0 724.0 L 188.0 728.0 L 188.0 731.0 L 187.0 732.0 L 187.0 738.0 L 188.0 739.0 L 188.0 743.0 L 192.0 748.0 L 196.0 750.0 L 204.0 750.0 L 206.0 749.0 L 213.0 742.0 L 216.0 736.0 L 216.0 734.0 L 217.0 733.0 L 217.0 729.0 L 215.0 726.0 L 215.0 724.0 L 213.0 720.0 L 209.0 716.0 L 208.0 716.0 L 203.0 712.0 Z"/>
  <path id="giraffe-shape37" class="paint-section" fill="#fff" d="M 472.0 189.0 L 472.0 197.0 L 464.0 204.0 L 463.0 204.0 L 463.0 205.0 L 456.0 212.0 L 456.0 214.0 L 454.0 216.0 L 452.0 220.0 L 452.0 224.0 L 451.0 225.0 L 451.0 227.0 L 452.0 228.0 L 453.0 241.0 L 454.0 242.0 L 454.0 244.0 L 456.0 248.0 L 458.0 249.0 L 462.0 249.0 L 472.0 244.0 L 475.0 246.0 L 475.0 255.0 L 476.0 255.0 L 479.0 252.0 L 478.0 250.0 L 478.0 231.0 L 481.0 229.0 L 483.0 230.0 L 486.0 236.0 L 486.0 227.0 L 484.0 228.0 L 482.0 227.0 L 477.0 221.0 L 477.0 205.0 L 480.0 203.0 L 482.0 204.0 L 485.0 210.0 L 485.0 204.0 L 483.0 205.0 L 480.0 203.0 L 479.0 200.0 L 476.0 196.0 L 476.0 190.0 L 475.0 189.0 Z"/>
  <path id="giraffe-shape38" class="paint-section" fill="#fff" d="M 465.0 680.0 L 463.0 681.0 L 463.0 688.0 L 460.0 690.0 L 459.0 689.0 L 449.0 689.0 L 447.0 691.0 L 439.0 707.0 L 439.0 713.0 L 438.0 714.0 L 438.0 717.0 L 439.0 718.0 L 439.0 724.0 L 440.0 725.0 L 440.0 727.0 L 442.0 729.0 L 442.0 730.0 L 449.0 737.0 L 452.0 738.0 L 456.0 742.0 L 456.0 744.0 L 455.0 745.0 L 455.0 749.0 L 458.0 749.0 L 458.0 739.0 L 459.0 738.0 L 460.0 726.0 L 461.0 725.0 L 461.0 718.0 L 462.0 717.0 L 462.0 709.0 L 463.0 708.0 L 463.0 702.0 L 464.0 701.0 L 465.0 686.0 L 466.0 685.0 L 466.0 682.0 L 467.0 681.0 Z"/>
  <path id="giraffe-shape39" class="paint-section" fill="#fff" d="M 475.0 430.0 L 474.0 430.0 L 474.0 436.0 L 472.0 438.0 L 471.0 438.0 L 470.0 440.0 L 463.0 446.0 L 462.0 449.0 L 460.0 451.0 L 460.0 453.0 L 455.0 463.0 L 455.0 466.0 L 453.0 469.0 L 453.0 471.0 L 452.0 472.0 L 452.0 474.0 L 451.0 475.0 L 451.0 477.0 L 449.0 481.0 L 449.0 484.0 L 451.0 488.0 L 453.0 490.0 L 454.0 493.0 L 459.0 499.0 L 459.0 500.0 L 462.0 502.0 L 462.0 503.0 L 466.0 508.0 L 465.0 514.0 L 468.0 514.0 L 468.0 511.0 L 469.0 510.0 L 469.0 504.0 L 470.0 503.0 L 470.0 497.0 L 471.0 496.0 L 472.0 474.0 L 473.0 473.0 L 473.0 468.0 L 474.0 467.0 L 474.0 461.0 L 475.0 460.0 L 475.0 450.0 L 476.0 449.0 L 476.0 442.0 L 477.0 441.0 L 477.0 434.0 L 478.0 433.0 L 478.0 432.0 Z"/>
  <path id="giraffe-shape40" class="paint-section" fill="#fff" d="M 218.0 761.0 L 216.0 763.0 L 215.0 766.0 L 211.0 769.0 L 206.0 765.0 L 202.0 763.0 L 194.0 763.0 L 192.0 764.0 L 188.0 768.0 L 186.0 772.0 L 183.0 775.0 L 182.0 781.0 L 181.0 782.0 L 181.0 786.0 L 182.0 787.0 L 182.0 789.0 L 185.0 793.0 L 197.0 799.0 L 197.0 804.0 L 195.0 807.0 L 196.0 809.0 L 198.0 808.0 L 199.0 806.0 L 199.0 803.0 L 205.0 791.0 L 205.0 789.0 L 215.0 769.0 L 219.0 764.0 L 219.0 762.0 Z"/>
  <path id="giraffe-shape41" class="paint-section" fill="#fff" d="M 415.0 218.0 L 413.0 218.0 L 413.0 233.0 L 412.0 234.0 L 412.0 255.0 L 411.0 256.0 L 411.0 273.0 L 410.0 274.0 L 410.0 283.0 L 409.0 284.0 L 409.0 288.0 L 411.0 289.0 L 411.0 287.0 L 412.0 286.0 L 412.0 281.0 L 415.0 279.0 L 418.0 279.0 L 424.0 274.0 L 425.0 271.0 L 430.0 264.0 L 430.0 262.0 L 431.0 261.0 L 431.0 257.0 L 432.0 256.0 L 432.0 251.0 L 431.0 250.0 L 431.0 244.0 L 430.0 243.0 L 430.0 241.0 L 427.0 235.0 L 422.0 230.0 L 417.0 228.0 L 415.0 226.0 Z"/>
  <path id="giraffe-shape42" class="paint-section" fill="#fff" d="M 307.0 711.0 L 306.0 712.0 L 305.0 716.0 L 303.0 718.0 L 299.0 720.0 L 291.0 721.0 L 284.0 728.0 L 281.0 734.0 L 278.0 737.0 L 274.0 745.0 L 274.0 756.0 L 275.0 758.0 L 278.0 761.0 L 280.0 761.0 L 284.0 764.0 L 284.0 767.0 L 281.0 773.0 L 282.0 774.0 L 283.0 774.0 L 287.0 766.0 L 287.0 763.0 L 290.0 759.0 L 290.0 757.0 L 293.0 752.0 L 293.0 750.0 L 300.0 736.0 L 300.0 733.0 L 306.0 721.0 L 307.0 715.0 L 308.0 714.0 L 308.0 712.0 Z"/>
  <path id="giraffe-shape43" class="paint-section" fill="#fff" d="M 167.0 636.0 L 163.0 636.0 L 162.0 635.0 L 159.0 637.0 L 159.0 641.0 L 157.0 645.0 L 157.0 648.0 L 156.0 649.0 L 156.0 652.0 L 154.0 656.0 L 154.0 660.0 L 153.0 661.0 L 153.0 664.0 L 152.0 666.0 L 149.0 668.0 L 143.0 668.0 L 141.0 669.0 L 141.0 671.0 L 143.0 671.0 L 144.0 670.0 L 148.0 670.0 L 151.0 672.0 L 151.0 676.0 L 150.0 677.0 L 150.0 685.0 L 149.0 686.0 L 149.0 690.0 L 148.0 691.0 L 148.0 694.0 L 147.0 695.0 L 147.0 701.0 L 146.0 702.0 L 146.0 706.0 L 144.0 710.0 L 144.0 714.0 L 143.0 715.0 L 142.0 721.0 L 140.0 724.0 L 139.0 729.0 L 133.0 741.0 L 130.0 744.0 L 127.0 745.0 L 123.0 748.0 L 124.0 751.0 L 129.0 756.0 L 133.0 758.0 L 137.0 758.0 L 138.0 759.0 L 139.0 758.0 L 141.0 758.0 L 140.0 749.0 L 144.0 744.0 L 144.0 742.0 L 146.0 738.0 L 148.0 736.0 L 149.0 732.0 L 152.0 727.0 L 152.0 724.0 L 155.0 718.0 L 156.0 712.0 L 157.0 711.0 L 157.0 709.0 L 159.0 705.0 L 160.0 694.0 L 161.0 693.0 L 161.0 690.0 L 162.0 689.0 L 162.0 686.0 L 163.0 685.0 L 163.0 680.0 L 166.0 678.0 L 169.0 680.0 L 171.0 692.0 L 172.0 691.0 L 172.0 683.0 L 171.0 682.0 L 171.0 679.0 L 170.0 678.0 L 170.0 672.0 L 169.0 671.0 L 169.0 666.0 L 168.0 665.0 L 168.0 655.0 L 167.0 654.0 Z"/>
  <path id="giraffe-shape44" class="paint-section" fill="#fff" d="M 442.0 177.0 L 442.0 184.0 L 443.0 185.0 L 443.0 198.0 L 442.0 199.0 L 436.0 202.0 L 432.0 200.0 L 432.0 197.0 L 433.0 196.0 L 433.0 193.0 L 434.0 192.0 L 433.0 184.0 L 427.0 178.0 L 424.0 178.0 L 420.0 180.0 L 416.0 184.0 L 415.0 189.0 L 411.0 194.0 L 411.0 202.0 L 412.0 203.0 L 412.0 207.0 L 409.0 209.0 L 404.0 209.0 L 402.0 210.0 L 403.0 212.0 L 406.0 212.0 L 407.0 211.0 L 410.0 211.0 L 413.0 213.0 L 413.0 219.0 L 415.0 219.0 L 415.0 212.0 L 418.0 210.0 L 426.0 209.0 L 427.0 208.0 L 430.0 208.0 L 443.0 202.0 L 444.0 200.0 L 445.0 192.0 L 443.0 191.0 L 443.0 182.0 L 442.0 181.0 Z"/>
  <path id="giraffe-shape45" class="paint-section" fill="#fff" d="M 455.0 748.0 L 455.0 753.0 L 454.0 754.0 L 454.0 775.0 L 456.0 772.0 L 456.0 762.0 L 457.0 761.0 L 457.0 751.0 Z M 430.0 747.0 L 428.0 748.0 L 427.0 750.0 L 427.0 767.0 L 428.0 768.0 L 428.0 771.0 L 432.0 776.0 L 438.0 776.0 L 441.0 773.0 L 445.0 766.0 L 446.0 758.0 L 445.0 757.0 L 444.0 753.0 L 438.0 748.0 L 436.0 748.0 L 435.0 747.0 Z M 416.0 745.0 L 415.0 746.0 L 415.0 772.0 L 417.0 775.0 L 417.0 757.0 L 416.0 756.0 Z"/>
  <path id="giraffe-shape46" class="paint-section" fill="#fff" d="M 252.0 694.0 L 250.0 696.0 L 250.0 699.0 L 247.0 704.0 L 247.0 706.0 L 244.0 712.0 L 243.0 717.0 L 239.0 720.0 L 234.0 720.0 L 233.0 719.0 L 231.0 719.0 L 233.0 721.0 L 236.0 721.0 L 239.0 723.0 L 239.0 725.0 L 236.0 730.0 L 236.0 732.0 L 233.0 735.0 L 230.0 741.0 L 230.0 746.0 L 231.0 746.0 L 231.0 745.0 L 235.0 740.0 L 237.0 739.0 L 240.0 741.0 L 240.0 751.0 L 239.0 752.0 L 239.0 755.0 L 240.0 756.0 L 242.0 756.0 L 242.0 747.0 L 252.0 742.0 L 252.0 741.0 L 257.0 734.0 L 258.0 728.0 L 259.0 727.0 L 259.0 722.0 L 258.0 721.0 L 257.0 714.0 L 256.0 713.0 L 256.0 711.0 L 255.0 710.0 L 255.0 708.0 L 254.0 707.0 L 254.0 705.0 L 252.0 701.0 L 252.0 699.0 L 253.0 698.0 L 253.0 695.0 Z"/>
  <path id="giraffe-shape47" class="paint-section" fill="#fff" d="M 335.0 491.0 L 331.0 490.0 L 321.0 500.0 L 320.0 500.0 L 316.0 503.0 L 312.0 501.0 L 310.0 501.0 L 309.0 500.0 L 306.0 500.0 L 305.0 502.0 L 311.0 504.0 L 312.0 505.0 L 312.0 508.0 L 309.0 511.0 L 308.0 511.0 L 305.0 514.0 L 302.0 515.0 L 295.0 521.0 L 287.0 525.0 L 287.0 528.0 L 288.0 529.0 L 296.0 524.0 L 298.0 525.0 L 304.0 531.0 L 310.0 531.0 L 314.0 529.0 L 319.0 524.0 L 320.0 524.0 L 320.0 523.0 L 323.0 520.0 L 328.0 510.0 L 328.0 507.0 L 329.0 506.0 L 329.0 503.0 L 330.0 502.0 L 330.0 495.0 Z"/>
  <path id="giraffe-shape48" class="paint-section" fill="#fff" d="M 460.0 156.0 L 460.0 165.0 L 457.0 167.0 L 451.0 167.0 L 450.0 168.0 L 448.0 168.0 L 444.0 172.0 L 442.0 176.0 L 442.0 184.0 L 443.0 185.0 L 443.0 198.0 L 437.0 201.0 L 437.0 202.0 L 439.0 203.0 L 441.0 203.0 L 445.0 200.0 L 446.0 200.0 L 455.0 191.0 L 455.0 189.0 L 460.0 179.0 L 461.0 171.0 L 462.0 170.0 L 462.0 163.0 L 461.0 162.0 L 461.0 157.0 Z"/>
  <path id="giraffe-shape49" class="paint-section" fill="#fff" d="M 687.0 578.0 L 684.0 578.0 L 680.0 576.0 L 675.0 572.0 L 663.0 574.0 L 662.0 573.0 L 659.0 573.0 L 655.0 570.0 L 649.0 570.0 L 647.0 571.0 L 646.0 574.0 L 649.0 572.0 L 652.0 572.0 L 655.0 574.0 L 655.0 580.0 L 654.0 581.0 L 654.0 583.0 L 652.0 587.0 L 650.0 588.0 L 648.0 587.0 L 643.0 582.0 L 643.0 584.0 L 642.0 585.0 L 642.0 587.0 L 645.0 588.0 L 648.0 591.0 L 651.0 597.0 L 651.0 600.0 L 652.0 601.0 L 652.0 604.0 L 653.0 605.0 L 653.0 613.0 L 656.0 613.0 L 657.0 614.0 L 658.0 613.0 L 658.0 608.0 L 659.0 607.0 L 659.0 605.0 L 662.0 600.0 L 662.0 598.0 L 666.0 594.0 L 670.0 592.0 L 673.0 592.0 L 678.0 589.0 L 681.0 589.0 L 685.0 586.0 L 685.0 585.0 L 681.0 586.0 L 679.0 588.0 L 674.0 590.0 L 671.0 588.0 L 671.0 585.0 L 673.0 583.0 L 673.0 582.0 L 678.0 578.0 L 684.0 579.0 L 686.0 580.0 L 687.0 582.0 Z"/>
  <path id="giraffe-shape50" class="paint-section" fill="#fff" d="M 477.0 282.0 L 476.0 283.0 L 476.0 313.0 L 473.0 316.0 L 468.0 318.0 L 467.0 320.0 L 468.0 320.0 L 472.0 317.0 L 476.0 319.0 L 476.0 338.0 L 474.0 339.0 L 479.0 342.0 L 479.0 336.0 L 482.0 334.0 L 485.0 336.0 L 486.0 338.0 L 486.0 342.0 L 488.0 342.0 L 489.0 334.0 L 490.0 333.0 L 490.0 330.0 L 491.0 329.0 L 491.0 324.0 L 492.0 323.0 L 492.0 312.0 L 491.0 311.0 L 491.0 308.0 L 489.0 304.0 L 489.0 302.0 L 491.0 298.0 L 491.0 294.0 L 492.0 293.0 L 492.0 285.0 L 489.0 283.0 L 489.0 291.0 L 485.0 293.0 L 483.0 292.0 L 479.0 286.0 L 479.0 282.0 Z"/>
  <path id="giraffe-shape51" class="paint-section" fill="#fff" d="M 475.0 250.0 L 475.0 262.0 L 476.0 263.0 L 476.0 269.0 L 473.0 271.0 L 467.0 268.0 L 467.0 269.0 L 469.0 270.0 L 476.0 277.0 L 476.0 302.0 L 479.0 303.0 L 479.0 295.0 L 482.0 293.0 L 485.0 295.0 L 487.0 299.0 L 487.0 302.0 L 488.0 304.0 L 489.0 304.0 L 489.0 302.0 L 491.0 298.0 L 491.0 294.0 L 492.0 293.0 L 492.0 280.0 L 491.0 279.0 L 491.0 276.0 L 489.0 272.0 L 489.0 268.0 L 491.0 264.0 L 491.0 251.0 L 488.0 250.0 L 488.0 253.0 L 489.0 254.0 L 489.0 259.0 L 486.0 261.0 L 482.0 258.0 L 482.0 257.0 L 479.0 253.0 L 478.0 249.0 Z"/>
  <image class="giraffe-art" href="giraffe-art.png" xlink:href="giraffe-art.png"
    x="0" y="0" width="771" height="1024" pointer-events="none"/>
</svg>
