<svg xmlns="http://www.w3.org/2000/svg" viewBox="0 0 400 400" aria-label="House">
  <!-- Back → front paint order -->

  <circle id="sun" class="paint-section" cx="338" cy="54" r="26" fill="#fff" stroke="#111" stroke-width="3.5"/>

  <path id="yard" class="paint-section" fill="#fff" stroke="#111" stroke-width="3.5" stroke-linejoin="round"
    d="M 16 300 L 384 300 L 384 388 Q 384 396 376 396 L 24 396 Q 16 396 16 388 Z"/>

  <path id="path" class="paint-section" fill="#fff" stroke="#111" stroke-width="3.5" stroke-linejoin="round"
    d="M 178 396 L 178 300 L 222 300 L 222 396 Z"/>

  <rect id="houseWall" class="paint-section" x="114" y="196" width="172" height="104" fill="#fff" stroke="#111" stroke-width="3.5"/>

  <path id="roof" class="paint-section" fill="#fff" stroke="#111" stroke-width="3.5" stroke-linejoin="round"
    d="M 98 196 L 200 86 L 302 196 L 290 196 L 200 106 L 110 196 Z"/>

  <path id="chimney" class="paint-section" fill="#fff" stroke="#111" stroke-width="3.5" stroke-linejoin="round"
    d="M 250 116 L 250 70 L 282 70 L 282 116 Z"/>

  <circle id="smoke" class="paint-section" cx="266" cy="48" r="14" fill="#fff" stroke="#111" stroke-width="3.5"/>

  <rect id="windowLeft" class="paint-section" x="130" y="216" width="42" height="42" rx="2" fill="#fff" stroke="#111" stroke-width="3.5"/>
  <rect id="windowRight" class="paint-section" x="228" y="216" width="42" height="42" rx="2" fill="#fff" stroke="#111" stroke-width="3.5"/>

  <path id="door" class="paint-section" fill="#fff" stroke="#111" stroke-width="3.5" stroke-linejoin="round"
    d="M 170 300 L 170 246 Q 170 216 200 216 Q 230 216 230 246 L 230 300 Z"/>

  <path id="treeTrunk" class="paint-section" fill="#fff" stroke="#111" stroke-width="3.5" stroke-linejoin="round"
    d="M 64 266 L 64 300 Q 64 310 82 310 L 96 310 Q 114 310 114 300 L 114 266 Q 114 250 88 250 Q 64 250 64 266 Z"/>

  <circle id="treeFoliage1" class="paint-section" cx="74" cy="196" r="50" fill="#fff" stroke="#111" stroke-width="3.5"/>
  <circle id="treeFoliage2" class="paint-section" cx="116" cy="210" r="38" fill="#fff" stroke="#111" stroke-width="3.5"/>

  <!-- Flower 1 -->
  <path id="flower1Stem" class="paint-section" fill="#fff" stroke="#111" stroke-width="3.5" stroke-linejoin="round"
    d="M 144 300 L 144 336 Q 144 342 150 342 L 154 342 Q 160 342 160 336 L 160 300 Z"/>
  <ellipse id="flower1Petal1" class="paint-section" cx="152" cy="316" rx="8" ry="13" fill="#fff" stroke="#111" stroke-width="3.5"/>
  <ellipse id="flower1Petal2" class="paint-section" cx="168" cy="330" rx="8" ry="13" fill="#fff" stroke="#111" stroke-width="3.5" transform="rotate(90 168 330)"/>
  <ellipse id="flower1Petal3" class="paint-section" cx="152" cy="346" rx="8" ry="13" fill="#fff" stroke="#111" stroke-width="3.5" transform="rotate(180 152 346)"/>
  <ellipse id="flower1Petal4" class="paint-section" cx="136" cy="330" rx="8" ry="13" fill="#fff" stroke="#111" stroke-width="3.5" transform="rotate(270 136 330)"/>
  <circle id="flower1Center" class="paint-section" cx="152" cy="332" r="8" fill="#fff" stroke="#111" stroke-width="3.5"/>

  <!-- Flower 2 -->
  <path id="flower2Stem" class="paint-section" fill="#fff" stroke="#111" stroke-width="3.5" stroke-linejoin="round"
    d="M 252 300 L 252 338 Q 252 344 258 344 L 262 344 Q 268 344 268 338 L 268 300 Z"/>
  <ellipse id="flower2Petal1" class="paint-section" cx="260" cy="318" rx="8" ry="13" fill="#fff" stroke="#111" stroke-width="3.5"/>
  <ellipse id="flower2Petal2" class="paint-section" cx="276" cy="332" rx="8" ry="13" fill="#fff" stroke="#111" stroke-width="3.5" transform="rotate(90 276 332)"/>
  <ellipse id="flower2Petal3" class="paint-section" cx="260" cy="348" rx="8" ry="13" fill="#fff" stroke="#111" stroke-width="3.5" transform="rotate(180 260 348)"/>
  <ellipse id="flower2Petal4" class="paint-section" cx="244" cy="332" rx="8" ry="13" fill="#fff" stroke="#111" stroke-width="3.5" transform="rotate(270 244 332)"/>
  <circle id="flower2Center" class="paint-section" cx="260" cy="334" r="8" fill="#fff" stroke="#111" stroke-width="3.5"/>

  <!-- Flower 3 -->
  <path id="flower3Stem" class="paint-section" fill="#fff" stroke="#111" stroke-width="3.5" stroke-linejoin="round"
    d="M 322 300 L 322 340 Q 322 346 328 346 L 332 346 Q 338 346 338 340 L 338 300 Z"/>
  <ellipse id="flower3Petal1" class="paint-section" cx="330" cy="320" rx="8" ry="13" fill="#fff" stroke="#111" stroke-width="3.5"/>
  <ellipse id="flower3Petal2" class="paint-section" cx="346" cy="334" rx="8" ry="13" fill="#fff" stroke="#111" stroke-width="3.5" transform="rotate(90 346 334)"/>
  <ellipse id="flower3Petal3" class="paint-section" cx="330" cy="350" rx="8" ry="13" fill="#fff" stroke="#111" stroke-width="3.5" transform="rotate(180 330 350)"/>
  <ellipse id="flower3Petal4" class="paint-section" cx="314" cy="334" rx="8" ry="13" fill="#fff" stroke="#111" stroke-width="3.5" transform="rotate(270 314 334)"/>
  <circle id="flower3Center" class="paint-section" cx="330" cy="336" r="8" fill="#fff" stroke="#111" stroke-width="3.5"/>

  <!-- Flower 4 (small, right yard) -->
  <path id="flower4Stem" class="paint-section" fill="#fff" stroke="#111" stroke-width="3.5" stroke-linejoin="round"
    d="M 368 300 L 368 332 Q 368 338 374 338 L 376 338 Q 382 338 382 332 L 382 300 Z"/>
  <ellipse id="flower4Petal1" class="paint-section" cx="375" cy="314" rx="7" ry="11" fill="#fff" stroke="#111" stroke-width="3.5"/>
  <ellipse id="flower4Petal2" class="paint-section" cx="388" cy="324" rx="7" ry="11" fill="#fff" stroke="#111" stroke-width="3.5" transform="rotate(90 388 324)"/>
  <ellipse id="flower4Petal3" class="paint-section" cx="375" cy="336" rx="7" ry="11" fill="#fff" stroke="#111" stroke-width="3.5" transform="rotate(180 375 336)"/>
  <ellipse id="flower4Petal4" class="paint-section" cx="362" cy="324" rx="7" ry="11" fill="#fff" stroke="#111" stroke-width="3.5" transform="rotate(270 362 324)"/>
  <circle id="flower4Center" class="paint-section" cx="375" cy="326" r="7" fill="#fff" stroke="#111" stroke-width="3.5"/>

  <g class="decor-line" fill="none" stroke="#111" stroke-width="2.5" stroke-linecap="round">
    <!-- Sun rays -->
    <line x1="338" y1="16" x2="338" y2="6"/>
    <line x1="338" y1="92" x2="338" y2="102"/>
    <line x1="300" y1="54" x2="290" y2="54"/>
    <line x1="376" y1="54" x2="386" y2="54"/>
    <line x1="311" y1="27" x2="304" y2="20"/>
    <line x1="365" y1="81" x2="372" y2="88"/>
    <line x1="311" y1="81" x2="304" y2="88"/>
    <line x1="365" y1="27" x2="372" y2="20"/>
    <!-- Extra smoke puffs -->
    <circle cx="288" cy="40" r="7" fill="#fff" stroke="#111" stroke-width="2.5"/>
    <circle cx="302" cy="26" r="5" fill="#fff" stroke="#111" stroke-width="2.5"/>
    <!-- Roof shingles -->
    <line x1="120" y1="176" x2="280" y2="176"/>
    <line x1="130" y1="160" x2="270" y2="160"/>
    <line x1="142" y1="144" x2="258" y2="144"/>
    <!-- Round attic window -->
    <circle cx="200" cy="156" r="13"/>
    <line x1="200" y1="143" x2="200" y2="169"/>
    <line x1="187" y1="156" x2="213" y2="156"/>
    <!-- Window crosses -->
    <line x1="151" y1="216" x2="151" y2="258"/>
    <line x1="130" y1="237" x2="172" y2="237"/>
    <line x1="249" y1="216" x2="249" y2="258"/>
    <line x1="228" y1="237" x2="270" y2="237"/>
    <!-- Tree branch hint -->
    <path d="M 92 248 L 108 228"/>
    <!-- Flower leaves -->
    <ellipse cx="136" cy="322" rx="9" ry="5" transform="rotate(-30 136 322)"/>
    <ellipse cx="246" cy="324" rx="9" ry="5" transform="rotate(25 246 324)"/>
    <ellipse cx="314" cy="326" rx="9" ry="5" transform="rotate(-20 314 326)"/>
    <ellipse cx="360" cy="318" rx="8" ry="4" transform="rotate(20 360 318)"/>
    <!-- Bush by house -->
    <path d="M 294 300 Q 276 276 294 260 Q 312 244 330 260 Q 348 276 330 300 Q 312 316 294 300 Z"/>
    <!-- Door details -->
    <circle cx="218" cy="266" r="4" fill="#111"/>
    <path d="M 186 276 Q 200 290 214 276"/>
  </g>
</svg>
