<svg xmlns="http://www.w3.org/2000/svg" xmlns:xlink="http://www.w3.org/1999/xlink" viewBox="0 0 562 334" aria-label="Turtle">
  <path id="turtle-shape01" class="paint-section" fill="#fff" d="M 47.0 47.0 L 44.0 53.0 L 44.0 57.0 L 43.0 58.0 L 43.0 63.0 L 42.0 64.0 L 41.0 74.0 L 40.0 75.0 L 40.0 83.0 L 44.0 88.0 L 44.0 91.0 L 45.0 92.0 L 45.0 97.0 L 46.0 98.0 L 46.0 101.0 L 47.0 102.0 L 48.0 107.0 L 52.0 114.0 L 52.0 116.0 L 56.0 121.0 L 57.0 124.0 L 69.0 137.0 L 70.0 137.0 L 76.0 142.0 L 92.0 150.0 L 105.0 162.0 L 105.0 163.0 L 110.0 168.0 L 110.0 169.0 L 119.0 178.0 L 119.0 180.0 L 118.0 181.0 L 114.0 182.0 L 114.0 183.0 L 116.0 185.0 L 117.0 185.0 L 119.0 187.0 L 126.0 187.0 L 129.0 189.0 L 129.0 193.0 L 132.0 195.0 L 134.0 195.0 L 134.0 191.0 L 138.0 189.0 L 140.0 190.0 L 144.0 194.0 L 144.0 195.0 L 147.0 198.0 L 147.0 199.0 L 151.0 201.0 L 154.0 200.0 L 154.0 199.0 L 152.0 198.0 L 152.0 196.0 L 155.0 194.0 L 156.0 195.0 L 162.0 195.0 L 165.0 197.0 L 165.0 201.0 L 162.0 207.0 L 162.0 211.0 L 161.0 212.0 L 161.0 214.0 L 158.0 216.0 L 155.0 214.0 L 153.0 214.0 L 153.0 219.0 L 158.0 221.0 L 160.0 223.0 L 160.0 238.0 L 155.0 242.0 L 129.0 242.0 L 128.0 243.0 L 123.0 243.0 L 122.0 244.0 L 120.0 244.0 L 119.0 246.0 L 119.0 250.0 L 120.0 251.0 L 116.0 256.0 L 116.0 260.0 L 117.0 261.0 L 116.0 262.0 L 116.0 264.0 L 118.0 267.0 L 118.0 269.0 L 120.0 271.0 L 120.0 273.0 L 123.0 276.0 L 125.0 276.0 L 129.0 279.0 L 132.0 279.0 L 133.0 280.0 L 134.0 279.0 L 138.0 282.0 L 142.0 279.0 L 148.0 276.0 L 150.0 276.0 L 153.0 274.0 L 156.0 276.0 L 156.0 278.0 L 158.0 280.0 L 160.0 280.0 L 161.0 279.0 L 168.0 279.0 L 169.0 278.0 L 173.0 278.0 L 174.0 277.0 L 177.0 277.0 L 178.0 276.0 L 183.0 275.0 L 192.0 270.0 L 200.0 262.0 L 200.0 261.0 L 205.0 254.0 L 205.0 252.0 L 206.0 251.0 L 206.0 249.0 L 207.0 248.0 L 207.0 246.0 L 208.0 245.0 L 209.0 241.0 L 212.0 239.0 L 215.0 239.0 L 217.0 240.0 L 217.0 236.0 L 218.0 235.0 L 216.0 235.0 L 211.0 232.0 L 211.0 230.0 L 213.0 228.0 L 215.0 227.0 L 218.0 227.0 L 219.0 228.0 L 229.0 229.0 L 230.0 230.0 L 237.0 230.0 L 238.0 231.0 L 251.0 231.0 L 252.0 230.0 L 256.0 230.0 L 257.0 229.0 L 259.0 229.0 L 266.0 225.0 L 269.0 222.0 L 271.0 218.0 L 271.0 216.0 L 272.0 215.0 L 272.0 204.0 L 271.0 203.0 L 271.0 199.0 L 274.0 197.0 L 277.0 197.0 L 277.0 195.0 L 275.0 191.0 L 272.0 188.0 L 270.0 188.0 L 269.0 189.0 L 266.0 188.0 L 264.0 186.0 L 260.0 184.0 L 257.0 181.0 L 243.0 174.0 L 241.0 171.0 L 241.0 168.0 L 242.0 167.0 L 241.0 165.0 L 239.0 166.0 L 239.0 169.0 L 235.0 171.0 L 234.0 170.0 L 226.0 168.0 L 223.0 166.0 L 221.0 166.0 L 218.0 164.0 L 213.0 163.0 L 206.0 159.0 L 202.0 158.0 L 199.0 155.0 L 199.0 152.0 L 201.0 149.0 L 200.0 148.0 L 199.0 148.0 L 198.0 150.0 L 195.0 152.0 L 190.0 150.0 L 179.0 138.0 L 178.0 135.0 L 176.0 133.0 L 173.0 127.0 L 173.0 124.0 L 176.0 121.0 L 177.0 121.0 L 176.0 120.0 L 173.0 120.0 L 172.0 121.0 L 170.0 120.0 L 166.0 115.0 L 165.0 115.0 L 161.0 111.0 L 159.0 110.0 L 159.0 107.0 L 161.0 105.0 L 165.0 104.0 L 165.0 98.0 L 161.0 100.0 L 158.0 98.0 L 158.0 94.0 L 157.0 93.0 L 157.0 91.0 L 152.0 82.0 L 147.0 77.0 L 147.0 76.0 L 145.0 74.0 L 144.0 74.0 L 142.0 72.0 L 142.0 71.0 L 141.0 71.0 L 137.0 67.0 L 136.0 67.0 L 126.0 59.0 L 121.0 57.0 L 119.0 55.0 L 107.0 49.0 L 105.0 49.0 L 99.0 46.0 L 97.0 46.0 L 93.0 44.0 L 90.0 44.0 L 89.0 43.0 L 82.0 43.0 L 81.0 42.0 L 68.0 42.0 L 67.0 41.0 L 65.0 41.0 L 64.0 42.0 L 57.0 42.0 L 56.0 43.0 L 53.0 43.0 L 49.0 45.0 Z"/>
  <path id="turtle-shape02" class="paint-section" fill="#fff" d="M 299.0 92.0 L 298.0 92.0 L 298.0 116.0 L 297.0 117.0 L 297.0 123.0 L 298.0 123.0 L 299.0 121.0 Z M 296.0 57.0 L 295.0 59.0 L 302.0 67.0 L 302.0 69.0 L 304.0 73.0 L 304.0 78.0 L 305.0 79.0 L 305.0 92.0 L 306.0 93.0 L 306.0 105.0 L 305.0 106.0 L 305.0 123.0 L 304.0 124.0 L 304.0 134.0 L 303.0 135.0 L 303.0 140.0 L 302.0 141.0 L 302.0 144.0 L 300.0 148.0 L 296.0 152.0 L 295.0 152.0 L 296.0 154.0 L 298.0 154.0 L 303.0 150.0 L 305.0 151.0 L 311.0 158.0 L 317.0 161.0 L 319.0 163.0 L 321.0 163.0 L 324.0 165.0 L 324.0 167.0 L 325.0 168.0 L 324.0 174.0 L 326.0 175.0 L 327.0 173.0 L 327.0 168.0 L 330.0 166.0 L 333.0 166.0 L 334.0 167.0 L 338.0 167.0 L 339.0 168.0 L 345.0 168.0 L 346.0 169.0 L 372.0 170.0 L 375.0 172.0 L 375.0 179.0 L 377.0 179.0 L 377.0 171.0 L 380.0 169.0 L 383.0 169.0 L 384.0 168.0 L 389.0 168.0 L 390.0 167.0 L 395.0 166.0 L 401.0 162.0 L 407.0 165.0 L 409.0 165.0 L 409.0 163.0 L 408.0 163.0 L 405.0 160.0 L 403.0 156.0 L 403.0 154.0 L 402.0 153.0 L 402.0 150.0 L 401.0 149.0 L 401.0 141.0 L 400.0 140.0 L 400.0 135.0 L 399.0 134.0 L 399.0 129.0 L 398.0 128.0 L 398.0 124.0 L 397.0 123.0 L 397.0 120.0 L 396.0 119.0 L 396.0 116.0 L 395.0 115.0 L 394.0 106.0 L 393.0 105.0 L 392.0 99.0 L 390.0 95.0 L 389.0 88.0 L 388.0 87.0 L 388.0 85.0 L 387.0 84.0 L 387.0 82.0 L 386.0 81.0 L 384.0 73.0 L 382.0 70.0 L 382.0 68.0 L 383.0 67.0 L 390.0 65.0 L 389.0 63.0 L 387.0 64.0 L 382.0 64.0 L 381.0 65.0 L 379.0 65.0 L 375.0 63.0 L 372.0 60.0 L 368.0 58.0 L 366.0 58.0 L 365.0 57.0 L 361.0 56.0 L 359.0 54.0 L 359.0 51.0 L 360.0 50.0 L 360.0 48.0 L 362.0 47.0 L 358.0 45.0 L 358.0 48.0 L 357.0 50.0 L 352.0 54.0 L 347.0 54.0 L 346.0 53.0 L 334.0 53.0 L 333.0 54.0 L 325.0 54.0 L 324.0 55.0 L 317.0 56.0 L 305.0 62.0 L 301.0 61.0 Z"/>
  <path id="turtle-shape03" class="paint-section" fill="#fff" d="M 275.0 42.0 L 274.0 43.0 L 267.0 43.0 L 266.0 44.0 L 258.0 45.0 L 244.0 52.0 L 242.0 54.0 L 239.0 55.0 L 238.0 56.0 L 238.0 58.0 L 244.0 55.0 L 246.0 55.0 L 251.0 52.0 L 253.0 52.0 L 254.0 51.0 L 256.0 51.0 L 260.0 49.0 L 264.0 51.0 L 264.0 53.0 L 263.0 54.0 L 259.0 55.0 L 251.0 59.0 L 246.0 63.0 L 240.0 66.0 L 233.0 72.0 L 232.0 72.0 L 219.0 85.0 L 219.0 86.0 L 215.0 91.0 L 215.0 93.0 L 213.0 97.0 L 213.0 100.0 L 210.0 102.0 L 205.0 99.0 L 203.0 99.0 L 203.0 101.0 L 204.0 102.0 L 208.0 103.0 L 210.0 105.0 L 210.0 107.0 L 208.0 109.0 L 205.0 110.0 L 204.0 112.0 L 205.0 113.0 L 206.0 112.0 L 208.0 112.0 L 212.0 109.0 L 214.0 110.0 L 222.0 124.0 L 222.0 128.0 L 220.0 132.0 L 218.0 134.0 L 220.0 136.0 L 222.0 134.0 L 222.0 133.0 L 226.0 130.0 L 228.0 131.0 L 237.0 140.0 L 238.0 140.0 L 241.0 143.0 L 244.0 144.0 L 246.0 146.0 L 246.0 152.0 L 244.0 155.0 L 245.0 156.0 L 247.0 156.0 L 248.0 150.0 L 251.0 148.0 L 252.0 149.0 L 257.0 150.0 L 263.0 153.0 L 271.0 154.0 L 272.0 155.0 L 275.0 155.0 L 278.0 157.0 L 277.0 165.0 L 279.0 165.0 L 280.0 163.0 L 280.0 158.0 L 283.0 156.0 L 293.0 156.0 L 294.0 155.0 L 298.0 154.0 L 303.0 150.0 L 305.0 151.0 L 309.0 156.0 L 310.0 155.0 L 310.0 153.0 L 306.0 148.0 L 306.0 144.0 L 305.0 143.0 L 305.0 138.0 L 306.0 137.0 L 306.0 128.0 L 307.0 127.0 L 307.0 116.0 L 308.0 115.0 L 308.0 85.0 L 307.0 84.0 L 307.0 77.0 L 306.0 76.0 L 306.0 72.0 L 305.0 71.0 L 305.0 65.0 L 309.0 62.0 L 312.0 61.0 L 312.0 60.0 L 310.0 59.0 L 305.0 62.0 L 303.0 62.0 L 298.0 58.0 L 291.0 54.0 L 289.0 54.0 L 288.0 53.0 L 284.0 53.0 L 283.0 52.0 L 277.0 52.0 L 276.0 51.0 L 274.0 51.0 L 271.0 49.0 L 271.0 47.0 L 274.0 45.0 L 278.0 45.0 L 279.0 44.0 L 281.0 44.0 L 278.0 42.0 Z"/>
  <path id="turtle-shape04" class="paint-section" fill="#fff" d="M 204.0 238.0 L 204.0 242.0 L 207.0 244.0 L 208.0 244.0 L 210.0 240.0 L 212.0 239.0 L 215.0 239.0 L 216.0 240.0 L 222.0 241.0 L 223.0 242.0 L 226.0 242.0 L 227.0 243.0 L 231.0 243.0 L 232.0 244.0 L 236.0 244.0 L 237.0 245.0 L 241.0 245.0 L 242.0 246.0 L 246.0 246.0 L 247.0 247.0 L 252.0 247.0 L 253.0 248.0 L 260.0 248.0 L 261.0 249.0 L 268.0 249.0 L 269.0 250.0 L 276.0 250.0 L 277.0 251.0 L 285.0 251.0 L 286.0 252.0 L 296.0 252.0 L 297.0 253.0 L 314.0 253.0 L 315.0 254.0 L 377.0 254.0 L 378.0 253.0 L 393.0 253.0 L 394.0 252.0 L 403.0 252.0 L 404.0 251.0 L 410.0 251.0 L 411.0 250.0 L 422.0 249.0 L 423.0 248.0 L 427.0 248.0 L 428.0 247.0 L 431.0 247.0 L 432.0 246.0 L 435.0 246.0 L 437.0 245.0 L 437.0 237.0 L 434.0 232.0 L 432.0 231.0 L 428.0 231.0 L 425.0 233.0 L 415.0 232.0 L 414.0 231.0 L 411.0 231.0 L 403.0 227.0 L 399.0 224.0 L 399.0 223.0 L 396.0 220.0 L 395.0 214.0 L 396.0 212.0 L 399.0 210.0 L 401.0 210.0 L 402.0 211.0 L 402.0 208.0 L 400.0 205.0 L 397.0 205.0 L 396.0 206.0 L 387.0 206.0 L 386.0 207.0 L 380.0 206.0 L 375.0 202.0 L 374.0 200.0 L 374.0 196.0 L 372.0 195.0 L 371.0 196.0 L 371.0 199.0 L 368.0 201.0 L 360.0 201.0 L 358.0 200.0 L 357.0 201.0 L 346.0 201.0 L 345.0 202.0 L 340.0 202.0 L 339.0 203.0 L 332.0 203.0 L 326.0 199.0 L 324.0 195.0 L 324.0 192.0 L 321.0 191.0 L 321.0 195.0 L 318.0 197.0 L 314.0 196.0 L 313.0 195.0 L 309.0 195.0 L 308.0 194.0 L 285.0 194.0 L 284.0 193.0 L 280.0 193.0 L 278.0 192.0 L 275.0 189.0 L 274.0 185.0 L 269.0 189.0 L 265.0 188.0 L 261.0 192.0 L 263.0 196.0 L 265.0 198.0 L 265.0 200.0 L 267.0 204.0 L 267.0 215.0 L 266.0 217.0 L 260.0 223.0 L 256.0 225.0 L 252.0 225.0 L 251.0 226.0 L 237.0 226.0 L 236.0 225.0 L 229.0 225.0 L 228.0 224.0 L 224.0 224.0 L 223.0 223.0 L 220.0 223.0 L 217.0 221.0 L 217.0 218.0 L 219.0 216.0 L 215.0 215.0 L 214.0 216.0 L 212.0 216.0 L 212.0 217.0 L 209.0 221.0 L 209.0 223.0 L 206.0 229.0 L 205.0 237.0 Z"/>
  <path id="turtle-shape05" class="paint-section" fill="#fff" d="M 379.0 89.0 L 379.0 92.0 L 380.0 93.0 L 380.0 95.0 L 382.0 99.0 L 383.0 107.0 L 384.0 108.0 L 384.0 111.0 L 385.0 112.0 L 385.0 115.0 L 386.0 116.0 L 387.0 123.0 L 389.0 124.0 L 388.0 122.0 L 387.0 114.0 L 385.0 110.0 L 385.0 106.0 L 384.0 105.0 L 384.0 102.0 L 383.0 101.0 L 382.0 94.0 L 381.0 93.0 L 380.0 89.0 Z M 373.0 61.0 L 371.0 63.0 L 372.0 63.0 L 377.0 67.0 L 377.0 68.0 L 380.0 71.0 L 382.0 75.0 L 382.0 77.0 L 383.0 78.0 L 383.0 80.0 L 384.0 81.0 L 384.0 83.0 L 385.0 84.0 L 385.0 86.0 L 386.0 87.0 L 386.0 89.0 L 388.0 93.0 L 388.0 96.0 L 389.0 97.0 L 390.0 104.0 L 391.0 105.0 L 392.0 111.0 L 393.0 112.0 L 393.0 116.0 L 394.0 117.0 L 395.0 126.0 L 396.0 127.0 L 396.0 130.0 L 397.0 131.0 L 398.0 143.0 L 399.0 144.0 L 399.0 158.0 L 398.0 160.0 L 395.0 163.0 L 394.0 163.0 L 394.0 165.0 L 395.0 166.0 L 399.0 163.0 L 402.0 162.0 L 409.0 166.0 L 411.0 166.0 L 412.0 167.0 L 417.0 167.0 L 422.0 171.0 L 422.0 173.0 L 423.0 174.0 L 424.0 178.0 L 426.0 178.0 L 425.0 170.0 L 428.0 168.0 L 439.0 168.0 L 440.0 167.0 L 448.0 166.0 L 449.0 165.0 L 451.0 165.0 L 455.0 163.0 L 457.0 164.0 L 459.0 166.0 L 459.0 168.0 L 461.0 169.0 L 462.0 168.0 L 461.0 166.0 L 461.0 163.0 L 464.0 161.0 L 467.0 162.0 L 468.0 160.0 L 467.0 159.0 L 463.0 158.0 L 459.0 154.0 L 458.0 152.0 L 457.0 136.0 L 456.0 135.0 L 455.0 126.0 L 454.0 125.0 L 453.0 117.0 L 452.0 116.0 L 452.0 114.0 L 455.0 112.0 L 456.0 113.0 L 459.0 111.0 L 459.0 106.0 L 457.0 102.0 L 454.0 99.0 L 453.0 96.0 L 450.0 93.0 L 450.0 92.0 L 447.0 89.0 L 447.0 88.0 L 434.0 74.0 L 433.0 74.0 L 423.0 65.0 L 402.0 53.0 L 395.0 53.0 L 392.0 55.0 L 397.0 56.0 L 401.0 59.0 L 401.0 61.0 L 398.0 63.0 L 388.0 63.0 L 387.0 64.0 L 382.0 64.0 L 381.0 65.0 L 379.0 65.0 L 375.0 63.0 Z"/>
  <path id="turtle-shape06" class="paint-section" fill="#fff" d="M 418.0 209.0 L 416.0 213.0 L 422.0 214.0 L 426.0 217.0 L 426.0 219.0 L 424.0 221.0 L 424.0 222.0 L 425.0 223.0 L 425.0 225.0 L 428.0 229.0 L 428.0 231.0 L 425.0 233.0 L 423.0 233.0 L 423.0 234.0 L 435.0 245.0 L 438.0 245.0 L 439.0 244.0 L 442.0 246.0 L 442.0 248.0 L 439.0 252.0 L 437.0 256.0 L 437.0 258.0 L 436.0 259.0 L 436.0 270.0 L 440.0 272.0 L 442.0 271.0 L 447.0 275.0 L 450.0 275.0 L 451.0 274.0 L 453.0 275.0 L 455.0 277.0 L 456.0 281.0 L 458.0 284.0 L 460.0 284.0 L 461.0 285.0 L 462.0 284.0 L 466.0 284.0 L 468.0 282.0 L 468.0 276.0 L 471.0 274.0 L 474.0 276.0 L 474.0 277.0 L 479.0 284.0 L 480.0 284.0 L 482.0 286.0 L 487.0 287.0 L 490.0 283.0 L 490.0 275.0 L 493.0 273.0 L 496.0 273.0 L 497.0 272.0 L 500.0 272.0 L 503.0 270.0 L 505.0 270.0 L 510.0 266.0 L 513.0 260.0 L 513.0 253.0 L 512.0 252.0 L 512.0 250.0 L 511.0 249.0 L 511.0 247.0 L 509.0 243.0 L 506.0 240.0 L 506.0 238.0 L 509.0 236.0 L 513.0 238.0 L 513.0 236.0 L 509.0 232.0 L 509.0 231.0 L 507.0 231.0 L 506.0 230.0 L 501.0 230.0 L 497.0 228.0 L 490.0 221.0 L 490.0 218.0 L 493.0 216.0 L 495.0 216.0 L 491.0 211.0 L 490.0 212.0 L 486.0 212.0 L 485.0 211.0 L 477.0 210.0 L 473.0 207.0 L 473.0 202.0 L 471.0 201.0 L 471.0 206.0 L 468.0 208.0 L 466.0 207.0 L 449.0 207.0 L 448.0 208.0 L 444.0 208.0 L 443.0 209.0 L 439.0 209.0 L 438.0 210.0 L 429.0 210.0 L 425.0 207.0 L 425.0 204.0 L 423.0 205.0 L 421.0 208.0 Z"/>
  <path id="turtle-shape07" class="paint-section" fill="#fff" d="M 365.0 168.0 L 365.0 170.0 L 372.0 170.0 L 375.0 172.0 L 375.0 178.0 L 374.0 179.0 L 374.0 183.0 L 373.0 184.0 L 373.0 188.0 L 372.0 189.0 L 372.0 195.0 L 371.0 196.0 L 371.0 199.0 L 368.0 201.0 L 362.0 201.0 L 362.0 203.0 L 364.0 206.0 L 371.0 207.0 L 378.0 211.0 L 382.0 211.0 L 383.0 212.0 L 387.0 212.0 L 388.0 211.0 L 391.0 213.0 L 391.0 218.0 L 395.0 218.0 L 396.0 217.0 L 395.0 216.0 L 395.0 214.0 L 396.0 212.0 L 399.0 210.0 L 401.0 210.0 L 402.0 211.0 L 409.0 211.0 L 410.0 212.0 L 414.0 212.0 L 415.0 213.0 L 422.0 214.0 L 424.0 215.0 L 426.0 217.0 L 426.0 218.0 L 427.0 218.0 L 428.0 216.0 L 432.0 214.0 L 433.0 210.0 L 429.0 210.0 L 425.0 207.0 L 425.0 193.0 L 426.0 192.0 L 426.0 175.0 L 425.0 174.0 L 425.0 170.0 L 428.0 168.0 L 433.0 168.0 L 433.0 166.0 L 423.0 166.0 L 422.0 165.0 L 414.0 165.0 L 413.0 164.0 L 410.0 164.0 L 405.0 160.0 L 403.0 156.0 L 403.0 154.0 L 402.0 153.0 L 402.0 150.0 L 399.0 151.0 L 399.0 158.0 L 395.0 163.0 L 391.0 164.0 L 390.0 165.0 L 387.0 165.0 L 386.0 166.0 L 381.0 166.0 L 380.0 167.0 L 366.0 167.0 Z"/>
  <path id="turtle-shape08" class="paint-section" fill="#fff" d="M 269.0 153.0 L 269.0 154.0 L 277.0 156.0 L 278.0 157.0 L 278.0 161.0 L 277.0 162.0 L 277.0 166.0 L 276.0 167.0 L 276.0 169.0 L 275.0 170.0 L 275.0 172.0 L 273.0 176.0 L 273.0 179.0 L 272.0 180.0 L 272.0 187.0 L 268.0 189.0 L 264.0 186.0 L 262.0 186.0 L 262.0 190.0 L 265.0 196.0 L 267.0 198.0 L 269.0 199.0 L 270.0 198.0 L 271.0 199.0 L 274.0 197.0 L 278.0 197.0 L 279.0 198.0 L 286.0 198.0 L 287.0 199.0 L 308.0 199.0 L 309.0 200.0 L 315.0 201.0 L 324.0 206.0 L 327.0 206.0 L 331.0 202.0 L 327.0 200.0 L 324.0 195.0 L 324.0 185.0 L 325.0 184.0 L 325.0 180.0 L 326.0 179.0 L 327.0 168.0 L 330.0 166.0 L 337.0 167.0 L 337.0 165.0 L 335.0 164.0 L 331.0 164.0 L 330.0 163.0 L 326.0 163.0 L 325.0 162.0 L 323.0 162.0 L 314.0 157.0 L 306.0 148.0 L 305.0 139.0 L 303.0 138.0 L 302.0 144.0 L 300.0 148.0 L 296.0 152.0 L 294.0 153.0 L 291.0 153.0 L 290.0 154.0 L 274.0 153.0 L 273.0 152.0 L 270.0 152.0 Z"/>
  <path id="turtle-shape09" class="paint-section" fill="#fff" d="M 470.0 161.0 L 467.0 159.0 L 463.0 158.0 L 459.0 154.0 L 458.0 152.0 L 456.0 152.0 L 456.0 157.0 L 451.0 162.0 L 447.0 163.0 L 446.0 164.0 L 443.0 164.0 L 442.0 165.0 L 436.0 165.0 L 435.0 166.0 L 423.0 166.0 L 422.0 165.0 L 414.0 165.0 L 414.0 167.0 L 417.0 167.0 L 422.0 171.0 L 422.0 173.0 L 424.0 177.0 L 424.0 189.0 L 423.0 190.0 L 423.0 196.0 L 422.0 197.0 L 422.0 207.0 L 419.0 209.0 L 417.0 208.0 L 414.0 208.0 L 413.0 207.0 L 413.0 210.0 L 415.0 213.0 L 422.0 214.0 L 424.0 215.0 L 426.0 217.0 L 426.0 218.0 L 427.0 218.0 L 427.0 217.0 L 430.0 215.0 L 438.0 215.0 L 439.0 214.0 L 442.0 214.0 L 443.0 213.0 L 448.0 213.0 L 449.0 212.0 L 466.0 212.0 L 467.0 213.0 L 475.0 214.0 L 478.0 216.0 L 482.0 211.0 L 480.0 210.0 L 477.0 210.0 L 473.0 207.0 L 473.0 198.0 L 472.0 197.0 L 472.0 193.0 L 471.0 192.0 L 470.0 187.0 L 468.0 184.0 L 467.0 179.0 L 463.0 172.0 L 463.0 170.0 L 461.0 166.0 L 461.0 163.0 L 462.0 162.0 L 465.0 161.0 L 466.0 162.0 L 469.0 162.0 L 470.0 163.0 Z"/>
  <path id="turtle-shape10" class="paint-section" fill="#fff" d="M 317.0 161.0 L 319.0 163.0 L 321.0 163.0 L 324.0 165.0 L 325.0 171.0 L 324.0 172.0 L 324.0 177.0 L 323.0 178.0 L 322.0 186.0 L 321.0 187.0 L 321.0 195.0 L 318.0 197.0 L 312.0 195.0 L 312.0 198.0 L 314.0 201.0 L 324.0 206.0 L 326.0 206.0 L 327.0 207.0 L 331.0 207.0 L 332.0 208.0 L 346.0 207.0 L 347.0 206.0 L 367.0 206.0 L 368.0 207.0 L 371.0 207.0 L 377.0 210.0 L 381.0 206.0 L 378.0 205.0 L 374.0 200.0 L 374.0 191.0 L 375.0 190.0 L 375.0 186.0 L 376.0 185.0 L 376.0 182.0 L 377.0 181.0 L 377.0 171.0 L 380.0 169.0 L 386.0 168.0 L 385.0 166.0 L 381.0 166.0 L 380.0 167.0 L 351.0 167.0 L 350.0 166.0 L 342.0 166.0 L 341.0 165.0 L 336.0 165.0 L 335.0 164.0 L 326.0 163.0 L 320.0 160.0 L 318.0 160.0 Z"/>
  <path id="turtle-shape11" class="paint-section" fill="#fff" d="M 457.0 151.0 L 456.0 152.0 L 456.0 157.0 L 451.0 162.0 L 449.0 163.0 L 449.0 165.0 L 451.0 165.0 L 455.0 163.0 L 459.0 166.0 L 459.0 168.0 L 462.0 174.0 L 462.0 176.0 L 466.0 183.0 L 466.0 185.0 L 467.0 186.0 L 467.0 188.0 L 469.0 192.0 L 469.0 195.0 L 470.0 196.0 L 470.0 200.0 L 471.0 201.0 L 471.0 206.0 L 468.0 208.0 L 466.0 207.0 L 461.0 207.0 L 461.0 210.0 L 462.0 212.0 L 466.0 212.0 L 467.0 213.0 L 475.0 214.0 L 479.0 216.0 L 486.0 224.0 L 490.0 224.0 L 492.0 223.0 L 490.0 221.0 L 490.0 218.0 L 493.0 216.0 L 495.0 216.0 L 500.0 212.0 L 505.0 216.0 L 508.0 213.0 L 509.0 213.0 L 506.0 210.0 L 506.0 208.0 L 508.0 206.0 L 512.0 204.0 L 512.0 203.0 L 514.0 201.0 L 514.0 196.0 L 511.0 192.0 L 511.0 191.0 L 503.0 183.0 L 503.0 182.0 L 494.0 172.0 L 493.0 169.0 L 490.0 166.0 L 488.0 161.0 L 486.0 159.0 L 483.0 152.0 L 481.0 151.0 L 478.0 151.0 L 477.0 153.0 L 479.0 156.0 L 479.0 159.0 L 476.0 161.0 L 473.0 161.0 L 472.0 160.0 L 468.0 160.0 L 467.0 159.0 L 463.0 158.0 L 459.0 154.0 L 458.0 151.0 Z"/>
  <path id="turtle-shape12" class="paint-section" fill="#fff" d="M 215.0 98.0 L 213.0 98.0 L 213.0 100.0 L 210.0 102.0 L 205.0 99.0 L 202.0 101.0 L 206.0 102.0 L 210.0 105.0 L 210.0 107.0 L 208.0 109.0 L 204.0 111.0 L 201.0 111.0 L 200.0 112.0 L 197.0 112.0 L 196.0 113.0 L 193.0 113.0 L 192.0 114.0 L 185.0 115.0 L 184.0 116.0 L 179.0 117.0 L 172.0 121.0 L 170.0 120.0 L 166.0 115.0 L 165.0 115.0 L 162.0 119.0 L 162.0 124.0 L 164.0 126.0 L 161.0 128.0 L 161.0 130.0 L 164.0 132.0 L 164.0 131.0 L 167.0 129.0 L 169.0 130.0 L 177.0 144.0 L 188.0 155.0 L 189.0 155.0 L 192.0 158.0 L 197.0 160.0 L 199.0 162.0 L 202.0 162.0 L 206.0 159.0 L 202.0 158.0 L 199.0 155.0 L 199.0 152.0 L 202.0 148.0 L 203.0 148.0 L 209.0 143.0 L 217.0 139.0 L 222.0 134.0 L 222.0 133.0 L 226.0 130.0 L 231.0 134.0 L 233.0 133.0 L 225.0 124.0 L 225.0 123.0 L 222.0 120.0 L 220.0 115.0 L 218.0 113.0 L 216.0 109.0 L 216.0 107.0 L 215.0 106.0 Z"/>
  <path id="turtle-shape13" class="paint-section" fill="#fff" d="M 187.0 149.0 L 187.0 154.0 L 192.0 158.0 L 197.0 160.0 L 199.0 162.0 L 205.0 165.0 L 207.0 165.0 L 212.0 168.0 L 214.0 168.0 L 217.0 170.0 L 219.0 170.0 L 220.0 171.0 L 225.0 172.0 L 228.0 174.0 L 236.0 176.0 L 243.0 180.0 L 245.0 180.0 L 248.0 177.0 L 248.0 176.0 L 243.0 174.0 L 241.0 171.0 L 241.0 168.0 L 247.0 156.0 L 248.0 150.0 L 251.0 148.0 L 252.0 149.0 L 254.0 149.0 L 258.0 151.0 L 258.0 148.0 L 256.0 148.0 L 244.0 142.0 L 241.0 139.0 L 240.0 139.0 L 237.0 136.0 L 236.0 136.0 L 229.0 129.0 L 229.0 128.0 L 225.0 124.0 L 225.0 123.0 L 222.0 120.0 L 222.0 119.0 L 220.0 120.0 L 222.0 124.0 L 222.0 128.0 L 220.0 132.0 L 214.0 138.0 L 211.0 139.0 L 209.0 141.0 L 203.0 144.0 L 198.0 149.0 L 198.0 150.0 L 195.0 152.0 L 190.0 150.0 L 188.0 148.0 Z"/>
  <path id="turtle-shape14" class="paint-section" fill="#fff" d="M 241.0 140.0 L 240.0 142.0 L 244.0 144.0 L 246.0 146.0 L 246.0 152.0 L 241.0 161.0 L 241.0 163.0 L 239.0 166.0 L 239.0 169.0 L 236.0 171.0 L 232.0 170.0 L 231.0 169.0 L 229.0 169.0 L 229.0 174.0 L 233.0 175.0 L 234.0 176.0 L 236.0 176.0 L 243.0 180.0 L 245.0 180.0 L 249.0 182.0 L 254.0 186.0 L 255.0 186.0 L 262.0 193.0 L 263.0 196.0 L 265.0 198.0 L 265.0 200.0 L 269.0 201.0 L 274.0 197.0 L 279.0 197.0 L 282.0 194.0 L 282.0 193.0 L 278.0 192.0 L 275.0 189.0 L 274.0 187.0 L 274.0 182.0 L 275.0 181.0 L 275.0 178.0 L 276.0 177.0 L 276.0 175.0 L 277.0 174.0 L 277.0 172.0 L 279.0 168.0 L 280.0 158.0 L 283.0 156.0 L 290.0 156.0 L 290.0 154.0 L 274.0 153.0 L 273.0 152.0 L 265.0 151.0 L 264.0 150.0 L 256.0 148.0 Z"/>
  <path id="turtle-shape15" class="paint-section" fill="#fff" d="M 259.0 44.0 L 259.0 50.0 L 261.0 49.0 L 264.0 51.0 L 264.0 53.0 L 261.0 55.0 L 262.0 57.0 L 263.0 56.0 L 266.0 56.0 L 267.0 55.0 L 274.0 55.0 L 275.0 54.0 L 279.0 54.0 L 280.0 55.0 L 286.0 55.0 L 287.0 56.0 L 289.0 56.0 L 295.0 59.0 L 300.0 64.0 L 300.0 65.0 L 302.0 67.0 L 302.0 69.0 L 303.0 70.0 L 304.0 74.0 L 306.0 73.0 L 305.0 71.0 L 305.0 65.0 L 313.0 60.0 L 315.0 60.0 L 319.0 58.0 L 322.0 58.0 L 323.0 57.0 L 326.0 57.0 L 327.0 56.0 L 338.0 56.0 L 339.0 55.0 L 342.0 55.0 L 343.0 56.0 L 353.0 56.0 L 354.0 57.0 L 357.0 57.0 L 358.0 58.0 L 360.0 58.0 L 364.0 60.0 L 366.0 58.0 L 365.0 57.0 L 361.0 56.0 L 359.0 54.0 L 360.0 48.0 L 363.0 46.0 L 369.0 47.0 L 370.0 48.0 L 370.0 43.0 L 369.0 42.0 L 361.0 41.0 L 360.0 40.0 L 356.0 40.0 L 355.0 39.0 L 350.0 39.0 L 349.0 38.0 L 341.0 38.0 L 340.0 37.0 L 328.0 37.0 L 327.0 36.0 L 304.0 36.0 L 303.0 37.0 L 292.0 37.0 L 291.0 38.0 L 284.0 38.0 L 283.0 39.0 L 278.0 39.0 L 277.0 40.0 L 274.0 40.0 L 273.0 41.0 L 270.0 41.0 L 269.0 42.0 L 266.0 42.0 L 265.0 43.0 Z"/>
  <path id="turtle-shape16" class="paint-section" fill="#fff" d="M 271.0 45.0 L 268.0 42.0 L 262.0 43.0 L 261.0 44.0 L 253.0 46.0 L 250.0 48.0 L 245.0 49.0 L 238.0 53.0 L 236.0 53.0 L 224.0 59.0 L 219.0 63.0 L 214.0 65.0 L 212.0 67.0 L 205.0 71.0 L 202.0 74.0 L 198.0 76.0 L 195.0 79.0 L 194.0 79.0 L 188.0 84.0 L 184.0 86.0 L 181.0 89.0 L 177.0 91.0 L 175.0 93.0 L 175.0 96.0 L 176.0 98.0 L 178.0 98.0 L 179.0 97.0 L 189.0 97.0 L 190.0 98.0 L 195.0 98.0 L 196.0 99.0 L 201.0 100.0 L 204.0 102.0 L 208.0 103.0 L 210.0 105.0 L 210.0 107.0 L 208.0 109.0 L 204.0 111.0 L 202.0 111.0 L 205.0 113.0 L 206.0 112.0 L 208.0 112.0 L 212.0 109.0 L 214.0 110.0 L 215.0 112.0 L 217.0 112.0 L 217.0 110.0 L 215.0 106.0 L 215.0 98.0 L 216.0 97.0 L 216.0 95.0 L 218.0 91.0 L 223.0 85.0 L 223.0 84.0 L 236.0 72.0 L 237.0 72.0 L 243.0 67.0 L 249.0 64.0 L 251.0 62.0 L 263.0 56.0 L 266.0 56.0 L 267.0 55.0 L 273.0 55.0 L 273.0 50.0 L 271.0 49.0 Z"/>
  <path id="turtle-shape17" class="paint-section" fill="#fff" d="M 216.0 94.0 L 214.0 94.0 L 213.0 100.0 L 210.0 102.0 L 203.0 98.0 L 201.0 98.0 L 197.0 96.0 L 192.0 96.0 L 187.0 93.0 L 187.0 91.0 L 192.0 87.0 L 189.0 85.0 L 186.0 85.0 L 184.0 86.0 L 181.0 89.0 L 180.0 89.0 L 172.0 95.0 L 161.0 100.0 L 158.0 98.0 L 158.0 94.0 L 156.0 94.0 L 153.0 96.0 L 153.0 108.0 L 154.0 109.0 L 154.0 118.0 L 155.0 119.0 L 155.0 122.0 L 160.0 127.0 L 162.0 128.0 L 164.0 127.0 L 166.0 130.0 L 167.0 129.0 L 172.0 133.0 L 175.0 131.0 L 173.0 127.0 L 173.0 124.0 L 176.0 121.0 L 180.0 119.0 L 186.0 118.0 L 187.0 117.0 L 190.0 117.0 L 191.0 116.0 L 199.0 115.0 L 200.0 114.0 L 208.0 112.0 L 212.0 109.0 L 215.0 111.0 L 217.0 116.0 L 218.0 116.0 L 219.0 114.0 L 215.0 106.0 L 215.0 98.0 L 216.0 97.0 Z"/>
  <path id="turtle-shape18" class="paint-section" fill="#fff" d="M 385.0 207.0 L 383.0 212.0 L 387.0 212.0 L 388.0 211.0 L 391.0 213.0 L 391.0 221.0 L 393.0 225.0 L 397.0 229.0 L 398.0 229.0 L 403.0 233.0 L 405.0 233.0 L 411.0 236.0 L 414.0 236.0 L 415.0 237.0 L 419.0 237.0 L 420.0 238.0 L 422.0 238.0 L 424.0 239.0 L 425.0 241.0 L 428.0 241.0 L 429.0 242.0 L 433.0 242.0 L 438.0 238.0 L 440.0 233.0 L 432.0 226.0 L 429.0 220.0 L 427.0 219.0 L 427.0 217.0 L 430.0 215.0 L 438.0 215.0 L 438.0 214.0 L 436.0 210.0 L 429.0 210.0 L 427.0 209.0 L 425.0 207.0 L 425.0 203.0 L 422.0 202.0 L 422.0 207.0 L 419.0 209.0 L 417.0 208.0 L 414.0 208.0 L 413.0 207.0 L 410.0 207.0 L 409.0 206.0 L 403.0 206.0 L 402.0 205.0 L 397.0 205.0 L 396.0 206.0 L 387.0 206.0 Z"/>
  <path id="turtle-shape19" class="paint-section" fill="#fff" d="M 447.0 105.0 L 447.0 108.0 L 445.0 109.0 L 445.0 110.0 L 443.0 112.0 L 442.0 112.0 L 443.0 113.0 L 444.0 119.0 L 445.0 120.0 L 446.0 130.0 L 447.0 131.0 L 447.0 136.0 L 448.0 137.0 L 451.0 135.0 L 454.0 137.0 L 455.0 139.0 L 455.0 145.0 L 456.0 146.0 L 456.0 157.0 L 451.0 162.0 L 450.0 162.0 L 452.0 164.0 L 454.0 163.0 L 457.0 164.0 L 459.0 166.0 L 460.0 170.0 L 462.0 170.0 L 461.0 163.0 L 464.0 161.0 L 466.0 162.0 L 469.0 162.0 L 470.0 163.0 L 481.0 163.0 L 483.0 164.0 L 486.0 168.0 L 487.0 168.0 L 489.0 166.0 L 489.0 163.0 L 486.0 159.0 L 482.0 150.0 L 480.0 148.0 L 479.0 144.0 L 476.0 138.0 L 474.0 136.0 L 474.0 134.0 L 466.0 118.0 L 464.0 116.0 L 461.0 109.0 L 459.0 107.0 L 458.0 104.0 L 456.0 102.0 L 455.0 103.0 Z"/>
  <path id="turtle-shape20" class="paint-section" fill="#fff" d="M 98.0 184.0 L 97.0 186.0 L 97.0 189.0 L 99.0 188.0 L 101.0 189.0 L 104.0 187.0 L 107.0 189.0 L 107.0 191.0 L 104.0 193.0 L 102.0 192.0 L 99.0 194.0 L 98.0 193.0 L 96.0 193.0 L 94.0 196.0 L 94.0 200.0 L 95.0 201.0 L 94.0 202.0 L 94.0 204.0 L 96.0 208.0 L 98.0 210.0 L 98.0 212.0 L 102.0 216.0 L 106.0 218.0 L 110.0 218.0 L 116.0 222.0 L 119.0 219.0 L 125.0 216.0 L 127.0 216.0 L 128.0 215.0 L 130.0 216.0 L 133.0 220.0 L 135.0 220.0 L 136.0 219.0 L 142.0 219.0 L 143.0 218.0 L 148.0 218.0 L 149.0 217.0 L 151.0 218.0 L 152.0 216.0 L 152.0 213.0 L 150.0 211.0 L 146.0 209.0 L 142.0 205.0 L 141.0 205.0 L 135.0 197.0 L 134.0 191.0 L 137.0 189.0 L 141.0 190.0 L 141.0 186.0 L 139.0 184.0 L 137.0 184.0 L 133.0 181.0 L 128.0 179.0 L 124.0 175.0 L 119.0 175.0 L 117.0 176.0 L 119.0 178.0 L 119.0 180.0 L 116.0 182.0 L 106.0 182.0 L 105.0 183.0 L 100.0 183.0 Z"/>
  <path id="turtle-shape21" class="paint-section" fill="#fff" d="M 349.0 43.0 L 349.0 44.0 L 355.0 44.0 L 358.0 46.0 L 358.0 48.0 L 354.0 53.0 L 352.0 54.0 L 347.0 54.0 L 347.0 56.0 L 353.0 56.0 L 354.0 57.0 L 357.0 57.0 L 358.0 58.0 L 366.0 60.0 L 372.0 63.0 L 377.0 67.0 L 377.0 68.0 L 380.0 71.0 L 382.0 76.0 L 384.0 76.0 L 384.0 73.0 L 382.0 70.0 L 382.0 68.0 L 385.0 66.0 L 388.0 66.0 L 389.0 65.0 L 405.0 65.0 L 406.0 66.0 L 410.0 66.0 L 411.0 67.0 L 413.0 64.0 L 413.0 59.0 L 412.0 59.0 L 410.0 57.0 L 400.0 52.0 L 398.0 52.0 L 393.0 49.0 L 391.0 49.0 L 390.0 48.0 L 388.0 48.0 L 387.0 47.0 L 385.0 47.0 L 384.0 46.0 L 382.0 46.0 L 378.0 44.0 L 370.0 43.0 L 369.0 42.0 L 361.0 41.0 L 360.0 40.0 L 356.0 40.0 L 355.0 39.0 L 352.0 39.0 Z"/>
  <path id="turtle-shape22" class="paint-section" fill="#fff" d="M 480.0 211.0 L 478.0 216.0 L 479.0 216.0 L 483.0 220.0 L 483.0 221.0 L 494.0 232.0 L 494.0 233.0 L 502.0 242.0 L 505.0 242.0 L 506.0 243.0 L 508.0 242.0 L 506.0 240.0 L 506.0 238.0 L 509.0 236.0 L 510.0 237.0 L 515.0 238.0 L 518.0 240.0 L 520.0 240.0 L 523.0 242.0 L 529.0 243.0 L 530.0 244.0 L 533.0 244.0 L 534.0 245.0 L 538.0 245.0 L 539.0 244.0 L 541.0 244.0 L 543.0 242.0 L 543.0 237.0 L 542.0 235.0 L 537.0 230.0 L 534.0 229.0 L 532.0 227.0 L 518.0 220.0 L 516.0 218.0 L 512.0 216.0 L 506.0 210.0 L 506.0 208.0 L 510.0 205.0 L 510.0 204.0 L 507.0 202.0 L 503.0 202.0 L 499.0 204.0 L 498.0 206.0 L 494.0 210.0 L 490.0 212.0 Z"/>
  <path id="turtle-shape23" class="paint-section" fill="#fff" d="M 128.0 180.0 L 124.0 184.0 L 123.0 187.0 L 126.0 187.0 L 129.0 189.0 L 129.0 194.0 L 130.0 195.0 L 130.0 198.0 L 132.0 202.0 L 135.0 205.0 L 135.0 206.0 L 140.0 211.0 L 140.0 213.0 L 139.0 214.0 L 135.0 215.0 L 139.0 219.0 L 142.0 219.0 L 143.0 218.0 L 148.0 218.0 L 150.0 217.0 L 158.0 221.0 L 160.0 223.0 L 160.0 227.0 L 163.0 227.0 L 165.0 226.0 L 165.0 217.0 L 166.0 216.0 L 166.0 212.0 L 167.0 211.0 L 167.0 208.0 L 168.0 207.0 L 168.0 205.0 L 170.0 201.0 L 170.0 198.0 L 171.0 197.0 L 171.0 189.0 L 170.0 188.0 L 170.0 186.0 L 167.0 184.0 L 165.0 184.0 L 163.0 185.0 L 164.0 186.0 L 164.0 188.0 L 161.0 190.0 L 157.0 190.0 L 156.0 189.0 L 151.0 189.0 L 150.0 188.0 L 142.0 186.0 L 139.0 184.0 L 135.0 183.0 L 131.0 180.0 Z"/>
  <image class="turtle-art" href="turtle-art.png" xlink:href="turtle-art.png"
    x="0" y="0" width="562" height="334" pointer-events="none"/>
</svg>
