<svg xmlns="http://www.w3.org/2000/svg" viewBox="0 0 320 200" aria-hidden="true">
  <rect width="320" height="200" fill="#87ceeb"/>
  <circle cx="268" cy="42" r="28" fill="#fff59d" stroke="#f9a825" stroke-width="2"/>
  <path fill="#81c784" d="M0 115 C80 85 140 125 200 100 C250 82 290 95 320 88 V200 H0Z"/>
  <path fill="#66bb6a" d="M0 140 C60 128 120 150 180 135 C230 124 280 138 320 130 V200 H0Z"/>
  <path fill="#9e9e9e" stroke="#616161" stroke-width="3" stroke-linejoin="round"
    d="M-10 168 C50 155 90 175 130 158 C175 140 210 162 260 148 C290 140 310 145 330 142 L335 168 C290 178 250 168 210 180 C160 195 110 182 70 190 C30 198 5 192 -10 188Z"/>
  <path fill="none" stroke="#fff" stroke-width="2" stroke-dasharray="8 10" stroke-linecap="round"
    d="M20 162 C70 150 120 168 165 152 C210 138 250 155 300 145"/>
  <g opacity="0.95" fill="#fff" stroke="#111" stroke-width="1.5">
    <path d="M48 128 L58 118 L68 128 L63 138 L53 138Z"/>
    <rect x="235" y="108" width="28" height="22" rx="2"/>
    <path d="M228 108 L249 95 L270 108Z"/>
    <ellipse cx="155" cy="132" rx="12" ry="8"/>
  </g>
</svg>
